%TF.GenerationSoftware,KiCad,Pcbnew,(5.0.0)*%
%TF.CreationDate,2018-07-29T14:19:51+09:00*%
%TF.ProjectId,mc33063buck1,6D6333333036336275636B312E6B6963,rev?*%
%TF.SameCoordinates,Original*%
%TF.FileFunction,Legend,Top*%
%TF.FilePolarity,Positive*%
%FSLAX46Y46*%
G04 Gerber Fmt 4.6, Leading zero omitted, Abs format (unit mm)*
G04 Created by KiCad (PCBNEW (5.0.0)) date 07/29/18 14:19:51*
%MOMM*%
%LPD*%
G01*
G04 APERTURE LIST*
%ADD10C,0.100000*%
%ADD11C,0.120000*%
%ADD12C,0.150000*%
G04 APERTURE END LIST*
D10*
X101968300Y-18897600D02*
X14770100Y-18897600D01*
X101968300Y-67919600D02*
X101968300Y-18897600D01*
X14744700Y-67919600D02*
X101968300Y-67919600D01*
X14744700Y-18973800D02*
X14744700Y-67919600D01*
D11*
X24270000Y-55345900D02*
X24270000Y-64465900D01*
X24270000Y-64465900D02*
X49390000Y-64465900D01*
X49390000Y-64465900D02*
X49390000Y-55345900D01*
X49390000Y-55345900D02*
X24270000Y-55345900D01*
X24240000Y-59905900D02*
X24270000Y-59905900D01*
X49420000Y-59905900D02*
X49390000Y-59905900D01*
X68637800Y-35988500D02*
X73957800Y-35988500D01*
X73957800Y-35988500D02*
X73957800Y-26368500D01*
X73957800Y-26368500D02*
X68637800Y-26368500D01*
X68637800Y-26368500D02*
X68637800Y-35988500D01*
X71297800Y-37018500D02*
X71297800Y-35988500D01*
X71297800Y-25338500D02*
X71297800Y-26368500D01*
X68637800Y-34503500D02*
X73957800Y-34503500D01*
X97638181Y-30213300D02*
G75*
G03X97638181Y-30213300I-1600781J0D01*
G01*
X55440900Y-33349500D02*
X55440900Y-22229500D01*
X60560900Y-33349500D02*
X60560900Y-22229500D01*
X55440900Y-33349500D02*
X60560900Y-33349500D01*
X55440900Y-22229500D02*
X60560900Y-22229500D01*
X93500100Y-26684600D02*
G75*
G03X93500100Y-26684600I-6340000J0D01*
G01*
X80860100Y-26684600D02*
X93460100Y-26684600D01*
X80860100Y-26644600D02*
X93460100Y-26644600D01*
X80860100Y-26604600D02*
X93460100Y-26604600D01*
X80861100Y-26564600D02*
X93459100Y-26564600D01*
X80862100Y-26524600D02*
X93458100Y-26524600D01*
X80863100Y-26484600D02*
X93457100Y-26484600D01*
X80864100Y-26444600D02*
X93456100Y-26444600D01*
X80866100Y-26404600D02*
X93454100Y-26404600D01*
X80868100Y-26364600D02*
X93452100Y-26364600D01*
X80870100Y-26324600D02*
X93450100Y-26324600D01*
X80872100Y-26284600D02*
X93448100Y-26284600D01*
X80875100Y-26244600D02*
X93445100Y-26244600D01*
X80878100Y-26204600D02*
X93442100Y-26204600D01*
X80881100Y-26164600D02*
X93439100Y-26164600D01*
X80884100Y-26124600D02*
X93436100Y-26124600D01*
X80888100Y-26084600D02*
X93432100Y-26084600D01*
X80892100Y-26044600D02*
X93428100Y-26044600D01*
X80896100Y-26004600D02*
X93424100Y-26004600D01*
X80901100Y-25963600D02*
X93419100Y-25963600D01*
X80905100Y-25923600D02*
X93415100Y-25923600D01*
X80910100Y-25883600D02*
X93410100Y-25883600D01*
X80915100Y-25843600D02*
X93405100Y-25843600D01*
X80921100Y-25803600D02*
X93399100Y-25803600D01*
X80927100Y-25763600D02*
X93393100Y-25763600D01*
X80933100Y-25723600D02*
X93387100Y-25723600D01*
X80939100Y-25683600D02*
X93381100Y-25683600D01*
X80945100Y-25643600D02*
X93375100Y-25643600D01*
X80952100Y-25603600D02*
X93368100Y-25603600D01*
X80959100Y-25563600D02*
X85780100Y-25563600D01*
X88540100Y-25563600D02*
X93361100Y-25563600D01*
X80967100Y-25523600D02*
X85780100Y-25523600D01*
X88540100Y-25523600D02*
X93353100Y-25523600D01*
X80974100Y-25483600D02*
X85780100Y-25483600D01*
X88540100Y-25483600D02*
X93346100Y-25483600D01*
X80982100Y-25443600D02*
X85780100Y-25443600D01*
X88540100Y-25443600D02*
X93338100Y-25443600D01*
X80990100Y-25403600D02*
X85780100Y-25403600D01*
X88540100Y-25403600D02*
X93330100Y-25403600D01*
X80998100Y-25363600D02*
X85780100Y-25363600D01*
X88540100Y-25363600D02*
X93322100Y-25363600D01*
X81007100Y-25323600D02*
X85780100Y-25323600D01*
X88540100Y-25323600D02*
X93313100Y-25323600D01*
X81016100Y-25283600D02*
X85780100Y-25283600D01*
X88540100Y-25283600D02*
X93304100Y-25283600D01*
X81025100Y-25243600D02*
X85780100Y-25243600D01*
X88540100Y-25243600D02*
X93295100Y-25243600D01*
X81035100Y-25203600D02*
X85780100Y-25203600D01*
X88540100Y-25203600D02*
X93285100Y-25203600D01*
X81044100Y-25163600D02*
X85780100Y-25163600D01*
X88540100Y-25163600D02*
X93276100Y-25163600D01*
X81054100Y-25123600D02*
X85780100Y-25123600D01*
X88540100Y-25123600D02*
X93266100Y-25123600D01*
X81065100Y-25083600D02*
X85780100Y-25083600D01*
X88540100Y-25083600D02*
X93255100Y-25083600D01*
X81075100Y-25043600D02*
X85780100Y-25043600D01*
X88540100Y-25043600D02*
X93245100Y-25043600D01*
X81086100Y-25003600D02*
X85780100Y-25003600D01*
X88540100Y-25003600D02*
X93234100Y-25003600D01*
X81097100Y-24963600D02*
X85780100Y-24963600D01*
X88540100Y-24963600D02*
X93223100Y-24963600D01*
X81109100Y-24923600D02*
X85780100Y-24923600D01*
X88540100Y-24923600D02*
X93211100Y-24923600D01*
X81120100Y-24883600D02*
X85780100Y-24883600D01*
X88540100Y-24883600D02*
X93200100Y-24883600D01*
X81132100Y-24843600D02*
X85780100Y-24843600D01*
X88540100Y-24843600D02*
X93188100Y-24843600D01*
X81145100Y-24803600D02*
X85780100Y-24803600D01*
X88540100Y-24803600D02*
X93175100Y-24803600D01*
X81157100Y-24763600D02*
X85780100Y-24763600D01*
X88540100Y-24763600D02*
X93163100Y-24763600D01*
X81170100Y-24723600D02*
X85780100Y-24723600D01*
X88540100Y-24723600D02*
X93150100Y-24723600D01*
X81183100Y-24683600D02*
X85780100Y-24683600D01*
X88540100Y-24683600D02*
X93137100Y-24683600D01*
X81197100Y-24643600D02*
X85780100Y-24643600D01*
X88540100Y-24643600D02*
X93123100Y-24643600D01*
X81210100Y-24603600D02*
X85780100Y-24603600D01*
X88540100Y-24603600D02*
X93110100Y-24603600D01*
X81224100Y-24563600D02*
X85780100Y-24563600D01*
X88540100Y-24563600D02*
X93096100Y-24563600D01*
X81239100Y-24523600D02*
X85780100Y-24523600D01*
X88540100Y-24523600D02*
X93081100Y-24523600D01*
X81253100Y-24483600D02*
X85780100Y-24483600D01*
X88540100Y-24483600D02*
X93067100Y-24483600D01*
X81268100Y-24443600D02*
X85780100Y-24443600D01*
X88540100Y-24443600D02*
X93052100Y-24443600D01*
X81284100Y-24403600D02*
X85780100Y-24403600D01*
X88540100Y-24403600D02*
X93036100Y-24403600D01*
X81299100Y-24363600D02*
X85780100Y-24363600D01*
X88540100Y-24363600D02*
X93021100Y-24363600D01*
X81315100Y-24323600D02*
X85780100Y-24323600D01*
X88540100Y-24323600D02*
X93005100Y-24323600D01*
X81331100Y-24283600D02*
X85780100Y-24283600D01*
X88540100Y-24283600D02*
X92989100Y-24283600D01*
X81348100Y-24243600D02*
X85780100Y-24243600D01*
X88540100Y-24243600D02*
X92972100Y-24243600D01*
X81365100Y-24203600D02*
X85780100Y-24203600D01*
X88540100Y-24203600D02*
X92955100Y-24203600D01*
X81382100Y-24163600D02*
X85780100Y-24163600D01*
X88540100Y-24163600D02*
X92938100Y-24163600D01*
X81399100Y-24123600D02*
X85780100Y-24123600D01*
X88540100Y-24123600D02*
X92921100Y-24123600D01*
X81417100Y-24083600D02*
X85780100Y-24083600D01*
X88540100Y-24083600D02*
X92903100Y-24083600D01*
X81435100Y-24043600D02*
X85780100Y-24043600D01*
X88540100Y-24043600D02*
X92885100Y-24043600D01*
X81454100Y-24003600D02*
X85780100Y-24003600D01*
X88540100Y-24003600D02*
X92866100Y-24003600D01*
X81473100Y-23963600D02*
X85780100Y-23963600D01*
X88540100Y-23963600D02*
X92847100Y-23963600D01*
X81492100Y-23923600D02*
X85780100Y-23923600D01*
X88540100Y-23923600D02*
X92828100Y-23923600D01*
X81511100Y-23883600D02*
X85780100Y-23883600D01*
X88540100Y-23883600D02*
X92809100Y-23883600D01*
X81531100Y-23843600D02*
X85780100Y-23843600D01*
X88540100Y-23843600D02*
X92789100Y-23843600D01*
X81551100Y-23803600D02*
X85780100Y-23803600D01*
X88540100Y-23803600D02*
X92769100Y-23803600D01*
X81572100Y-23763600D02*
X85780100Y-23763600D01*
X88540100Y-23763600D02*
X92748100Y-23763600D01*
X81593100Y-23723600D02*
X85780100Y-23723600D01*
X88540100Y-23723600D02*
X92727100Y-23723600D01*
X81614100Y-23683600D02*
X85780100Y-23683600D01*
X88540100Y-23683600D02*
X92706100Y-23683600D01*
X81636100Y-23643600D02*
X85780100Y-23643600D01*
X88540100Y-23643600D02*
X92684100Y-23643600D01*
X81658100Y-23603600D02*
X85780100Y-23603600D01*
X88540100Y-23603600D02*
X92662100Y-23603600D01*
X81680100Y-23563600D02*
X85780100Y-23563600D01*
X88540100Y-23563600D02*
X92640100Y-23563600D01*
X81703100Y-23523600D02*
X85780100Y-23523600D01*
X88540100Y-23523600D02*
X92617100Y-23523600D01*
X81726100Y-23483600D02*
X85780100Y-23483600D01*
X88540100Y-23483600D02*
X92594100Y-23483600D01*
X81750100Y-23443600D02*
X85780100Y-23443600D01*
X88540100Y-23443600D02*
X92570100Y-23443600D01*
X81774100Y-23403600D02*
X85780100Y-23403600D01*
X88540100Y-23403600D02*
X92546100Y-23403600D01*
X81798100Y-23363600D02*
X85780100Y-23363600D01*
X88540100Y-23363600D02*
X92522100Y-23363600D01*
X81823100Y-23323600D02*
X85780100Y-23323600D01*
X88540100Y-23323600D02*
X92497100Y-23323600D01*
X81848100Y-23283600D02*
X85780100Y-23283600D01*
X88540100Y-23283600D02*
X92472100Y-23283600D01*
X81874100Y-23243600D02*
X85780100Y-23243600D01*
X88540100Y-23243600D02*
X92446100Y-23243600D01*
X81900100Y-23203600D02*
X85780100Y-23203600D01*
X88540100Y-23203600D02*
X92420100Y-23203600D01*
X81926100Y-23163600D02*
X85780100Y-23163600D01*
X88540100Y-23163600D02*
X92394100Y-23163600D01*
X81953100Y-23123600D02*
X85780100Y-23123600D01*
X88540100Y-23123600D02*
X92367100Y-23123600D01*
X81981100Y-23083600D02*
X85780100Y-23083600D01*
X88540100Y-23083600D02*
X92339100Y-23083600D01*
X82009100Y-23043600D02*
X85780100Y-23043600D01*
X88540100Y-23043600D02*
X92311100Y-23043600D01*
X82037100Y-23003600D02*
X85780100Y-23003600D01*
X88540100Y-23003600D02*
X92283100Y-23003600D01*
X82066100Y-22963600D02*
X85780100Y-22963600D01*
X88540100Y-22963600D02*
X92254100Y-22963600D01*
X82095100Y-22923600D02*
X85780100Y-22923600D01*
X88540100Y-22923600D02*
X92225100Y-22923600D01*
X82125100Y-22883600D02*
X85780100Y-22883600D01*
X88540100Y-22883600D02*
X92195100Y-22883600D01*
X82155100Y-22843600D02*
X85780100Y-22843600D01*
X88540100Y-22843600D02*
X92165100Y-22843600D01*
X82185100Y-22803600D02*
X92135100Y-22803600D01*
X82217100Y-22763600D02*
X92103100Y-22763600D01*
X82248100Y-22723600D02*
X92072100Y-22723600D01*
X82281100Y-22683600D02*
X92039100Y-22683600D01*
X82313100Y-22643600D02*
X92007100Y-22643600D01*
X82347100Y-22603600D02*
X91973100Y-22603600D01*
X82381100Y-22563600D02*
X91939100Y-22563600D01*
X82415100Y-22523600D02*
X91905100Y-22523600D01*
X82450100Y-22483600D02*
X91870100Y-22483600D01*
X82486100Y-22443600D02*
X91834100Y-22443600D01*
X82522100Y-22403600D02*
X91798100Y-22403600D01*
X82559100Y-22363600D02*
X91761100Y-22363600D01*
X82597100Y-22323600D02*
X91723100Y-22323600D01*
X82635100Y-22283600D02*
X91685100Y-22283600D01*
X82674100Y-22243600D02*
X91646100Y-22243600D01*
X82713100Y-22203600D02*
X91607100Y-22203600D01*
X82754100Y-22163600D02*
X91566100Y-22163600D01*
X82795100Y-22123600D02*
X91525100Y-22123600D01*
X82837100Y-22083600D02*
X91483100Y-22083600D01*
X82879100Y-22043600D02*
X91441100Y-22043600D01*
X82922100Y-22003600D02*
X91398100Y-22003600D01*
X82967100Y-21963600D02*
X91353100Y-21963600D01*
X83012100Y-21923600D02*
X91308100Y-21923600D01*
X83058100Y-21883600D02*
X91262100Y-21883600D01*
X83104100Y-21843600D02*
X91216100Y-21843600D01*
X83152100Y-21803600D02*
X91168100Y-21803600D01*
X83201100Y-21763600D02*
X91119100Y-21763600D01*
X83251100Y-21723600D02*
X91069100Y-21723600D01*
X83301100Y-21683600D02*
X91019100Y-21683600D01*
X83353100Y-21643600D02*
X90967100Y-21643600D01*
X83406100Y-21603600D02*
X90914100Y-21603600D01*
X83460100Y-21563600D02*
X90860100Y-21563600D01*
X83516100Y-21523600D02*
X90804100Y-21523600D01*
X83572100Y-21483600D02*
X90748100Y-21483600D01*
X83630100Y-21443600D02*
X90690100Y-21443600D01*
X83690100Y-21403600D02*
X90630100Y-21403600D01*
X83751100Y-21363600D02*
X90569100Y-21363600D01*
X83813100Y-21323600D02*
X90507100Y-21323600D01*
X83878100Y-21283600D02*
X90442100Y-21283600D01*
X83943100Y-21243600D02*
X90377100Y-21243600D01*
X84011100Y-21203600D02*
X90309100Y-21203600D01*
X84081100Y-21163600D02*
X90239100Y-21163600D01*
X84153100Y-21123600D02*
X90167100Y-21123600D01*
X84227100Y-21083600D02*
X90093100Y-21083600D01*
X84304100Y-21043600D02*
X90016100Y-21043600D01*
X84383100Y-21003600D02*
X89937100Y-21003600D01*
X84465100Y-20963600D02*
X89855100Y-20963600D01*
X84550100Y-20923600D02*
X89770100Y-20923600D01*
X84639100Y-20883600D02*
X89681100Y-20883600D01*
X84732100Y-20843600D02*
X89588100Y-20843600D01*
X84829100Y-20803600D02*
X89491100Y-20803600D01*
X84930100Y-20763600D02*
X89390100Y-20763600D01*
X85038100Y-20723600D02*
X89282100Y-20723600D01*
X85151100Y-20683600D02*
X89169100Y-20683600D01*
X85272100Y-20643600D02*
X89048100Y-20643600D01*
X85403100Y-20603600D02*
X88917100Y-20603600D01*
X85544100Y-20563600D02*
X88776100Y-20563600D01*
X85700100Y-20523600D02*
X88620100Y-20523600D01*
X85875100Y-20483600D02*
X88445100Y-20483600D01*
X86078100Y-20443600D02*
X88242100Y-20443600D01*
X86329100Y-20403600D02*
X87991100Y-20403600D01*
X86696100Y-20363600D02*
X87624100Y-20363600D01*
X87160100Y-32384600D02*
X87160100Y-30584600D01*
X86260100Y-31484600D02*
X88060100Y-31484600D01*
X42420700Y-26773500D02*
G75*
G03X42420700Y-26773500I-6340000J0D01*
G01*
X29780700Y-26773500D02*
X42380700Y-26773500D01*
X29780700Y-26733500D02*
X42380700Y-26733500D01*
X29780700Y-26693500D02*
X42380700Y-26693500D01*
X29781700Y-26653500D02*
X42379700Y-26653500D01*
X29782700Y-26613500D02*
X42378700Y-26613500D01*
X29783700Y-26573500D02*
X42377700Y-26573500D01*
X29784700Y-26533500D02*
X42376700Y-26533500D01*
X29786700Y-26493500D02*
X42374700Y-26493500D01*
X29788700Y-26453500D02*
X42372700Y-26453500D01*
X29790700Y-26413500D02*
X42370700Y-26413500D01*
X29792700Y-26373500D02*
X42368700Y-26373500D01*
X29795700Y-26333500D02*
X42365700Y-26333500D01*
X29798700Y-26293500D02*
X42362700Y-26293500D01*
X29801700Y-26253500D02*
X42359700Y-26253500D01*
X29804700Y-26213500D02*
X42356700Y-26213500D01*
X29808700Y-26173500D02*
X42352700Y-26173500D01*
X29812700Y-26133500D02*
X42348700Y-26133500D01*
X29816700Y-26093500D02*
X42344700Y-26093500D01*
X29821700Y-26052500D02*
X42339700Y-26052500D01*
X29825700Y-26012500D02*
X42335700Y-26012500D01*
X29830700Y-25972500D02*
X42330700Y-25972500D01*
X29835700Y-25932500D02*
X42325700Y-25932500D01*
X29841700Y-25892500D02*
X42319700Y-25892500D01*
X29847700Y-25852500D02*
X42313700Y-25852500D01*
X29853700Y-25812500D02*
X42307700Y-25812500D01*
X29859700Y-25772500D02*
X42301700Y-25772500D01*
X29865700Y-25732500D02*
X42295700Y-25732500D01*
X29872700Y-25692500D02*
X42288700Y-25692500D01*
X29879700Y-25652500D02*
X34700700Y-25652500D01*
X37460700Y-25652500D02*
X42281700Y-25652500D01*
X29887700Y-25612500D02*
X34700700Y-25612500D01*
X37460700Y-25612500D02*
X42273700Y-25612500D01*
X29894700Y-25572500D02*
X34700700Y-25572500D01*
X37460700Y-25572500D02*
X42266700Y-25572500D01*
X29902700Y-25532500D02*
X34700700Y-25532500D01*
X37460700Y-25532500D02*
X42258700Y-25532500D01*
X29910700Y-25492500D02*
X34700700Y-25492500D01*
X37460700Y-25492500D02*
X42250700Y-25492500D01*
X29918700Y-25452500D02*
X34700700Y-25452500D01*
X37460700Y-25452500D02*
X42242700Y-25452500D01*
X29927700Y-25412500D02*
X34700700Y-25412500D01*
X37460700Y-25412500D02*
X42233700Y-25412500D01*
X29936700Y-25372500D02*
X34700700Y-25372500D01*
X37460700Y-25372500D02*
X42224700Y-25372500D01*
X29945700Y-25332500D02*
X34700700Y-25332500D01*
X37460700Y-25332500D02*
X42215700Y-25332500D01*
X29955700Y-25292500D02*
X34700700Y-25292500D01*
X37460700Y-25292500D02*
X42205700Y-25292500D01*
X29964700Y-25252500D02*
X34700700Y-25252500D01*
X37460700Y-25252500D02*
X42196700Y-25252500D01*
X29974700Y-25212500D02*
X34700700Y-25212500D01*
X37460700Y-25212500D02*
X42186700Y-25212500D01*
X29985700Y-25172500D02*
X34700700Y-25172500D01*
X37460700Y-25172500D02*
X42175700Y-25172500D01*
X29995700Y-25132500D02*
X34700700Y-25132500D01*
X37460700Y-25132500D02*
X42165700Y-25132500D01*
X30006700Y-25092500D02*
X34700700Y-25092500D01*
X37460700Y-25092500D02*
X42154700Y-25092500D01*
X30017700Y-25052500D02*
X34700700Y-25052500D01*
X37460700Y-25052500D02*
X42143700Y-25052500D01*
X30029700Y-25012500D02*
X34700700Y-25012500D01*
X37460700Y-25012500D02*
X42131700Y-25012500D01*
X30040700Y-24972500D02*
X34700700Y-24972500D01*
X37460700Y-24972500D02*
X42120700Y-24972500D01*
X30052700Y-24932500D02*
X34700700Y-24932500D01*
X37460700Y-24932500D02*
X42108700Y-24932500D01*
X30065700Y-24892500D02*
X34700700Y-24892500D01*
X37460700Y-24892500D02*
X42095700Y-24892500D01*
X30077700Y-24852500D02*
X34700700Y-24852500D01*
X37460700Y-24852500D02*
X42083700Y-24852500D01*
X30090700Y-24812500D02*
X34700700Y-24812500D01*
X37460700Y-24812500D02*
X42070700Y-24812500D01*
X30103700Y-24772500D02*
X34700700Y-24772500D01*
X37460700Y-24772500D02*
X42057700Y-24772500D01*
X30117700Y-24732500D02*
X34700700Y-24732500D01*
X37460700Y-24732500D02*
X42043700Y-24732500D01*
X30130700Y-24692500D02*
X34700700Y-24692500D01*
X37460700Y-24692500D02*
X42030700Y-24692500D01*
X30144700Y-24652500D02*
X34700700Y-24652500D01*
X37460700Y-24652500D02*
X42016700Y-24652500D01*
X30159700Y-24612500D02*
X34700700Y-24612500D01*
X37460700Y-24612500D02*
X42001700Y-24612500D01*
X30173700Y-24572500D02*
X34700700Y-24572500D01*
X37460700Y-24572500D02*
X41987700Y-24572500D01*
X30188700Y-24532500D02*
X34700700Y-24532500D01*
X37460700Y-24532500D02*
X41972700Y-24532500D01*
X30204700Y-24492500D02*
X34700700Y-24492500D01*
X37460700Y-24492500D02*
X41956700Y-24492500D01*
X30219700Y-24452500D02*
X34700700Y-24452500D01*
X37460700Y-24452500D02*
X41941700Y-24452500D01*
X30235700Y-24412500D02*
X34700700Y-24412500D01*
X37460700Y-24412500D02*
X41925700Y-24412500D01*
X30251700Y-24372500D02*
X34700700Y-24372500D01*
X37460700Y-24372500D02*
X41909700Y-24372500D01*
X30268700Y-24332500D02*
X34700700Y-24332500D01*
X37460700Y-24332500D02*
X41892700Y-24332500D01*
X30285700Y-24292500D02*
X34700700Y-24292500D01*
X37460700Y-24292500D02*
X41875700Y-24292500D01*
X30302700Y-24252500D02*
X34700700Y-24252500D01*
X37460700Y-24252500D02*
X41858700Y-24252500D01*
X30319700Y-24212500D02*
X34700700Y-24212500D01*
X37460700Y-24212500D02*
X41841700Y-24212500D01*
X30337700Y-24172500D02*
X34700700Y-24172500D01*
X37460700Y-24172500D02*
X41823700Y-24172500D01*
X30355700Y-24132500D02*
X34700700Y-24132500D01*
X37460700Y-24132500D02*
X41805700Y-24132500D01*
X30374700Y-24092500D02*
X34700700Y-24092500D01*
X37460700Y-24092500D02*
X41786700Y-24092500D01*
X30393700Y-24052500D02*
X34700700Y-24052500D01*
X37460700Y-24052500D02*
X41767700Y-24052500D01*
X30412700Y-24012500D02*
X34700700Y-24012500D01*
X37460700Y-24012500D02*
X41748700Y-24012500D01*
X30431700Y-23972500D02*
X34700700Y-23972500D01*
X37460700Y-23972500D02*
X41729700Y-23972500D01*
X30451700Y-23932500D02*
X34700700Y-23932500D01*
X37460700Y-23932500D02*
X41709700Y-23932500D01*
X30471700Y-23892500D02*
X34700700Y-23892500D01*
X37460700Y-23892500D02*
X41689700Y-23892500D01*
X30492700Y-23852500D02*
X34700700Y-23852500D01*
X37460700Y-23852500D02*
X41668700Y-23852500D01*
X30513700Y-23812500D02*
X34700700Y-23812500D01*
X37460700Y-23812500D02*
X41647700Y-23812500D01*
X30534700Y-23772500D02*
X34700700Y-23772500D01*
X37460700Y-23772500D02*
X41626700Y-23772500D01*
X30556700Y-23732500D02*
X34700700Y-23732500D01*
X37460700Y-23732500D02*
X41604700Y-23732500D01*
X30578700Y-23692500D02*
X34700700Y-23692500D01*
X37460700Y-23692500D02*
X41582700Y-23692500D01*
X30600700Y-23652500D02*
X34700700Y-23652500D01*
X37460700Y-23652500D02*
X41560700Y-23652500D01*
X30623700Y-23612500D02*
X34700700Y-23612500D01*
X37460700Y-23612500D02*
X41537700Y-23612500D01*
X30646700Y-23572500D02*
X34700700Y-23572500D01*
X37460700Y-23572500D02*
X41514700Y-23572500D01*
X30670700Y-23532500D02*
X34700700Y-23532500D01*
X37460700Y-23532500D02*
X41490700Y-23532500D01*
X30694700Y-23492500D02*
X34700700Y-23492500D01*
X37460700Y-23492500D02*
X41466700Y-23492500D01*
X30718700Y-23452500D02*
X34700700Y-23452500D01*
X37460700Y-23452500D02*
X41442700Y-23452500D01*
X30743700Y-23412500D02*
X34700700Y-23412500D01*
X37460700Y-23412500D02*
X41417700Y-23412500D01*
X30768700Y-23372500D02*
X34700700Y-23372500D01*
X37460700Y-23372500D02*
X41392700Y-23372500D01*
X30794700Y-23332500D02*
X34700700Y-23332500D01*
X37460700Y-23332500D02*
X41366700Y-23332500D01*
X30820700Y-23292500D02*
X34700700Y-23292500D01*
X37460700Y-23292500D02*
X41340700Y-23292500D01*
X30846700Y-23252500D02*
X34700700Y-23252500D01*
X37460700Y-23252500D02*
X41314700Y-23252500D01*
X30873700Y-23212500D02*
X34700700Y-23212500D01*
X37460700Y-23212500D02*
X41287700Y-23212500D01*
X30901700Y-23172500D02*
X34700700Y-23172500D01*
X37460700Y-23172500D02*
X41259700Y-23172500D01*
X30929700Y-23132500D02*
X34700700Y-23132500D01*
X37460700Y-23132500D02*
X41231700Y-23132500D01*
X30957700Y-23092500D02*
X34700700Y-23092500D01*
X37460700Y-23092500D02*
X41203700Y-23092500D01*
X30986700Y-23052500D02*
X34700700Y-23052500D01*
X37460700Y-23052500D02*
X41174700Y-23052500D01*
X31015700Y-23012500D02*
X34700700Y-23012500D01*
X37460700Y-23012500D02*
X41145700Y-23012500D01*
X31045700Y-22972500D02*
X34700700Y-22972500D01*
X37460700Y-22972500D02*
X41115700Y-22972500D01*
X31075700Y-22932500D02*
X34700700Y-22932500D01*
X37460700Y-22932500D02*
X41085700Y-22932500D01*
X31105700Y-22892500D02*
X41055700Y-22892500D01*
X31137700Y-22852500D02*
X41023700Y-22852500D01*
X31168700Y-22812500D02*
X40992700Y-22812500D01*
X31201700Y-22772500D02*
X40959700Y-22772500D01*
X31233700Y-22732500D02*
X40927700Y-22732500D01*
X31267700Y-22692500D02*
X40893700Y-22692500D01*
X31301700Y-22652500D02*
X40859700Y-22652500D01*
X31335700Y-22612500D02*
X40825700Y-22612500D01*
X31370700Y-22572500D02*
X40790700Y-22572500D01*
X31406700Y-22532500D02*
X40754700Y-22532500D01*
X31442700Y-22492500D02*
X40718700Y-22492500D01*
X31479700Y-22452500D02*
X40681700Y-22452500D01*
X31517700Y-22412500D02*
X40643700Y-22412500D01*
X31555700Y-22372500D02*
X40605700Y-22372500D01*
X31594700Y-22332500D02*
X40566700Y-22332500D01*
X31633700Y-22292500D02*
X40527700Y-22292500D01*
X31674700Y-22252500D02*
X40486700Y-22252500D01*
X31715700Y-22212500D02*
X40445700Y-22212500D01*
X31757700Y-22172500D02*
X40403700Y-22172500D01*
X31799700Y-22132500D02*
X40361700Y-22132500D01*
X31842700Y-22092500D02*
X40318700Y-22092500D01*
X31887700Y-22052500D02*
X40273700Y-22052500D01*
X31932700Y-22012500D02*
X40228700Y-22012500D01*
X31978700Y-21972500D02*
X40182700Y-21972500D01*
X32024700Y-21932500D02*
X40136700Y-21932500D01*
X32072700Y-21892500D02*
X40088700Y-21892500D01*
X32121700Y-21852500D02*
X40039700Y-21852500D01*
X32171700Y-21812500D02*
X39989700Y-21812500D01*
X32221700Y-21772500D02*
X39939700Y-21772500D01*
X32273700Y-21732500D02*
X39887700Y-21732500D01*
X32326700Y-21692500D02*
X39834700Y-21692500D01*
X32380700Y-21652500D02*
X39780700Y-21652500D01*
X32436700Y-21612500D02*
X39724700Y-21612500D01*
X32492700Y-21572500D02*
X39668700Y-21572500D01*
X32550700Y-21532500D02*
X39610700Y-21532500D01*
X32610700Y-21492500D02*
X39550700Y-21492500D01*
X32671700Y-21452500D02*
X39489700Y-21452500D01*
X32733700Y-21412500D02*
X39427700Y-21412500D01*
X32798700Y-21372500D02*
X39362700Y-21372500D01*
X32863700Y-21332500D02*
X39297700Y-21332500D01*
X32931700Y-21292500D02*
X39229700Y-21292500D01*
X33001700Y-21252500D02*
X39159700Y-21252500D01*
X33073700Y-21212500D02*
X39087700Y-21212500D01*
X33147700Y-21172500D02*
X39013700Y-21172500D01*
X33224700Y-21132500D02*
X38936700Y-21132500D01*
X33303700Y-21092500D02*
X38857700Y-21092500D01*
X33385700Y-21052500D02*
X38775700Y-21052500D01*
X33470700Y-21012500D02*
X38690700Y-21012500D01*
X33559700Y-20972500D02*
X38601700Y-20972500D01*
X33652700Y-20932500D02*
X38508700Y-20932500D01*
X33749700Y-20892500D02*
X38411700Y-20892500D01*
X33850700Y-20852500D02*
X38310700Y-20852500D01*
X33958700Y-20812500D02*
X38202700Y-20812500D01*
X34071700Y-20772500D02*
X38089700Y-20772500D01*
X34192700Y-20732500D02*
X37968700Y-20732500D01*
X34323700Y-20692500D02*
X37837700Y-20692500D01*
X34464700Y-20652500D02*
X37696700Y-20652500D01*
X34620700Y-20612500D02*
X37540700Y-20612500D01*
X34795700Y-20572500D02*
X37365700Y-20572500D01*
X34998700Y-20532500D02*
X37162700Y-20532500D01*
X35249700Y-20492500D02*
X36911700Y-20492500D01*
X35616700Y-20452500D02*
X36544700Y-20452500D01*
X36080700Y-32473500D02*
X36080700Y-30673500D01*
X35180700Y-31573500D02*
X36980700Y-31573500D01*
X62656100Y-35988500D02*
X67976100Y-35988500D01*
X67976100Y-35988500D02*
X67976100Y-26368500D01*
X67976100Y-26368500D02*
X62656100Y-26368500D01*
X62656100Y-26368500D02*
X62656100Y-35988500D01*
X65316100Y-37018500D02*
X65316100Y-35988500D01*
X65316100Y-25338500D02*
X65316100Y-26368500D01*
X62656100Y-34503500D02*
X67976100Y-34503500D01*
X77253638Y-35883000D02*
G75*
G03X78798930Y-30333000I462J2990000D01*
G01*
X77254562Y-35883000D02*
G75*
G02X75709270Y-30333000I-462J2990000D01*
G01*
X79754100Y-32893000D02*
G75*
G03X79754100Y-32893000I-2500000J0D01*
G01*
X78799100Y-30333000D02*
X75709100Y-30333000D01*
X20498381Y-50012600D02*
G75*
G03X20498381Y-50012600I-1600781J0D01*
G01*
X20434881Y-29108400D02*
G75*
G03X20434881Y-29108400I-1600781J0D01*
G01*
X97803281Y-55130700D02*
G75*
G03X97803281Y-55130700I-1600781J0D01*
G01*
X92370100Y-35571700D02*
X94700100Y-35571700D01*
X92370100Y-50561700D02*
X94490100Y-50561700D01*
X92370100Y-35571700D02*
X92370100Y-50561700D01*
X106460100Y-35571700D02*
X106460100Y-50561700D01*
X97660100Y-35571700D02*
X106460100Y-35571700D01*
X97860100Y-50561700D02*
X106460100Y-50561700D01*
X91285100Y-63685000D02*
X66525100Y-63685000D01*
X91285100Y-48065000D02*
X66525100Y-48065000D01*
X91285100Y-63685000D02*
X91285100Y-48065000D01*
X66525100Y-63685000D02*
X66525100Y-48065000D01*
D12*
X61480700Y-57035700D02*
X61480700Y-55892700D01*
X58432700Y-57035700D02*
X58432700Y-55892700D01*
X54622700Y-55892700D02*
X54622700Y-52209700D01*
X54622700Y-52209700D02*
X65290700Y-52209700D01*
X65290700Y-52209700D02*
X65290700Y-55892700D01*
X54622700Y-57035700D02*
X54622700Y-55892700D01*
X54622700Y-55892700D02*
X65290700Y-55892700D01*
X65290700Y-55892700D02*
X65290700Y-57035700D01*
X59956700Y-57035700D02*
X65290700Y-57035700D01*
X59956700Y-57035700D02*
X54622700Y-57035700D01*
D11*
X58846128Y-42887222D02*
G75*
G02X58845810Y-41287800I-1454828J799422D01*
G01*
X65613872Y-43244178D02*
G75*
G02X65614190Y-44843600I1454828J-799422D01*
G01*
X58858828Y-37464322D02*
G75*
G02X58858510Y-35864900I-1454828J799422D01*
G01*
X78129722Y-25672372D02*
G75*
G02X76530300Y-25672690I-799422J-1454828D01*
G01*
X81541028Y-44169922D02*
G75*
G02X81540710Y-42570500I-1454828J799422D01*
G01*
X87243328Y-44169922D02*
G75*
G02X87243010Y-42570500I-1454828J799422D01*
G01*
X81604528Y-38988322D02*
G75*
G02X81604210Y-37388900I-1454828J799422D01*
G01*
X87116328Y-38962922D02*
G75*
G02X87116010Y-37363500I-1454828J799422D01*
G01*
X47882300Y-35988300D02*
G75*
G02X49882300Y-35988300I1000000J0D01*
G01*
X49882300Y-35988300D02*
X51132300Y-35988300D01*
X51132300Y-35988300D02*
X51132300Y-25708300D01*
X51132300Y-25708300D02*
X46632300Y-25708300D01*
X46632300Y-25708300D02*
X46632300Y-35988300D01*
X46632300Y-35988300D02*
X47882300Y-35988300D01*
X28705800Y-42433300D02*
X19905800Y-42433300D01*
X19905800Y-42433300D02*
X19905800Y-33233300D01*
X34605800Y-39733300D02*
X34605800Y-42433300D01*
X34605800Y-42433300D02*
X32705800Y-42433300D01*
X19905800Y-33233300D02*
X34605800Y-33233300D01*
X34605800Y-33233300D02*
X34605800Y-35833300D01*
X24270000Y-45338300D02*
X24270000Y-54458300D01*
X24270000Y-54458300D02*
X49390000Y-54458300D01*
X49390000Y-54458300D02*
X49390000Y-45338300D01*
X49390000Y-45338300D02*
X24270000Y-45338300D01*
X24240000Y-49898300D02*
X24270000Y-49898300D01*
X49420000Y-49898300D02*
X49390000Y-49898300D01*
X45526200Y-36970900D02*
X48213200Y-36970900D01*
X45526200Y-43390900D02*
X48213200Y-43390900D01*
X48213200Y-36970900D02*
X48213200Y-43390900D01*
X44592200Y-38685900D02*
X44592200Y-41676900D01*
X44592200Y-39120900D02*
X48213200Y-39120900D01*
X44592200Y-41240900D02*
X48213200Y-41240900D01*
X44592200Y-39120900D02*
X44592200Y-41240900D01*
X48213200Y-39120900D02*
X48213200Y-41240900D01*
D12*
X36879233Y-60320180D02*
X36545900Y-59843990D01*
X36307804Y-60320180D02*
X36307804Y-59320180D01*
X36688757Y-59320180D01*
X36783995Y-59367800D01*
X36831614Y-59415419D01*
X36879233Y-59510657D01*
X36879233Y-59653514D01*
X36831614Y-59748752D01*
X36783995Y-59796371D01*
X36688757Y-59843990D01*
X36307804Y-59843990D01*
X37831614Y-60320180D02*
X37260185Y-60320180D01*
X37545900Y-60320180D02*
X37545900Y-59320180D01*
X37450661Y-59463038D01*
X37355423Y-59558276D01*
X37260185Y-59605895D01*
X71750180Y-31853095D02*
X70750180Y-31853095D01*
X70750180Y-31615000D01*
X70797800Y-31472142D01*
X70893038Y-31376904D01*
X70988276Y-31329285D01*
X71178752Y-31281666D01*
X71321609Y-31281666D01*
X71512085Y-31329285D01*
X71607323Y-31376904D01*
X71702561Y-31472142D01*
X71750180Y-31615000D01*
X71750180Y-31853095D01*
X71750180Y-30329285D02*
X71750180Y-30900714D01*
X71750180Y-30615000D02*
X70750180Y-30615000D01*
X70893038Y-30710238D01*
X70988276Y-30805476D01*
X71035895Y-30900714D01*
X95704066Y-32065680D02*
X95704066Y-32779966D01*
X95656447Y-32922823D01*
X95561209Y-33018061D01*
X95418352Y-33065680D01*
X95323114Y-33065680D01*
X96132638Y-32160919D02*
X96180257Y-32113300D01*
X96275495Y-32065680D01*
X96513590Y-32065680D01*
X96608828Y-32113300D01*
X96656447Y-32160919D01*
X96704066Y-32256157D01*
X96704066Y-32351395D01*
X96656447Y-32494252D01*
X96085019Y-33065680D01*
X96704066Y-33065680D01*
X59628042Y-27928866D02*
X59675661Y-27976485D01*
X59723280Y-28119342D01*
X59723280Y-28214580D01*
X59675661Y-28357438D01*
X59580423Y-28452676D01*
X59485185Y-28500295D01*
X59294709Y-28547914D01*
X59151852Y-28547914D01*
X58961376Y-28500295D01*
X58866138Y-28452676D01*
X58770900Y-28357438D01*
X58723280Y-28214580D01*
X58723280Y-28119342D01*
X58770900Y-27976485D01*
X58818519Y-27928866D01*
X59723280Y-26976485D02*
X59723280Y-27547914D01*
X59723280Y-27262200D02*
X58723280Y-27262200D01*
X58866138Y-27357438D01*
X58961376Y-27452676D01*
X59008995Y-27547914D01*
X84710542Y-28589266D02*
X84758161Y-28636885D01*
X84805780Y-28779742D01*
X84805780Y-28874980D01*
X84758161Y-29017838D01*
X84662923Y-29113076D01*
X84567685Y-29160695D01*
X84377209Y-29208314D01*
X84234352Y-29208314D01*
X84043876Y-29160695D01*
X83948638Y-29113076D01*
X83853400Y-29017838D01*
X83805780Y-28874980D01*
X83805780Y-28779742D01*
X83853400Y-28636885D01*
X83901019Y-28589266D01*
X83901019Y-28208314D02*
X83853400Y-28160695D01*
X83805780Y-28065457D01*
X83805780Y-27827361D01*
X83853400Y-27732123D01*
X83901019Y-27684504D01*
X83996257Y-27636885D01*
X84091495Y-27636885D01*
X84234352Y-27684504D01*
X84805780Y-28255933D01*
X84805780Y-27636885D01*
X33504142Y-28424166D02*
X33551761Y-28471785D01*
X33599380Y-28614642D01*
X33599380Y-28709880D01*
X33551761Y-28852738D01*
X33456523Y-28947976D01*
X33361285Y-28995595D01*
X33170809Y-29043214D01*
X33027952Y-29043214D01*
X32837476Y-28995595D01*
X32742238Y-28947976D01*
X32647000Y-28852738D01*
X32599380Y-28709880D01*
X32599380Y-28614642D01*
X32647000Y-28471785D01*
X32694619Y-28424166D01*
X32599380Y-28090833D02*
X32599380Y-27471785D01*
X32980333Y-27805119D01*
X32980333Y-27662261D01*
X33027952Y-27567023D01*
X33075571Y-27519404D01*
X33170809Y-27471785D01*
X33408904Y-27471785D01*
X33504142Y-27519404D01*
X33551761Y-27567023D01*
X33599380Y-27662261D01*
X33599380Y-27947976D01*
X33551761Y-28043214D01*
X33504142Y-28090833D01*
X65768480Y-31853095D02*
X64768480Y-31853095D01*
X64768480Y-31615000D01*
X64816100Y-31472142D01*
X64911338Y-31376904D01*
X65006576Y-31329285D01*
X65197052Y-31281666D01*
X65339909Y-31281666D01*
X65530385Y-31329285D01*
X65625623Y-31376904D01*
X65720861Y-31472142D01*
X65768480Y-31615000D01*
X65768480Y-31853095D01*
X65768480Y-30329285D02*
X65768480Y-30900714D01*
X65768480Y-30615000D02*
X64768480Y-30615000D01*
X64911338Y-30710238D01*
X65006576Y-30805476D01*
X65054195Y-30900714D01*
X76030080Y-33567595D02*
X75030080Y-33567595D01*
X75030080Y-33329500D01*
X75077700Y-33186642D01*
X75172938Y-33091404D01*
X75268176Y-33043785D01*
X75458652Y-32996166D01*
X75601509Y-32996166D01*
X75791985Y-33043785D01*
X75887223Y-33091404D01*
X75982461Y-33186642D01*
X76030080Y-33329500D01*
X76030080Y-33567595D01*
X75125319Y-32615214D02*
X75077700Y-32567595D01*
X75030080Y-32472357D01*
X75030080Y-32234261D01*
X75077700Y-32139023D01*
X75125319Y-32091404D01*
X75220557Y-32043785D01*
X75315795Y-32043785D01*
X75458652Y-32091404D01*
X76030080Y-32662833D01*
X76030080Y-32043785D01*
X18564266Y-51864980D02*
X18564266Y-52579266D01*
X18516647Y-52722123D01*
X18421409Y-52817361D01*
X18278552Y-52864980D01*
X18183314Y-52864980D01*
X19564266Y-52864980D02*
X18992838Y-52864980D01*
X19278552Y-52864980D02*
X19278552Y-51864980D01*
X19183314Y-52007838D01*
X19088076Y-52103076D01*
X18992838Y-52150695D01*
X18500766Y-30960780D02*
X18500766Y-31675066D01*
X18453147Y-31817923D01*
X18357909Y-31913161D01*
X18215052Y-31960780D01*
X18119814Y-31960780D01*
X18929338Y-31056019D02*
X18976957Y-31008400D01*
X19072195Y-30960780D01*
X19310290Y-30960780D01*
X19405528Y-31008400D01*
X19453147Y-31056019D01*
X19500766Y-31151257D01*
X19500766Y-31246495D01*
X19453147Y-31389352D01*
X18881719Y-31960780D01*
X19500766Y-31960780D01*
X95869166Y-56983080D02*
X95869166Y-57697366D01*
X95821547Y-57840223D01*
X95726309Y-57935461D01*
X95583452Y-57983080D01*
X95488214Y-57983080D01*
X96250119Y-56983080D02*
X96869166Y-56983080D01*
X96535833Y-57364033D01*
X96678690Y-57364033D01*
X96773928Y-57411652D01*
X96821547Y-57459271D01*
X96869166Y-57554509D01*
X96869166Y-57792604D01*
X96821547Y-57887842D01*
X96773928Y-57935461D01*
X96678690Y-57983080D01*
X96392976Y-57983080D01*
X96297738Y-57935461D01*
X96250119Y-57887842D01*
X94930980Y-43399033D02*
X95645266Y-43399033D01*
X95788123Y-43446652D01*
X95883361Y-43541890D01*
X95930980Y-43684747D01*
X95930980Y-43779985D01*
X95264314Y-42494271D02*
X95930980Y-42494271D01*
X94883361Y-42732366D02*
X95597647Y-42970461D01*
X95597647Y-42351414D01*
X78573333Y-56510180D02*
X78097142Y-56510180D01*
X78097142Y-55510180D01*
X79430476Y-56510180D02*
X78859047Y-56510180D01*
X79144761Y-56510180D02*
X79144761Y-55510180D01*
X79049523Y-55653038D01*
X78954285Y-55748276D01*
X78859047Y-55795895D01*
X63823861Y-58586619D02*
X63728623Y-58539000D01*
X63633385Y-58443761D01*
X63490528Y-58300904D01*
X63395290Y-58253285D01*
X63300052Y-58253285D01*
X63347671Y-58491380D02*
X63252433Y-58443761D01*
X63157195Y-58348523D01*
X63109576Y-58158047D01*
X63109576Y-57824714D01*
X63157195Y-57634238D01*
X63252433Y-57539000D01*
X63347671Y-57491380D01*
X63538147Y-57491380D01*
X63633385Y-57539000D01*
X63728623Y-57634238D01*
X63776242Y-57824714D01*
X63776242Y-58158047D01*
X63728623Y-58348523D01*
X63633385Y-58443761D01*
X63538147Y-58491380D01*
X63347671Y-58491380D01*
X64728623Y-58491380D02*
X64157195Y-58491380D01*
X64442909Y-58491380D02*
X64442909Y-57491380D01*
X64347671Y-57634238D01*
X64252433Y-57729476D01*
X64157195Y-57777095D01*
X54227433Y-42654480D02*
X53894100Y-42178290D01*
X53656004Y-42654480D02*
X53656004Y-41654480D01*
X54036957Y-41654480D01*
X54132195Y-41702100D01*
X54179814Y-41749719D01*
X54227433Y-41844957D01*
X54227433Y-41987814D01*
X54179814Y-42083052D01*
X54132195Y-42130671D01*
X54036957Y-42178290D01*
X53656004Y-42178290D01*
X54608385Y-41749719D02*
X54656004Y-41702100D01*
X54751242Y-41654480D01*
X54989338Y-41654480D01*
X55084576Y-41702100D01*
X55132195Y-41749719D01*
X55179814Y-41844957D01*
X55179814Y-41940195D01*
X55132195Y-42083052D01*
X54560766Y-42654480D01*
X55179814Y-42654480D01*
X62266533Y-44584880D02*
X61933200Y-44108690D01*
X61695104Y-44584880D02*
X61695104Y-43584880D01*
X62076057Y-43584880D01*
X62171295Y-43632500D01*
X62218914Y-43680119D01*
X62266533Y-43775357D01*
X62266533Y-43918214D01*
X62218914Y-44013452D01*
X62171295Y-44061071D01*
X62076057Y-44108690D01*
X61695104Y-44108690D01*
X62599866Y-43584880D02*
X63218914Y-43584880D01*
X62885580Y-43965833D01*
X63028438Y-43965833D01*
X63123676Y-44013452D01*
X63171295Y-44061071D01*
X63218914Y-44156309D01*
X63218914Y-44394404D01*
X63171295Y-44489642D01*
X63123676Y-44537261D01*
X63028438Y-44584880D01*
X62742723Y-44584880D01*
X62647485Y-44537261D01*
X62599866Y-44489642D01*
X54214733Y-38095180D02*
X53881400Y-37618990D01*
X53643304Y-38095180D02*
X53643304Y-37095180D01*
X54024257Y-37095180D01*
X54119495Y-37142800D01*
X54167114Y-37190419D01*
X54214733Y-37285657D01*
X54214733Y-37428514D01*
X54167114Y-37523752D01*
X54119495Y-37571371D01*
X54024257Y-37618990D01*
X53643304Y-37618990D01*
X55071876Y-37428514D02*
X55071876Y-38095180D01*
X54833780Y-37047561D02*
X54595685Y-37761847D01*
X55214733Y-37761847D01*
X75242680Y-26430266D02*
X74766490Y-26763600D01*
X75242680Y-27001695D02*
X74242680Y-27001695D01*
X74242680Y-26620742D01*
X74290300Y-26525504D01*
X74337919Y-26477885D01*
X74433157Y-26430266D01*
X74576014Y-26430266D01*
X74671252Y-26477885D01*
X74718871Y-26525504D01*
X74766490Y-26620742D01*
X74766490Y-27001695D01*
X74242680Y-25525504D02*
X74242680Y-26001695D01*
X74718871Y-26049314D01*
X74671252Y-26001695D01*
X74623633Y-25906457D01*
X74623633Y-25668361D01*
X74671252Y-25573123D01*
X74718871Y-25525504D01*
X74814109Y-25477885D01*
X75052204Y-25477885D01*
X75147442Y-25525504D01*
X75195061Y-25573123D01*
X75242680Y-25668361D01*
X75242680Y-25906457D01*
X75195061Y-26001695D01*
X75147442Y-26049314D01*
X76731833Y-43746680D02*
X76398500Y-43270490D01*
X76160404Y-43746680D02*
X76160404Y-42746680D01*
X76541357Y-42746680D01*
X76636595Y-42794300D01*
X76684214Y-42841919D01*
X76731833Y-42937157D01*
X76731833Y-43080014D01*
X76684214Y-43175252D01*
X76636595Y-43222871D01*
X76541357Y-43270490D01*
X76160404Y-43270490D01*
X77065166Y-42746680D02*
X77731833Y-42746680D01*
X77303261Y-43746680D01*
X90409733Y-43848280D02*
X90076400Y-43372090D01*
X89838304Y-43848280D02*
X89838304Y-42848280D01*
X90219257Y-42848280D01*
X90314495Y-42895900D01*
X90362114Y-42943519D01*
X90409733Y-43038757D01*
X90409733Y-43181614D01*
X90362114Y-43276852D01*
X90314495Y-43324471D01*
X90219257Y-43372090D01*
X89838304Y-43372090D01*
X90981161Y-43276852D02*
X90885923Y-43229233D01*
X90838304Y-43181614D01*
X90790685Y-43086376D01*
X90790685Y-43038757D01*
X90838304Y-42943519D01*
X90885923Y-42895900D01*
X90981161Y-42848280D01*
X91171638Y-42848280D01*
X91266876Y-42895900D01*
X91314495Y-42943519D01*
X91362114Y-43038757D01*
X91362114Y-43086376D01*
X91314495Y-43181614D01*
X91266876Y-43229233D01*
X91171638Y-43276852D01*
X90981161Y-43276852D01*
X90885923Y-43324471D01*
X90838304Y-43372090D01*
X90790685Y-43467328D01*
X90790685Y-43657804D01*
X90838304Y-43753042D01*
X90885923Y-43800661D01*
X90981161Y-43848280D01*
X91171638Y-43848280D01*
X91266876Y-43800661D01*
X91314495Y-43753042D01*
X91362114Y-43657804D01*
X91362114Y-43467328D01*
X91314495Y-43372090D01*
X91266876Y-43324471D01*
X91171638Y-43276852D01*
X76820733Y-38577780D02*
X76487400Y-38101590D01*
X76249304Y-38577780D02*
X76249304Y-37577780D01*
X76630257Y-37577780D01*
X76725495Y-37625400D01*
X76773114Y-37673019D01*
X76820733Y-37768257D01*
X76820733Y-37911114D01*
X76773114Y-38006352D01*
X76725495Y-38053971D01*
X76630257Y-38101590D01*
X76249304Y-38101590D01*
X77296923Y-38577780D02*
X77487400Y-38577780D01*
X77582638Y-38530161D01*
X77630257Y-38482542D01*
X77725495Y-38339685D01*
X77773114Y-38149209D01*
X77773114Y-37768257D01*
X77725495Y-37673019D01*
X77677876Y-37625400D01*
X77582638Y-37577780D01*
X77392161Y-37577780D01*
X77296923Y-37625400D01*
X77249304Y-37673019D01*
X77201685Y-37768257D01*
X77201685Y-38006352D01*
X77249304Y-38101590D01*
X77296923Y-38149209D01*
X77392161Y-38196828D01*
X77582638Y-38196828D01*
X77677876Y-38149209D01*
X77725495Y-38101590D01*
X77773114Y-38006352D01*
X90035142Y-38565080D02*
X89701809Y-38088890D01*
X89463714Y-38565080D02*
X89463714Y-37565080D01*
X89844666Y-37565080D01*
X89939904Y-37612700D01*
X89987523Y-37660319D01*
X90035142Y-37755557D01*
X90035142Y-37898414D01*
X89987523Y-37993652D01*
X89939904Y-38041271D01*
X89844666Y-38088890D01*
X89463714Y-38088890D01*
X90987523Y-38565080D02*
X90416095Y-38565080D01*
X90701809Y-38565080D02*
X90701809Y-37565080D01*
X90606571Y-37707938D01*
X90511333Y-37803176D01*
X90416095Y-37850795D01*
X91606571Y-37565080D02*
X91701809Y-37565080D01*
X91797047Y-37612700D01*
X91844666Y-37660319D01*
X91892285Y-37755557D01*
X91939904Y-37946033D01*
X91939904Y-38184128D01*
X91892285Y-38374604D01*
X91844666Y-38469842D01*
X91797047Y-38517461D01*
X91701809Y-38565080D01*
X91606571Y-38565080D01*
X91511333Y-38517461D01*
X91463714Y-38469842D01*
X91416095Y-38374604D01*
X91368476Y-38184128D01*
X91368476Y-37946033D01*
X91416095Y-37755557D01*
X91463714Y-37660319D01*
X91511333Y-37612700D01*
X91606571Y-37565080D01*
X48056895Y-26795480D02*
X48056895Y-27605004D01*
X48104514Y-27700242D01*
X48152133Y-27747861D01*
X48247371Y-27795480D01*
X48437847Y-27795480D01*
X48533085Y-27747861D01*
X48580704Y-27700242D01*
X48628323Y-27605004D01*
X48628323Y-26795480D01*
X49628323Y-27795480D02*
X49056895Y-27795480D01*
X49342609Y-27795480D02*
X49342609Y-26795480D01*
X49247371Y-26938338D01*
X49152133Y-27033576D01*
X49056895Y-27081195D01*
X22031366Y-37323780D02*
X22031366Y-38038066D01*
X21983747Y-38180923D01*
X21888509Y-38276161D01*
X21745652Y-38323780D01*
X21650414Y-38323780D01*
X22983747Y-37323780D02*
X22507557Y-37323780D01*
X22459938Y-37799971D01*
X22507557Y-37752352D01*
X22602795Y-37704733D01*
X22840890Y-37704733D01*
X22936128Y-37752352D01*
X22983747Y-37799971D01*
X23031366Y-37895209D01*
X23031366Y-38133304D01*
X22983747Y-38228542D01*
X22936128Y-38276161D01*
X22840890Y-38323780D01*
X22602795Y-38323780D01*
X22507557Y-38276161D01*
X22459938Y-38228542D01*
X37145933Y-50426880D02*
X36812600Y-49950690D01*
X36574504Y-50426880D02*
X36574504Y-49426880D01*
X36955457Y-49426880D01*
X37050695Y-49474500D01*
X37098314Y-49522119D01*
X37145933Y-49617357D01*
X37145933Y-49760214D01*
X37098314Y-49855452D01*
X37050695Y-49903071D01*
X36955457Y-49950690D01*
X36574504Y-49950690D01*
X38003076Y-49426880D02*
X37812600Y-49426880D01*
X37717361Y-49474500D01*
X37669742Y-49522119D01*
X37574504Y-49664976D01*
X37526885Y-49855452D01*
X37526885Y-50236404D01*
X37574504Y-50331642D01*
X37622123Y-50379261D01*
X37717361Y-50426880D01*
X37907838Y-50426880D01*
X38003076Y-50379261D01*
X38050695Y-50331642D01*
X38098314Y-50236404D01*
X38098314Y-49998309D01*
X38050695Y-49903071D01*
X38003076Y-49855452D01*
X37907838Y-49807833D01*
X37717361Y-49807833D01*
X37622123Y-49855452D01*
X37574504Y-49903071D01*
X37526885Y-49998309D01*
X44057961Y-36073280D02*
X43724628Y-35597090D01*
X43486533Y-36073280D02*
X43486533Y-35073280D01*
X43867485Y-35073280D01*
X43962723Y-35120900D01*
X44010342Y-35168519D01*
X44057961Y-35263757D01*
X44057961Y-35406614D01*
X44010342Y-35501852D01*
X43962723Y-35549471D01*
X43867485Y-35597090D01*
X43486533Y-35597090D01*
X44343676Y-35073280D02*
X44677009Y-36073280D01*
X45010342Y-35073280D01*
X45867485Y-36073280D02*
X45296057Y-36073280D01*
X45581771Y-36073280D02*
X45581771Y-35073280D01*
X45486533Y-35216138D01*
X45391295Y-35311376D01*
X45296057Y-35358995D01*
M02*
