M48
;DRILL file {KiCad (5.0.0)} date 07/29/18 14:19:55
;FORMAT={-:-/ absolute / inch / decimal}
FMAT,2
INCH,TZ
T1C0.0315
T2C0.0354
T3C0.0394
T4C0.0394
T5C0.0472
T6C0.0512
T7C0.0630
T8C0.0709
T9C0.0906
T10C0.1063
%
G90
G05
M72
T1
X3.1555Y-1.5035
X3.2555Y-1.5035
X3.3775Y-1.7075
X3.4775Y-1.7075
X1.7745Y-1.0645
X1.7745Y-1.1645
X1.7745Y-1.2645
X1.7745Y-1.3645
X2.0745Y-1.0645
X2.0745Y-1.1645
X2.0745Y-1.2645
X2.0745Y-1.3645
X2.2595Y-1.657
X2.3595Y-1.657
X3.0445Y-0.968
X3.0445Y-1.068
X3.3725Y-1.5025
X3.4725Y-1.5025
X2.26Y-1.4435
X2.36Y-1.4435
X2.5405Y-1.734
X2.6405Y-1.734
X3.153Y-1.7075
X3.253Y-1.7075
T2
X1.758Y-1.4835
X1.758Y-1.6804
X1.8564Y-1.5819
X3.0415Y-1.245
X3.0415Y-1.345
T3
X3.6815Y-1.5556
X3.6815Y-1.6556
X3.6815Y-1.7355
X3.6815Y-1.8355
X2.2835Y-0.9956
X2.2835Y-1.1925
T4
X2.2605Y-2.1255
X2.3605Y-2.1255
X2.4605Y-2.1255
T5
X1.4205Y-0.9556
X1.4205Y-1.1525
X3.4315Y-0.9521
X3.4315Y-1.149
X0.9Y-2.3585
X2.Y-2.3585
X0.9Y-1.9645
X2.Y-1.9645
T6
X0.744Y-1.969
X3.781Y-1.1895
X3.7875Y-2.1705
X0.7415Y-1.146
T7
X2.807Y-0.9275
X2.807Y-1.5275
X2.5715Y-0.9275
X2.5715Y-1.5275
T8
X3.1065Y-1.9746
X3.1065Y-2.425
T9
X3.7866Y-1.4355
X3.7866Y-1.9757
T10
X0.7045Y-0.88
X3.856Y-2.555
X3.8585Y-0.8855
X0.7095Y-2.555
T3
X1.0908Y-1.4501G85X1.0908Y-1.5289
G05
X1.1695Y-1.6745G85X1.2483Y-1.6745
G05
X1.327Y-1.4501G85X1.327Y-1.5289
G05
T0
M30
