%TF.GenerationSoftware,KiCad,Pcbnew,(5.0.0)*%
%TF.CreationDate,2018-07-29T14:19:51+09:00*%
%TF.ProjectId,mc33063buck1,6D6333333036336275636B312E6B6963,rev?*%
%TF.SameCoordinates,Original*%
%TF.FileFunction,Copper,L2,Bot,Signal*%
%TF.FilePolarity,Positive*%
%FSLAX46Y46*%
G04 Gerber Fmt 4.6, Leading zero omitted, Abs format (unit mm)*
G04 Created by KiCad (PCBNEW (5.0.0)) date 07/29/18 14:19:51*
%MOMM*%
%LPD*%
G01*
G04 APERTURE LIST*
%ADD10C,0.100000*%
%ADD11C,2.400000*%
%ADD12O,2.400000X2.400000*%
%ADD13R,3.200000X3.200000*%
%ADD14O,3.200000X3.200000*%
%ADD15C,4.500000*%
%ADD16C,2.600000*%
%ADD17C,2.000000*%
%ADD18R,2.400000X2.400000*%
%ADD19R,1.800000X1.800000*%
%ADD20C,1.800000*%
%ADD21C,1.500000*%
%ADD22C,3.000000*%
%ADD23C,3.600000*%
%ADD24O,1.501140X2.499360*%
%ADD25C,1.600000*%
%ADD26O,1.600000X1.600000*%
%ADD27R,2.400000X1.600000*%
%ADD28O,2.400000X1.600000*%
%ADD29R,3.500000X3.500000*%
%ADD30C,1.620000*%
%ADD31C,1.500000*%
%ADD32C,3.000000*%
%ADD33C,2.000000*%
%ADD34C,0.254000*%
G04 APERTURE END LIST*
D10*
X101968300Y-18897600D02*
X14770100Y-18897600D01*
X101968300Y-67919600D02*
X101968300Y-18897600D01*
X14744700Y-67919600D02*
X101968300Y-67919600D01*
X14744700Y-18973800D02*
X14744700Y-67919600D01*
D11*
X22860000Y-59905900D03*
D12*
X50800000Y-59905900D03*
D13*
X71297800Y-38798500D03*
D14*
X71297800Y-23558500D03*
D15*
X17894300Y-22352000D03*
X97942400Y-64897000D03*
X98005900Y-22491700D03*
D16*
X96037400Y-30213300D03*
D17*
X58000900Y-30289500D03*
X58000900Y-25289500D03*
D18*
X87160100Y-29184600D03*
D11*
X87160100Y-24184600D03*
D18*
X36080700Y-29273500D03*
D11*
X36080700Y-24273500D03*
D13*
X65316100Y-38798500D03*
D14*
X65316100Y-23558500D03*
D19*
X77254100Y-31623000D03*
D20*
X77254100Y-34163000D03*
D16*
X18897600Y-50012600D03*
X18834100Y-29108400D03*
X96202500Y-55130700D03*
D21*
X93510100Y-39511700D03*
X93510100Y-42051700D03*
X93510100Y-44081700D03*
X93510100Y-46621700D03*
D22*
X96180100Y-36461700D03*
X96180100Y-50181700D03*
D23*
X78905100Y-61595000D03*
X78905100Y-50155000D03*
D24*
X59956700Y-53987700D03*
X62496700Y-53987700D03*
X57416700Y-53987700D03*
D25*
X57391300Y-42087800D03*
D26*
X59931300Y-42087800D03*
D25*
X67068700Y-44043600D03*
D26*
X64528700Y-44043600D03*
D25*
X57404000Y-36664900D03*
D26*
X59944000Y-36664900D03*
D25*
X77330300Y-27127200D03*
D26*
X77330300Y-24587200D03*
D25*
X80086200Y-43370500D03*
D26*
X82626200Y-43370500D03*
D25*
X85788500Y-43370500D03*
D26*
X88328500Y-43370500D03*
D25*
X80149700Y-38188900D03*
D26*
X82689700Y-38188900D03*
D25*
X85661500Y-38163500D03*
D26*
X88201500Y-38163500D03*
D27*
X52692300Y-34658300D03*
D28*
X45072300Y-27038300D03*
X52692300Y-32118300D03*
X45072300Y-29578300D03*
X52692300Y-29578300D03*
X45072300Y-32118300D03*
X52692300Y-27038300D03*
X45072300Y-34658300D03*
D29*
X33705800Y-37833300D03*
X27705800Y-37833300D03*
X30705800Y-42533300D03*
D15*
X18021300Y-64897000D03*
D11*
X22860000Y-49898300D03*
D12*
X50800000Y-49898300D03*
D30*
X44653200Y-42680900D03*
X47153200Y-40180900D03*
X44653200Y-37680900D03*
D31*
X52692300Y-29578300D02*
X57289700Y-29578300D01*
X57289700Y-29578300D02*
X58000900Y-30289500D01*
D32*
X18834100Y-29108400D02*
X18834100Y-27851100D01*
X18834100Y-27851100D02*
X24380200Y-24273500D01*
X24380200Y-24273500D02*
X31149300Y-24273500D01*
X27705800Y-37833300D02*
X27705800Y-27717000D01*
X27705800Y-27717000D02*
X31149300Y-24273500D01*
X30705800Y-42533300D02*
X26061400Y-42533300D01*
X26061400Y-42533300D02*
X24904700Y-41376600D01*
X24904700Y-41376600D02*
X24904700Y-40634400D01*
X24904700Y-40634400D02*
X27705800Y-37833300D01*
X65316100Y-23558500D02*
X67322700Y-23558500D01*
X68605400Y-22275800D02*
X72580500Y-22275800D01*
X67322700Y-23558500D02*
X68605400Y-22275800D01*
X71297800Y-23558500D02*
X70789800Y-23558500D01*
X70789800Y-23558500D02*
X70167500Y-23558500D01*
X70167500Y-23558500D02*
X68745100Y-22136100D01*
X68745100Y-22136100D02*
X66738500Y-22136100D01*
X66738500Y-22136100D02*
X65316100Y-23558500D01*
D31*
X77330300Y-24587200D02*
X77330300Y-23863300D01*
X77330300Y-23863300D02*
X75742800Y-22275800D01*
D32*
X65316100Y-23558500D02*
X71297800Y-23558500D01*
X71297800Y-23558500D02*
X72580500Y-22275800D01*
X85251300Y-22275800D02*
X87160100Y-24184600D01*
X72580500Y-22275800D02*
X75742800Y-22275800D01*
X75742800Y-22275800D02*
X85251300Y-22275800D01*
X87160100Y-24184600D02*
X90199200Y-24184600D01*
X92608400Y-28130500D02*
X96037400Y-30213300D01*
X92608400Y-26593800D02*
X92608400Y-28130500D01*
X90199200Y-24184600D02*
X92608400Y-26593800D01*
X36080700Y-24273500D02*
X31149300Y-24273500D01*
X96037400Y-30213300D02*
X93814900Y-31597600D01*
X91655900Y-33756600D02*
X91655900Y-37657500D01*
X93814900Y-31597600D02*
X91655900Y-33756600D01*
X90982800Y-36984400D02*
X91655900Y-37657500D01*
X91655900Y-37657500D02*
X92161900Y-38163500D01*
D31*
X90982800Y-36984400D02*
X92161900Y-38163500D01*
X92161900Y-38163500D02*
X93510100Y-39511700D01*
D32*
X96037400Y-30213300D02*
X95008700Y-30213300D01*
D31*
X93510100Y-39511700D02*
X93510100Y-38722300D01*
X93510100Y-38722300D02*
X92951300Y-38163500D01*
X92951300Y-38163500D02*
X88201500Y-38163500D01*
X59944000Y-36664900D02*
X59944000Y-42075100D01*
X59944000Y-42075100D02*
X59931300Y-42087800D01*
X58000900Y-25289500D02*
X59820800Y-25289500D01*
X61252100Y-35356800D02*
X59944000Y-36664900D01*
X61252100Y-26720800D02*
X61252100Y-35356800D01*
X59820800Y-25289500D02*
X61252100Y-26720800D01*
X52692300Y-27038300D02*
X52692300Y-24599900D01*
X52692300Y-24599900D02*
X55029100Y-22263100D01*
X58000900Y-25289500D02*
X58000900Y-22263100D01*
X58686700Y-21805900D02*
X58686700Y-22263100D01*
X58458100Y-21805900D02*
X58686700Y-21805900D01*
X58000900Y-22263100D02*
X58458100Y-21805900D01*
D32*
X65316100Y-23558500D02*
X65392300Y-23558500D01*
X36080700Y-24273500D02*
X38337500Y-24273500D01*
X64681100Y-22263100D02*
X65316100Y-23558500D01*
X40347900Y-22263100D02*
X55029100Y-22263100D01*
X55029100Y-22263100D02*
X58686700Y-22263100D01*
X58686700Y-22263100D02*
X64681100Y-22263100D01*
X38337500Y-24273500D02*
X40347900Y-22263100D01*
D31*
X77254100Y-34163000D02*
X77254100Y-36576000D01*
X78511400Y-37833300D02*
X78511400Y-38188900D01*
X77254100Y-36576000D02*
X78511400Y-37833300D01*
X80149700Y-38188900D02*
X78511400Y-38188900D01*
X78511400Y-38188900D02*
X78155800Y-38188900D01*
X78155800Y-38188900D02*
X77939900Y-38404800D01*
X80086200Y-43370500D02*
X78295500Y-43370500D01*
X78295500Y-43370500D02*
X77939900Y-43726100D01*
D32*
X78905100Y-50155000D02*
X78905100Y-45631100D01*
X77939900Y-38404800D02*
X87160100Y-29184600D01*
X77939900Y-44665900D02*
X77939900Y-43726100D01*
X77939900Y-43726100D02*
X77939900Y-38404800D01*
X78905100Y-45631100D02*
X77939900Y-44665900D01*
X87160100Y-29184600D02*
X86741000Y-29184600D01*
X96202500Y-55130700D02*
X83918900Y-55168800D01*
X83918900Y-55168800D02*
X78905100Y-50155000D01*
D33*
X93510100Y-46621700D02*
X93510100Y-46850300D01*
X93510100Y-46850300D02*
X92913200Y-47447200D01*
D32*
X78905100Y-50155000D02*
X90205400Y-50155000D01*
X92913200Y-47447200D02*
X92913200Y-47409100D01*
X90205400Y-50155000D02*
X92913200Y-47447200D01*
X36080700Y-35458400D02*
X36080700Y-47371000D01*
X33578800Y-49872900D02*
X22860000Y-49898300D01*
X36080700Y-47371000D02*
X33578800Y-49872900D01*
X18897600Y-50012600D02*
X22720300Y-50038000D01*
X22720300Y-50038000D02*
X22860000Y-50177700D01*
X22860000Y-50177700D02*
X22860000Y-59905900D01*
X33705800Y-37833300D02*
X34213800Y-37833300D01*
X36080700Y-29273500D02*
X36080700Y-35458400D01*
X36080700Y-35458400D02*
X33705800Y-37833300D01*
X22885400Y-49923700D02*
X22860000Y-49898300D01*
D31*
X45072300Y-29578300D02*
X36385500Y-29578300D01*
X36385500Y-29578300D02*
X36080700Y-29273500D01*
D32*
X71297800Y-38798500D02*
X71297800Y-38836600D01*
D31*
X57416700Y-53987700D02*
X57416700Y-54305200D01*
D32*
X65316100Y-38798500D02*
X71297800Y-38798500D01*
X56273700Y-63474600D02*
X56273700Y-54254400D01*
X56261000Y-64757300D02*
X56273700Y-63474600D01*
X78905100Y-61595000D02*
X78905100Y-62471300D01*
X77105101Y-63394999D02*
X77105101Y-63788699D01*
X78905100Y-61595000D02*
X77105101Y-63394999D01*
X76136500Y-64757300D02*
X56261000Y-64757300D01*
X77105101Y-63788699D02*
X76136500Y-64757300D01*
X76359516Y-61595000D02*
X76270616Y-61506100D01*
X78905100Y-61595000D02*
X76359516Y-61595000D01*
X76270616Y-61506100D02*
X72567800Y-61506100D01*
X71297800Y-60236100D02*
X71297800Y-38798500D01*
X72567800Y-61506100D02*
X71297800Y-60236100D01*
D31*
X77254100Y-31623000D02*
X77254100Y-27203400D01*
X77254100Y-27203400D02*
X77330300Y-27127200D01*
X93510100Y-42051700D02*
X90908600Y-42051700D01*
X85178900Y-40678100D02*
X82689700Y-38188900D01*
X89535000Y-40678100D02*
X85178900Y-40678100D01*
X90908600Y-42051700D02*
X89535000Y-40678100D01*
X82689700Y-38188900D02*
X85636100Y-38188900D01*
X85636100Y-38188900D02*
X85661500Y-38163500D01*
X85788500Y-43370500D02*
X82626200Y-43370500D01*
X82626200Y-43370500D02*
X85064600Y-45808900D01*
X85064600Y-45808900D02*
X89865200Y-45808900D01*
X89865200Y-45808900D02*
X91592400Y-44081700D01*
X91592400Y-44081700D02*
X93510100Y-44081700D01*
D32*
X96180100Y-36461700D02*
X96748600Y-36461700D01*
X96748600Y-36461700D02*
X98247200Y-37960300D01*
X98247200Y-37960300D02*
X98247200Y-48114600D01*
X98247200Y-48114600D02*
X96180100Y-50181700D01*
X50800000Y-59905900D02*
X50850800Y-49949100D01*
X50850800Y-49949100D02*
X50800000Y-49898300D01*
D31*
X52692300Y-34658300D02*
X52692300Y-48006000D01*
X52692300Y-48006000D02*
X50800000Y-49898300D01*
X52273200Y-35077400D02*
X52692300Y-34658300D01*
X52692300Y-34658300D02*
X52832000Y-34798000D01*
X59956700Y-53987700D02*
X59956700Y-51574700D01*
D32*
X58826400Y-49872900D02*
X59982100Y-51028600D01*
X59982100Y-51028600D02*
X59982100Y-51549300D01*
X58826400Y-49872900D02*
X50800000Y-49898300D01*
D31*
X59956700Y-51574700D02*
X59982100Y-51549300D01*
X45072300Y-32118300D02*
X45072300Y-34658300D01*
X45072300Y-34658300D02*
X52692300Y-34658300D01*
X57404000Y-36664900D02*
X57404000Y-36741100D01*
X57404000Y-36741100D02*
X55079900Y-39065200D01*
X63995300Y-52489100D02*
X62496700Y-53987700D01*
X63995300Y-49352200D02*
X63995300Y-52489100D01*
X60413900Y-45770800D02*
X63995300Y-49352200D01*
X56108600Y-45770800D02*
X60413900Y-45770800D01*
X55079900Y-44742100D02*
X56108600Y-45770800D01*
X55079900Y-39065200D02*
X55079900Y-44742100D01*
X57404000Y-36664900D02*
X57175400Y-36664900D01*
X57404000Y-36664900D02*
X57404000Y-37007800D01*
X52692300Y-32118300D02*
X55410100Y-32118300D01*
X57404000Y-34112200D02*
X57404000Y-36664900D01*
X55410100Y-32118300D02*
X57404000Y-34112200D01*
D34*
G36*
X101206300Y-67195700D02*
X99723705Y-67195700D01*
X100388184Y-66531221D01*
X100391302Y-66523694D01*
X100394569Y-66521625D01*
X100610009Y-65995689D01*
X100827400Y-65470862D01*
X100827400Y-65464991D01*
X100829627Y-65459554D01*
X100827400Y-64891183D01*
X100827400Y-64323138D01*
X100825153Y-64317713D01*
X100825130Y-64311838D01*
X100394569Y-63272375D01*
X100391302Y-63270306D01*
X100388184Y-63262779D01*
X99576621Y-62451216D01*
X99569094Y-62448098D01*
X99567025Y-62444831D01*
X99041089Y-62229391D01*
X98516262Y-62012000D01*
X98510391Y-62012000D01*
X98504954Y-62009773D01*
X97936583Y-62012000D01*
X97368538Y-62012000D01*
X97363113Y-62014247D01*
X97357238Y-62014270D01*
X96317775Y-62444831D01*
X96315706Y-62448098D01*
X96308179Y-62451216D01*
X95496616Y-63262779D01*
X95493498Y-63270306D01*
X95490231Y-63272375D01*
X95274791Y-63798311D01*
X95057400Y-64323138D01*
X95057400Y-64329009D01*
X95055173Y-64334446D01*
X95057400Y-64902817D01*
X95057400Y-65470862D01*
X95059647Y-65476287D01*
X95059670Y-65482162D01*
X95490231Y-66521625D01*
X95493498Y-66523694D01*
X95496616Y-66531221D01*
X96161095Y-67195700D01*
X19802605Y-67195700D01*
X20467084Y-66531221D01*
X20470202Y-66523694D01*
X20473469Y-66521625D01*
X20688909Y-65995689D01*
X20906300Y-65470862D01*
X20906300Y-65464991D01*
X20908527Y-65459554D01*
X20906300Y-64891183D01*
X20906300Y-64323138D01*
X20904053Y-64317713D01*
X20904030Y-64311838D01*
X20473469Y-63272375D01*
X20470202Y-63270306D01*
X20467084Y-63262779D01*
X19655521Y-62451216D01*
X19647994Y-62448098D01*
X19645925Y-62444831D01*
X19119989Y-62229391D01*
X18595162Y-62012000D01*
X18589291Y-62012000D01*
X18583854Y-62009773D01*
X18015483Y-62012000D01*
X17447438Y-62012000D01*
X17442013Y-62014247D01*
X17436138Y-62014270D01*
X16396675Y-62444831D01*
X16394606Y-62448098D01*
X16387079Y-62451216D01*
X15575516Y-63262779D01*
X15572398Y-63270306D01*
X15569131Y-63272375D01*
X15481300Y-63486789D01*
X15481300Y-28241243D01*
X16692521Y-28241243D01*
X16699100Y-28257881D01*
X16699100Y-29318678D01*
X16822974Y-29941435D01*
X17294851Y-30647649D01*
X18001064Y-31119526D01*
X18834100Y-31285227D01*
X19667135Y-31119526D01*
X20373349Y-30647649D01*
X20845226Y-29941436D01*
X20969100Y-29318679D01*
X20969100Y-29014543D01*
X25009065Y-26408500D01*
X26012370Y-26408500D01*
X25694674Y-26883965D01*
X25528974Y-27717000D01*
X25570801Y-27927280D01*
X25570800Y-35576841D01*
X25497991Y-35625491D01*
X25357643Y-35835535D01*
X25308360Y-36083300D01*
X25308360Y-37211395D01*
X23543717Y-38976038D01*
X23365452Y-39095151D01*
X22893574Y-39801364D01*
X22769700Y-40424121D01*
X22769700Y-40424125D01*
X22727874Y-40634400D01*
X22769700Y-40844675D01*
X22769700Y-41166325D01*
X22727874Y-41376600D01*
X22769700Y-41586875D01*
X22769700Y-41586878D01*
X22893574Y-42209635D01*
X23365451Y-42915849D01*
X23543719Y-43034964D01*
X24403036Y-43894281D01*
X24522151Y-44072549D01*
X25228364Y-44544426D01*
X25851121Y-44668300D01*
X25851125Y-44668300D01*
X26061400Y-44710126D01*
X26271675Y-44668300D01*
X28449341Y-44668300D01*
X28497991Y-44741109D01*
X28708035Y-44881457D01*
X28955800Y-44930740D01*
X32455800Y-44930740D01*
X32703565Y-44881457D01*
X32913609Y-44741109D01*
X33053957Y-44531065D01*
X33103240Y-44283300D01*
X33103240Y-40783300D01*
X33053957Y-40535535D01*
X32913609Y-40325491D01*
X32771805Y-40230740D01*
X33945700Y-40230740D01*
X33945701Y-46486653D01*
X32692360Y-47739995D01*
X23067773Y-47762802D01*
X22860000Y-47721474D01*
X22647217Y-47763799D01*
X22644663Y-47763805D01*
X22441030Y-47804812D01*
X22026965Y-47887174D01*
X22024779Y-47888635D01*
X22022201Y-47889154D01*
X22008694Y-47898225D01*
X18701512Y-47876250D01*
X18077946Y-47995984D01*
X17368613Y-48463158D01*
X16892054Y-49166220D01*
X16720822Y-49998137D01*
X16880984Y-50832254D01*
X17348158Y-51541587D01*
X18051220Y-52018146D01*
X18673140Y-52146155D01*
X20725000Y-52159789D01*
X20725001Y-60116179D01*
X20848875Y-60738936D01*
X21320752Y-61445149D01*
X22026965Y-61917026D01*
X22860000Y-62082727D01*
X23693036Y-61917026D01*
X24399249Y-61445149D01*
X24871126Y-60738936D01*
X24995000Y-60116179D01*
X24995000Y-52028246D01*
X33371027Y-52008398D01*
X33578800Y-52049726D01*
X33791583Y-52007401D01*
X33794137Y-52007395D01*
X33997770Y-51966388D01*
X34411835Y-51884026D01*
X34414021Y-51882565D01*
X34416599Y-51882046D01*
X34767115Y-51646635D01*
X34939783Y-51531262D01*
X34941588Y-51529457D01*
X35121692Y-51408497D01*
X35238969Y-51232076D01*
X37441684Y-49029362D01*
X37619949Y-48910249D01*
X38091826Y-48204036D01*
X38215700Y-47581279D01*
X38215700Y-47581275D01*
X38257526Y-47371000D01*
X38215700Y-47160725D01*
X38215700Y-42393472D01*
X43208200Y-42393472D01*
X43208200Y-42968328D01*
X43428188Y-43499427D01*
X43834673Y-43905912D01*
X44365772Y-44125900D01*
X44940628Y-44125900D01*
X45471727Y-43905912D01*
X45878212Y-43499427D01*
X46098200Y-42968328D01*
X46098200Y-42393472D01*
X45878212Y-41862373D01*
X45471727Y-41455888D01*
X44940628Y-41235900D01*
X44365772Y-41235900D01*
X43834673Y-41455888D01*
X43428188Y-41862373D01*
X43208200Y-42393472D01*
X38215700Y-42393472D01*
X38215700Y-39893472D01*
X45708200Y-39893472D01*
X45708200Y-40468328D01*
X45928188Y-40999427D01*
X46334673Y-41405912D01*
X46865772Y-41625900D01*
X47440628Y-41625900D01*
X47971727Y-41405912D01*
X48378212Y-40999427D01*
X48598200Y-40468328D01*
X48598200Y-39893472D01*
X48378212Y-39362373D01*
X47971727Y-38955888D01*
X47440628Y-38735900D01*
X46865772Y-38735900D01*
X46334673Y-38955888D01*
X45928188Y-39362373D01*
X45708200Y-39893472D01*
X38215700Y-39893472D01*
X38215700Y-37393472D01*
X43208200Y-37393472D01*
X43208200Y-37968328D01*
X43428188Y-38499427D01*
X43834673Y-38905912D01*
X44365772Y-39125900D01*
X44940628Y-39125900D01*
X45471727Y-38905912D01*
X45878212Y-38499427D01*
X46098200Y-37968328D01*
X46098200Y-37393472D01*
X45878212Y-36862373D01*
X45471727Y-36455888D01*
X44940628Y-36235900D01*
X44365772Y-36235900D01*
X43834673Y-36455888D01*
X43428188Y-36862373D01*
X43208200Y-37393472D01*
X38215700Y-37393472D01*
X38215700Y-35668675D01*
X38257526Y-35458400D01*
X38215700Y-35248125D01*
X38215700Y-30963300D01*
X43817949Y-30963300D01*
X43637723Y-31083723D01*
X43320560Y-31558391D01*
X43209187Y-32118300D01*
X43320560Y-32678209D01*
X43637723Y-33152877D01*
X43687300Y-33186004D01*
X43687301Y-33590596D01*
X43637723Y-33623723D01*
X43320560Y-34098391D01*
X43209187Y-34658300D01*
X43320560Y-35218209D01*
X43637723Y-35692877D01*
X44112391Y-36010040D01*
X44530967Y-36093300D01*
X45613633Y-36093300D01*
X45865000Y-36043300D01*
X51224844Y-36043300D01*
X51244535Y-36056457D01*
X51264287Y-36060386D01*
X51274672Y-36075928D01*
X51307300Y-36097729D01*
X51307301Y-47432314D01*
X50981949Y-47757666D01*
X50800000Y-47721474D01*
X50586376Y-47763966D01*
X50582966Y-47763977D01*
X50380243Y-47804968D01*
X49966965Y-47887174D01*
X49964045Y-47889125D01*
X49960604Y-47889821D01*
X49611119Y-48124942D01*
X49260751Y-48359051D01*
X49258800Y-48361971D01*
X49255888Y-48363930D01*
X49022957Y-48714934D01*
X48788874Y-49065265D01*
X48788189Y-49068708D01*
X48786248Y-49071633D01*
X48705334Y-49485251D01*
X48623174Y-49898300D01*
X48623858Y-49901741D01*
X48623184Y-49905188D01*
X48706689Y-50318159D01*
X48713710Y-50353455D01*
X48663955Y-60105283D01*
X48784651Y-60728664D01*
X49252918Y-61437275D01*
X49956715Y-61912749D01*
X50788894Y-62082698D01*
X51622764Y-61921249D01*
X52331375Y-61452982D01*
X52806849Y-60749185D01*
X52933899Y-60127068D01*
X52975229Y-52026426D01*
X57897081Y-52010851D01*
X57930338Y-52178045D01*
X57416700Y-52075876D01*
X56876079Y-52183412D01*
X56859954Y-52194186D01*
X56273700Y-52077573D01*
X55440665Y-52243274D01*
X54734452Y-52715151D01*
X54262575Y-53421364D01*
X54138701Y-54044121D01*
X54138700Y-63464075D01*
X54128081Y-64536558D01*
X54084173Y-64757300D01*
X54164970Y-65163495D01*
X54241726Y-65570384D01*
X54247732Y-65579568D01*
X54249874Y-65590336D01*
X54479987Y-65934725D01*
X54706588Y-66281234D01*
X54715652Y-66287421D01*
X54721751Y-66296549D01*
X55066139Y-66526662D01*
X55408094Y-66760079D01*
X55418835Y-66762326D01*
X55427964Y-66768426D01*
X55834191Y-66849230D01*
X56239449Y-66934020D01*
X56460610Y-66892300D01*
X75926225Y-66892300D01*
X76136500Y-66934126D01*
X76346775Y-66892300D01*
X76346779Y-66892300D01*
X76969536Y-66768426D01*
X77675749Y-66296549D01*
X77794864Y-66118281D01*
X78466082Y-65447063D01*
X78644350Y-65327948D01*
X79025645Y-64757300D01*
X79116227Y-64621735D01*
X79119459Y-64605488D01*
X79738136Y-64482426D01*
X80444349Y-64010549D01*
X80916226Y-63304335D01*
X80993399Y-62916361D01*
X81340100Y-62079352D01*
X81340100Y-61110648D01*
X80969393Y-60215684D01*
X80284416Y-59530707D01*
X79389452Y-59160000D01*
X78420748Y-59160000D01*
X77696485Y-59460000D01*
X76927826Y-59460000D01*
X76480895Y-59371100D01*
X76480891Y-59371100D01*
X76270616Y-59329274D01*
X76060341Y-59371100D01*
X73452145Y-59371100D01*
X73432800Y-59351755D01*
X73432800Y-40740785D01*
X73495957Y-40646265D01*
X73545240Y-40398500D01*
X73545240Y-37198500D01*
X73495957Y-36950735D01*
X73355609Y-36740691D01*
X73145565Y-36600343D01*
X72897800Y-36551060D01*
X69697800Y-36551060D01*
X69450035Y-36600343D01*
X69355515Y-36663500D01*
X67258385Y-36663500D01*
X67163865Y-36600343D01*
X66916100Y-36551060D01*
X63716100Y-36551060D01*
X63468335Y-36600343D01*
X63258291Y-36740691D01*
X63117943Y-36950735D01*
X63068660Y-37198500D01*
X63068660Y-40398500D01*
X63117943Y-40646265D01*
X63258291Y-40856309D01*
X63468335Y-40996657D01*
X63716100Y-41045940D01*
X66916100Y-41045940D01*
X67163865Y-40996657D01*
X67258385Y-40933500D01*
X69162801Y-40933500D01*
X69162800Y-60025825D01*
X69120974Y-60236100D01*
X69162800Y-60446375D01*
X69162800Y-60446378D01*
X69286674Y-61069135D01*
X69758551Y-61775349D01*
X69936819Y-61894464D01*
X70664655Y-62622300D01*
X58408700Y-62622300D01*
X58408700Y-55490386D01*
X58415639Y-55485750D01*
X58686700Y-55080079D01*
X58957760Y-55485749D01*
X59416078Y-55791988D01*
X59956700Y-55899524D01*
X60497321Y-55791988D01*
X60955639Y-55485750D01*
X61226700Y-55080079D01*
X61497760Y-55485749D01*
X61956078Y-55791988D01*
X62496700Y-55899524D01*
X63037321Y-55791988D01*
X63495639Y-55485750D01*
X63801878Y-55027432D01*
X63882270Y-54623273D01*
X63882270Y-54560815D01*
X64878185Y-53564900D01*
X64993829Y-53487629D01*
X65299941Y-53029500D01*
X65380300Y-52625507D01*
X65380300Y-52625503D01*
X65407432Y-52489101D01*
X65380300Y-52352699D01*
X65380300Y-49488601D01*
X65407432Y-49352199D01*
X65380300Y-49215797D01*
X65380300Y-49215793D01*
X65299941Y-48811800D01*
X64993828Y-48353671D01*
X64878187Y-48276402D01*
X61489700Y-44887915D01*
X61412429Y-44772271D01*
X60954300Y-44466159D01*
X60550307Y-44385800D01*
X60413900Y-44358667D01*
X60277493Y-44385800D01*
X56682285Y-44385800D01*
X56464900Y-44168415D01*
X56464900Y-44043600D01*
X63065587Y-44043600D01*
X63176960Y-44603509D01*
X63494123Y-45078177D01*
X63968791Y-45395340D01*
X64387367Y-45478600D01*
X64670033Y-45478600D01*
X65088609Y-45395340D01*
X65563277Y-45078177D01*
X65798306Y-44726432D01*
X65852166Y-44856462D01*
X66255838Y-45260134D01*
X66783261Y-45478600D01*
X67354139Y-45478600D01*
X67881562Y-45260134D01*
X68285234Y-44856462D01*
X68503700Y-44329039D01*
X68503700Y-43758161D01*
X68285234Y-43230738D01*
X67881562Y-42827066D01*
X67354139Y-42608600D01*
X66783261Y-42608600D01*
X66255838Y-42827066D01*
X65852166Y-43230738D01*
X65798306Y-43360768D01*
X65563277Y-43009023D01*
X65088609Y-42691860D01*
X64670033Y-42608600D01*
X64387367Y-42608600D01*
X63968791Y-42691860D01*
X63494123Y-43009023D01*
X63176960Y-43483691D01*
X63065587Y-44043600D01*
X56464900Y-44043600D01*
X56464900Y-43190796D01*
X56578438Y-43304334D01*
X57105861Y-43522800D01*
X57676739Y-43522800D01*
X58204162Y-43304334D01*
X58607834Y-42900662D01*
X58661694Y-42770632D01*
X58896723Y-43122377D01*
X59371391Y-43439540D01*
X59789967Y-43522800D01*
X60072633Y-43522800D01*
X60491209Y-43439540D01*
X60965877Y-43122377D01*
X61283040Y-42647709D01*
X61394413Y-42087800D01*
X61329000Y-41758947D01*
X61329000Y-37238585D01*
X62134988Y-36432598D01*
X62250629Y-36355329D01*
X62556741Y-35897200D01*
X62637100Y-35493207D01*
X62664233Y-35356800D01*
X62637100Y-35220393D01*
X62637100Y-26857207D01*
X62664233Y-26720800D01*
X62556741Y-26180400D01*
X62327897Y-25837911D01*
X62327895Y-25837909D01*
X62250628Y-25722271D01*
X62134990Y-25645004D01*
X60896599Y-24406614D01*
X60890910Y-24398100D01*
X63204321Y-24398100D01*
X63210776Y-24430554D01*
X63704755Y-25169845D01*
X64444046Y-25663824D01*
X65095972Y-25793500D01*
X65536228Y-25793500D01*
X66038963Y-25693500D01*
X67112425Y-25693500D01*
X67322700Y-25735326D01*
X67532975Y-25693500D01*
X69957226Y-25693500D01*
X70167499Y-25735326D01*
X70377773Y-25693500D01*
X70574937Y-25693500D01*
X71077672Y-25793500D01*
X71517928Y-25793500D01*
X72169854Y-25663824D01*
X72909145Y-25169845D01*
X73318616Y-24557029D01*
X73464845Y-24410800D01*
X75902275Y-24410800D01*
X75867187Y-24587200D01*
X75978560Y-25147109D01*
X76295723Y-25621777D01*
X76647468Y-25856806D01*
X76517438Y-25910666D01*
X76113766Y-26314338D01*
X76001779Y-26584699D01*
X75949459Y-26663001D01*
X75931087Y-26755364D01*
X75895300Y-26841761D01*
X75895300Y-26935277D01*
X75841967Y-27203400D01*
X75869101Y-27339812D01*
X75869100Y-30305884D01*
X75755943Y-30475235D01*
X75706660Y-30723000D01*
X75706660Y-32523000D01*
X75755943Y-32770765D01*
X75896291Y-32980809D01*
X76106335Y-33121157D01*
X76122008Y-33124275D01*
X75952790Y-33293493D01*
X75719100Y-33857670D01*
X75719100Y-34468330D01*
X75869100Y-34830462D01*
X75869101Y-36439589D01*
X75841967Y-36576000D01*
X75949459Y-37116399D01*
X76091250Y-37328603D01*
X75928774Y-37571765D01*
X75763074Y-38404800D01*
X75804901Y-38615079D01*
X75804900Y-43515821D01*
X75804900Y-44455625D01*
X75763074Y-44665900D01*
X75804900Y-44876175D01*
X75804900Y-44876178D01*
X75928774Y-45498935D01*
X76400651Y-46205149D01*
X76578919Y-46324264D01*
X76770101Y-46515446D01*
X76770100Y-48946385D01*
X76470100Y-49670648D01*
X76470100Y-50639352D01*
X76840807Y-51534316D01*
X77525784Y-52219293D01*
X78250049Y-52519294D01*
X82262904Y-56532150D01*
X82384433Y-56712815D01*
X82735365Y-56945730D01*
X83085864Y-57179926D01*
X83089239Y-57180597D01*
X83092106Y-57182500D01*
X83505549Y-57263406D01*
X83918900Y-57345626D01*
X84132458Y-57303147D01*
X96419399Y-57265037D01*
X97041769Y-57139232D01*
X97746515Y-56665167D01*
X98216200Y-55957494D01*
X98379316Y-55123949D01*
X98211032Y-54291431D01*
X97736967Y-53586685D01*
X97029294Y-53117000D01*
X96406155Y-52995059D01*
X84800502Y-53031056D01*
X84059446Y-52290000D01*
X89995125Y-52290000D01*
X90205400Y-52331826D01*
X90415675Y-52290000D01*
X90415679Y-52290000D01*
X91038436Y-52166126D01*
X91744649Y-51694249D01*
X91863764Y-51515981D01*
X94274184Y-49105562D01*
X94330541Y-49067905D01*
X94288086Y-49170401D01*
X94168974Y-49348665D01*
X94127148Y-49558941D01*
X94045100Y-49757022D01*
X94045100Y-49971425D01*
X94003274Y-50181700D01*
X94045100Y-50391975D01*
X94045100Y-50606378D01*
X94127148Y-50804459D01*
X94168974Y-51014735D01*
X94288086Y-51192999D01*
X94370134Y-51391080D01*
X94521738Y-51542684D01*
X94640851Y-51720949D01*
X94819116Y-51840062D01*
X94970720Y-51991666D01*
X95168801Y-52073714D01*
X95347065Y-52192826D01*
X95557341Y-52234652D01*
X95755422Y-52316700D01*
X95969825Y-52316700D01*
X96180100Y-52358526D01*
X96390375Y-52316700D01*
X96604778Y-52316700D01*
X96802859Y-52234652D01*
X97013135Y-52192826D01*
X97191399Y-52073714D01*
X97389480Y-51991666D01*
X99608184Y-49772962D01*
X99786449Y-49653849D01*
X100258326Y-48947636D01*
X100382200Y-48324879D01*
X100382200Y-48324875D01*
X100424026Y-48114600D01*
X100382200Y-47904325D01*
X100382200Y-38170573D01*
X100424026Y-37960299D01*
X100382200Y-37750026D01*
X100382200Y-37750021D01*
X100258326Y-37127264D01*
X99786449Y-36421051D01*
X99608184Y-36301938D01*
X98406964Y-35100719D01*
X98287849Y-34922451D01*
X97581636Y-34450574D01*
X96958879Y-34326700D01*
X96958875Y-34326700D01*
X96748600Y-34284874D01*
X96538325Y-34326700D01*
X95755422Y-34326700D01*
X95557343Y-34408747D01*
X95347064Y-34450574D01*
X95168799Y-34569687D01*
X94970720Y-34651734D01*
X94819116Y-34803338D01*
X94640851Y-34922451D01*
X94521738Y-35100716D01*
X94370134Y-35252320D01*
X94288087Y-35450399D01*
X94168974Y-35628664D01*
X94127147Y-35838943D01*
X94045100Y-36037022D01*
X94045100Y-36251421D01*
X94003273Y-36461700D01*
X94045100Y-36671979D01*
X94045100Y-36886378D01*
X94127147Y-37084457D01*
X94168974Y-37294736D01*
X94288087Y-37473001D01*
X94336595Y-37590110D01*
X94196882Y-37450397D01*
X94173026Y-37330465D01*
X93820262Y-36802517D01*
X93790900Y-36773155D01*
X93790900Y-34640945D01*
X95151462Y-33280384D01*
X96835720Y-32231332D01*
X96870436Y-32224426D01*
X97087346Y-32079491D01*
X97323818Y-31969347D01*
X97437186Y-31845736D01*
X97576649Y-31752549D01*
X97676573Y-31603002D01*
X97807756Y-31479956D01*
X97841900Y-31404452D01*
X97897906Y-31343385D01*
X97955340Y-31185799D01*
X98048526Y-31046336D01*
X98083615Y-30869932D01*
X98157723Y-30706052D01*
X98160374Y-30623230D01*
X98188748Y-30545377D01*
X98181504Y-30377808D01*
X98214227Y-30213300D01*
X98179138Y-30036896D01*
X98184891Y-29857131D01*
X98155646Y-29779600D01*
X98152067Y-29696814D01*
X98081249Y-29544772D01*
X98048526Y-29380264D01*
X97948601Y-29230716D01*
X97885123Y-29062433D01*
X97828434Y-29001996D01*
X97793447Y-28926881D01*
X97669834Y-28813512D01*
X97576649Y-28674051D01*
X97427101Y-28574126D01*
X97304055Y-28442944D01*
X97077332Y-28340418D01*
X96870436Y-28202174D01*
X96823610Y-28192860D01*
X94743400Y-26929325D01*
X94743400Y-26804074D01*
X94785226Y-26593799D01*
X94743400Y-26383522D01*
X94743400Y-26383521D01*
X94619526Y-25760764D01*
X94147649Y-25054551D01*
X93969384Y-24935438D01*
X91857564Y-22823619D01*
X91738449Y-22645351D01*
X91032236Y-22173474D01*
X90409479Y-22049600D01*
X90409475Y-22049600D01*
X90199200Y-22007774D01*
X89988925Y-22049600D01*
X88044446Y-22049600D01*
X87923992Y-21929146D01*
X95118673Y-21929146D01*
X95120900Y-22497517D01*
X95120900Y-23065562D01*
X95123147Y-23070987D01*
X95123170Y-23076862D01*
X95553731Y-24116325D01*
X95556998Y-24118394D01*
X95560116Y-24125921D01*
X96371679Y-24937484D01*
X96379206Y-24940602D01*
X96381275Y-24943869D01*
X96907211Y-25159309D01*
X97432038Y-25376700D01*
X97437909Y-25376700D01*
X97443346Y-25378927D01*
X98011717Y-25376700D01*
X98579762Y-25376700D01*
X98585187Y-25374453D01*
X98591062Y-25374430D01*
X99630525Y-24943869D01*
X99632594Y-24940602D01*
X99640121Y-24937484D01*
X100451684Y-24125921D01*
X100454802Y-24118394D01*
X100458069Y-24116325D01*
X100673509Y-23590389D01*
X100890900Y-23065562D01*
X100890900Y-23059691D01*
X100893127Y-23054254D01*
X100890900Y-22485883D01*
X100890900Y-21917838D01*
X100888653Y-21912413D01*
X100888630Y-21906538D01*
X100458069Y-20867075D01*
X100454802Y-20865006D01*
X100451684Y-20857479D01*
X99640121Y-20045916D01*
X99632594Y-20042798D01*
X99630525Y-20039531D01*
X99104589Y-19824091D01*
X98579762Y-19606700D01*
X98573891Y-19606700D01*
X98568454Y-19604473D01*
X98000083Y-19606700D01*
X97432038Y-19606700D01*
X97426613Y-19608947D01*
X97420738Y-19608970D01*
X96381275Y-20039531D01*
X96379206Y-20042798D01*
X96371679Y-20045916D01*
X95560116Y-20857479D01*
X95556998Y-20865006D01*
X95553731Y-20867075D01*
X95338291Y-21393011D01*
X95120900Y-21917838D01*
X95120900Y-21923709D01*
X95118673Y-21929146D01*
X87923992Y-21929146D01*
X86909664Y-20914819D01*
X86790549Y-20736551D01*
X86084336Y-20264674D01*
X85461579Y-20140800D01*
X85461575Y-20140800D01*
X85251300Y-20098974D01*
X85041025Y-20140800D01*
X72790775Y-20140800D01*
X72580500Y-20098974D01*
X72370225Y-20140800D01*
X69601821Y-20140800D01*
X69578136Y-20124974D01*
X68955379Y-20001100D01*
X68955375Y-20001100D01*
X68745100Y-19959274D01*
X68534825Y-20001100D01*
X66948773Y-20001100D01*
X66738499Y-19959274D01*
X66528226Y-20001100D01*
X66528221Y-20001100D01*
X65905464Y-20124974D01*
X65614766Y-20319213D01*
X65514136Y-20251974D01*
X65445888Y-20238399D01*
X65385712Y-20203465D01*
X65031563Y-20155984D01*
X64891379Y-20128100D01*
X64823579Y-20128100D01*
X64543889Y-20090602D01*
X64402603Y-20128100D01*
X40558175Y-20128100D01*
X40347900Y-20086274D01*
X40137625Y-20128100D01*
X40137621Y-20128100D01*
X39514864Y-20251974D01*
X38808651Y-20723851D01*
X38689538Y-20902116D01*
X37453155Y-22138500D01*
X31359573Y-22138500D01*
X31149299Y-22096674D01*
X30939026Y-22138500D01*
X24397373Y-22138500D01*
X23990055Y-22131921D01*
X23774505Y-22217153D01*
X23547164Y-22262374D01*
X23208393Y-22488734D01*
X18018615Y-25836483D01*
X18001065Y-25839974D01*
X17662300Y-26066330D01*
X17500076Y-26170975D01*
X17487579Y-26183075D01*
X17294852Y-26311851D01*
X17185418Y-26475631D01*
X17043901Y-26612649D01*
X16951751Y-26825337D01*
X16822975Y-27018064D01*
X16784546Y-27211257D01*
X16706237Y-27392000D01*
X16702494Y-27623759D01*
X16699100Y-27640821D01*
X16699100Y-27833896D01*
X16692521Y-28241243D01*
X15481300Y-28241243D01*
X15481300Y-24019005D01*
X16260079Y-24797784D01*
X16267606Y-24800902D01*
X16269675Y-24804169D01*
X16795611Y-25019609D01*
X17320438Y-25237000D01*
X17326309Y-25237000D01*
X17331746Y-25239227D01*
X17900117Y-25237000D01*
X18468162Y-25237000D01*
X18473587Y-25234753D01*
X18479462Y-25234730D01*
X19518925Y-24804169D01*
X19520994Y-24800902D01*
X19528521Y-24797784D01*
X20340084Y-23986221D01*
X20343202Y-23978694D01*
X20346469Y-23976625D01*
X20561909Y-23450689D01*
X20779300Y-22925862D01*
X20779300Y-22919991D01*
X20781527Y-22914554D01*
X20779300Y-22346183D01*
X20779300Y-21778138D01*
X20777053Y-21772713D01*
X20777030Y-21766838D01*
X20346469Y-20727375D01*
X20343202Y-20725306D01*
X20340084Y-20717779D01*
X19528521Y-19906216D01*
X19520994Y-19903098D01*
X19518925Y-19899831D01*
X18992989Y-19684391D01*
X18747245Y-19582600D01*
X101206300Y-19582600D01*
X101206300Y-67195700D01*
X101206300Y-67195700D01*
G37*
X101206300Y-67195700D02*
X99723705Y-67195700D01*
X100388184Y-66531221D01*
X100391302Y-66523694D01*
X100394569Y-66521625D01*
X100610009Y-65995689D01*
X100827400Y-65470862D01*
X100827400Y-65464991D01*
X100829627Y-65459554D01*
X100827400Y-64891183D01*
X100827400Y-64323138D01*
X100825153Y-64317713D01*
X100825130Y-64311838D01*
X100394569Y-63272375D01*
X100391302Y-63270306D01*
X100388184Y-63262779D01*
X99576621Y-62451216D01*
X99569094Y-62448098D01*
X99567025Y-62444831D01*
X99041089Y-62229391D01*
X98516262Y-62012000D01*
X98510391Y-62012000D01*
X98504954Y-62009773D01*
X97936583Y-62012000D01*
X97368538Y-62012000D01*
X97363113Y-62014247D01*
X97357238Y-62014270D01*
X96317775Y-62444831D01*
X96315706Y-62448098D01*
X96308179Y-62451216D01*
X95496616Y-63262779D01*
X95493498Y-63270306D01*
X95490231Y-63272375D01*
X95274791Y-63798311D01*
X95057400Y-64323138D01*
X95057400Y-64329009D01*
X95055173Y-64334446D01*
X95057400Y-64902817D01*
X95057400Y-65470862D01*
X95059647Y-65476287D01*
X95059670Y-65482162D01*
X95490231Y-66521625D01*
X95493498Y-66523694D01*
X95496616Y-66531221D01*
X96161095Y-67195700D01*
X19802605Y-67195700D01*
X20467084Y-66531221D01*
X20470202Y-66523694D01*
X20473469Y-66521625D01*
X20688909Y-65995689D01*
X20906300Y-65470862D01*
X20906300Y-65464991D01*
X20908527Y-65459554D01*
X20906300Y-64891183D01*
X20906300Y-64323138D01*
X20904053Y-64317713D01*
X20904030Y-64311838D01*
X20473469Y-63272375D01*
X20470202Y-63270306D01*
X20467084Y-63262779D01*
X19655521Y-62451216D01*
X19647994Y-62448098D01*
X19645925Y-62444831D01*
X19119989Y-62229391D01*
X18595162Y-62012000D01*
X18589291Y-62012000D01*
X18583854Y-62009773D01*
X18015483Y-62012000D01*
X17447438Y-62012000D01*
X17442013Y-62014247D01*
X17436138Y-62014270D01*
X16396675Y-62444831D01*
X16394606Y-62448098D01*
X16387079Y-62451216D01*
X15575516Y-63262779D01*
X15572398Y-63270306D01*
X15569131Y-63272375D01*
X15481300Y-63486789D01*
X15481300Y-28241243D01*
X16692521Y-28241243D01*
X16699100Y-28257881D01*
X16699100Y-29318678D01*
X16822974Y-29941435D01*
X17294851Y-30647649D01*
X18001064Y-31119526D01*
X18834100Y-31285227D01*
X19667135Y-31119526D01*
X20373349Y-30647649D01*
X20845226Y-29941436D01*
X20969100Y-29318679D01*
X20969100Y-29014543D01*
X25009065Y-26408500D01*
X26012370Y-26408500D01*
X25694674Y-26883965D01*
X25528974Y-27717000D01*
X25570801Y-27927280D01*
X25570800Y-35576841D01*
X25497991Y-35625491D01*
X25357643Y-35835535D01*
X25308360Y-36083300D01*
X25308360Y-37211395D01*
X23543717Y-38976038D01*
X23365452Y-39095151D01*
X22893574Y-39801364D01*
X22769700Y-40424121D01*
X22769700Y-40424125D01*
X22727874Y-40634400D01*
X22769700Y-40844675D01*
X22769700Y-41166325D01*
X22727874Y-41376600D01*
X22769700Y-41586875D01*
X22769700Y-41586878D01*
X22893574Y-42209635D01*
X23365451Y-42915849D01*
X23543719Y-43034964D01*
X24403036Y-43894281D01*
X24522151Y-44072549D01*
X25228364Y-44544426D01*
X25851121Y-44668300D01*
X25851125Y-44668300D01*
X26061400Y-44710126D01*
X26271675Y-44668300D01*
X28449341Y-44668300D01*
X28497991Y-44741109D01*
X28708035Y-44881457D01*
X28955800Y-44930740D01*
X32455800Y-44930740D01*
X32703565Y-44881457D01*
X32913609Y-44741109D01*
X33053957Y-44531065D01*
X33103240Y-44283300D01*
X33103240Y-40783300D01*
X33053957Y-40535535D01*
X32913609Y-40325491D01*
X32771805Y-40230740D01*
X33945700Y-40230740D01*
X33945701Y-46486653D01*
X32692360Y-47739995D01*
X23067773Y-47762802D01*
X22860000Y-47721474D01*
X22647217Y-47763799D01*
X22644663Y-47763805D01*
X22441030Y-47804812D01*
X22026965Y-47887174D01*
X22024779Y-47888635D01*
X22022201Y-47889154D01*
X22008694Y-47898225D01*
X18701512Y-47876250D01*
X18077946Y-47995984D01*
X17368613Y-48463158D01*
X16892054Y-49166220D01*
X16720822Y-49998137D01*
X16880984Y-50832254D01*
X17348158Y-51541587D01*
X18051220Y-52018146D01*
X18673140Y-52146155D01*
X20725000Y-52159789D01*
X20725001Y-60116179D01*
X20848875Y-60738936D01*
X21320752Y-61445149D01*
X22026965Y-61917026D01*
X22860000Y-62082727D01*
X23693036Y-61917026D01*
X24399249Y-61445149D01*
X24871126Y-60738936D01*
X24995000Y-60116179D01*
X24995000Y-52028246D01*
X33371027Y-52008398D01*
X33578800Y-52049726D01*
X33791583Y-52007401D01*
X33794137Y-52007395D01*
X33997770Y-51966388D01*
X34411835Y-51884026D01*
X34414021Y-51882565D01*
X34416599Y-51882046D01*
X34767115Y-51646635D01*
X34939783Y-51531262D01*
X34941588Y-51529457D01*
X35121692Y-51408497D01*
X35238969Y-51232076D01*
X37441684Y-49029362D01*
X37619949Y-48910249D01*
X38091826Y-48204036D01*
X38215700Y-47581279D01*
X38215700Y-47581275D01*
X38257526Y-47371000D01*
X38215700Y-47160725D01*
X38215700Y-42393472D01*
X43208200Y-42393472D01*
X43208200Y-42968328D01*
X43428188Y-43499427D01*
X43834673Y-43905912D01*
X44365772Y-44125900D01*
X44940628Y-44125900D01*
X45471727Y-43905912D01*
X45878212Y-43499427D01*
X46098200Y-42968328D01*
X46098200Y-42393472D01*
X45878212Y-41862373D01*
X45471727Y-41455888D01*
X44940628Y-41235900D01*
X44365772Y-41235900D01*
X43834673Y-41455888D01*
X43428188Y-41862373D01*
X43208200Y-42393472D01*
X38215700Y-42393472D01*
X38215700Y-39893472D01*
X45708200Y-39893472D01*
X45708200Y-40468328D01*
X45928188Y-40999427D01*
X46334673Y-41405912D01*
X46865772Y-41625900D01*
X47440628Y-41625900D01*
X47971727Y-41405912D01*
X48378212Y-40999427D01*
X48598200Y-40468328D01*
X48598200Y-39893472D01*
X48378212Y-39362373D01*
X47971727Y-38955888D01*
X47440628Y-38735900D01*
X46865772Y-38735900D01*
X46334673Y-38955888D01*
X45928188Y-39362373D01*
X45708200Y-39893472D01*
X38215700Y-39893472D01*
X38215700Y-37393472D01*
X43208200Y-37393472D01*
X43208200Y-37968328D01*
X43428188Y-38499427D01*
X43834673Y-38905912D01*
X44365772Y-39125900D01*
X44940628Y-39125900D01*
X45471727Y-38905912D01*
X45878212Y-38499427D01*
X46098200Y-37968328D01*
X46098200Y-37393472D01*
X45878212Y-36862373D01*
X45471727Y-36455888D01*
X44940628Y-36235900D01*
X44365772Y-36235900D01*
X43834673Y-36455888D01*
X43428188Y-36862373D01*
X43208200Y-37393472D01*
X38215700Y-37393472D01*
X38215700Y-35668675D01*
X38257526Y-35458400D01*
X38215700Y-35248125D01*
X38215700Y-30963300D01*
X43817949Y-30963300D01*
X43637723Y-31083723D01*
X43320560Y-31558391D01*
X43209187Y-32118300D01*
X43320560Y-32678209D01*
X43637723Y-33152877D01*
X43687300Y-33186004D01*
X43687301Y-33590596D01*
X43637723Y-33623723D01*
X43320560Y-34098391D01*
X43209187Y-34658300D01*
X43320560Y-35218209D01*
X43637723Y-35692877D01*
X44112391Y-36010040D01*
X44530967Y-36093300D01*
X45613633Y-36093300D01*
X45865000Y-36043300D01*
X51224844Y-36043300D01*
X51244535Y-36056457D01*
X51264287Y-36060386D01*
X51274672Y-36075928D01*
X51307300Y-36097729D01*
X51307301Y-47432314D01*
X50981949Y-47757666D01*
X50800000Y-47721474D01*
X50586376Y-47763966D01*
X50582966Y-47763977D01*
X50380243Y-47804968D01*
X49966965Y-47887174D01*
X49964045Y-47889125D01*
X49960604Y-47889821D01*
X49611119Y-48124942D01*
X49260751Y-48359051D01*
X49258800Y-48361971D01*
X49255888Y-48363930D01*
X49022957Y-48714934D01*
X48788874Y-49065265D01*
X48788189Y-49068708D01*
X48786248Y-49071633D01*
X48705334Y-49485251D01*
X48623174Y-49898300D01*
X48623858Y-49901741D01*
X48623184Y-49905188D01*
X48706689Y-50318159D01*
X48713710Y-50353455D01*
X48663955Y-60105283D01*
X48784651Y-60728664D01*
X49252918Y-61437275D01*
X49956715Y-61912749D01*
X50788894Y-62082698D01*
X51622764Y-61921249D01*
X52331375Y-61452982D01*
X52806849Y-60749185D01*
X52933899Y-60127068D01*
X52975229Y-52026426D01*
X57897081Y-52010851D01*
X57930338Y-52178045D01*
X57416700Y-52075876D01*
X56876079Y-52183412D01*
X56859954Y-52194186D01*
X56273700Y-52077573D01*
X55440665Y-52243274D01*
X54734452Y-52715151D01*
X54262575Y-53421364D01*
X54138701Y-54044121D01*
X54138700Y-63464075D01*
X54128081Y-64536558D01*
X54084173Y-64757300D01*
X54164970Y-65163495D01*
X54241726Y-65570384D01*
X54247732Y-65579568D01*
X54249874Y-65590336D01*
X54479987Y-65934725D01*
X54706588Y-66281234D01*
X54715652Y-66287421D01*
X54721751Y-66296549D01*
X55066139Y-66526662D01*
X55408094Y-66760079D01*
X55418835Y-66762326D01*
X55427964Y-66768426D01*
X55834191Y-66849230D01*
X56239449Y-66934020D01*
X56460610Y-66892300D01*
X75926225Y-66892300D01*
X76136500Y-66934126D01*
X76346775Y-66892300D01*
X76346779Y-66892300D01*
X76969536Y-66768426D01*
X77675749Y-66296549D01*
X77794864Y-66118281D01*
X78466082Y-65447063D01*
X78644350Y-65327948D01*
X79025645Y-64757300D01*
X79116227Y-64621735D01*
X79119459Y-64605488D01*
X79738136Y-64482426D01*
X80444349Y-64010549D01*
X80916226Y-63304335D01*
X80993399Y-62916361D01*
X81340100Y-62079352D01*
X81340100Y-61110648D01*
X80969393Y-60215684D01*
X80284416Y-59530707D01*
X79389452Y-59160000D01*
X78420748Y-59160000D01*
X77696485Y-59460000D01*
X76927826Y-59460000D01*
X76480895Y-59371100D01*
X76480891Y-59371100D01*
X76270616Y-59329274D01*
X76060341Y-59371100D01*
X73452145Y-59371100D01*
X73432800Y-59351755D01*
X73432800Y-40740785D01*
X73495957Y-40646265D01*
X73545240Y-40398500D01*
X73545240Y-37198500D01*
X73495957Y-36950735D01*
X73355609Y-36740691D01*
X73145565Y-36600343D01*
X72897800Y-36551060D01*
X69697800Y-36551060D01*
X69450035Y-36600343D01*
X69355515Y-36663500D01*
X67258385Y-36663500D01*
X67163865Y-36600343D01*
X66916100Y-36551060D01*
X63716100Y-36551060D01*
X63468335Y-36600343D01*
X63258291Y-36740691D01*
X63117943Y-36950735D01*
X63068660Y-37198500D01*
X63068660Y-40398500D01*
X63117943Y-40646265D01*
X63258291Y-40856309D01*
X63468335Y-40996657D01*
X63716100Y-41045940D01*
X66916100Y-41045940D01*
X67163865Y-40996657D01*
X67258385Y-40933500D01*
X69162801Y-40933500D01*
X69162800Y-60025825D01*
X69120974Y-60236100D01*
X69162800Y-60446375D01*
X69162800Y-60446378D01*
X69286674Y-61069135D01*
X69758551Y-61775349D01*
X69936819Y-61894464D01*
X70664655Y-62622300D01*
X58408700Y-62622300D01*
X58408700Y-55490386D01*
X58415639Y-55485750D01*
X58686700Y-55080079D01*
X58957760Y-55485749D01*
X59416078Y-55791988D01*
X59956700Y-55899524D01*
X60497321Y-55791988D01*
X60955639Y-55485750D01*
X61226700Y-55080079D01*
X61497760Y-55485749D01*
X61956078Y-55791988D01*
X62496700Y-55899524D01*
X63037321Y-55791988D01*
X63495639Y-55485750D01*
X63801878Y-55027432D01*
X63882270Y-54623273D01*
X63882270Y-54560815D01*
X64878185Y-53564900D01*
X64993829Y-53487629D01*
X65299941Y-53029500D01*
X65380300Y-52625507D01*
X65380300Y-52625503D01*
X65407432Y-52489101D01*
X65380300Y-52352699D01*
X65380300Y-49488601D01*
X65407432Y-49352199D01*
X65380300Y-49215797D01*
X65380300Y-49215793D01*
X65299941Y-48811800D01*
X64993828Y-48353671D01*
X64878187Y-48276402D01*
X61489700Y-44887915D01*
X61412429Y-44772271D01*
X60954300Y-44466159D01*
X60550307Y-44385800D01*
X60413900Y-44358667D01*
X60277493Y-44385800D01*
X56682285Y-44385800D01*
X56464900Y-44168415D01*
X56464900Y-44043600D01*
X63065587Y-44043600D01*
X63176960Y-44603509D01*
X63494123Y-45078177D01*
X63968791Y-45395340D01*
X64387367Y-45478600D01*
X64670033Y-45478600D01*
X65088609Y-45395340D01*
X65563277Y-45078177D01*
X65798306Y-44726432D01*
X65852166Y-44856462D01*
X66255838Y-45260134D01*
X66783261Y-45478600D01*
X67354139Y-45478600D01*
X67881562Y-45260134D01*
X68285234Y-44856462D01*
X68503700Y-44329039D01*
X68503700Y-43758161D01*
X68285234Y-43230738D01*
X67881562Y-42827066D01*
X67354139Y-42608600D01*
X66783261Y-42608600D01*
X66255838Y-42827066D01*
X65852166Y-43230738D01*
X65798306Y-43360768D01*
X65563277Y-43009023D01*
X65088609Y-42691860D01*
X64670033Y-42608600D01*
X64387367Y-42608600D01*
X63968791Y-42691860D01*
X63494123Y-43009023D01*
X63176960Y-43483691D01*
X63065587Y-44043600D01*
X56464900Y-44043600D01*
X56464900Y-43190796D01*
X56578438Y-43304334D01*
X57105861Y-43522800D01*
X57676739Y-43522800D01*
X58204162Y-43304334D01*
X58607834Y-42900662D01*
X58661694Y-42770632D01*
X58896723Y-43122377D01*
X59371391Y-43439540D01*
X59789967Y-43522800D01*
X60072633Y-43522800D01*
X60491209Y-43439540D01*
X60965877Y-43122377D01*
X61283040Y-42647709D01*
X61394413Y-42087800D01*
X61329000Y-41758947D01*
X61329000Y-37238585D01*
X62134988Y-36432598D01*
X62250629Y-36355329D01*
X62556741Y-35897200D01*
X62637100Y-35493207D01*
X62664233Y-35356800D01*
X62637100Y-35220393D01*
X62637100Y-26857207D01*
X62664233Y-26720800D01*
X62556741Y-26180400D01*
X62327897Y-25837911D01*
X62327895Y-25837909D01*
X62250628Y-25722271D01*
X62134990Y-25645004D01*
X60896599Y-24406614D01*
X60890910Y-24398100D01*
X63204321Y-24398100D01*
X63210776Y-24430554D01*
X63704755Y-25169845D01*
X64444046Y-25663824D01*
X65095972Y-25793500D01*
X65536228Y-25793500D01*
X66038963Y-25693500D01*
X67112425Y-25693500D01*
X67322700Y-25735326D01*
X67532975Y-25693500D01*
X69957226Y-25693500D01*
X70167499Y-25735326D01*
X70377773Y-25693500D01*
X70574937Y-25693500D01*
X71077672Y-25793500D01*
X71517928Y-25793500D01*
X72169854Y-25663824D01*
X72909145Y-25169845D01*
X73318616Y-24557029D01*
X73464845Y-24410800D01*
X75902275Y-24410800D01*
X75867187Y-24587200D01*
X75978560Y-25147109D01*
X76295723Y-25621777D01*
X76647468Y-25856806D01*
X76517438Y-25910666D01*
X76113766Y-26314338D01*
X76001779Y-26584699D01*
X75949459Y-26663001D01*
X75931087Y-26755364D01*
X75895300Y-26841761D01*
X75895300Y-26935277D01*
X75841967Y-27203400D01*
X75869101Y-27339812D01*
X75869100Y-30305884D01*
X75755943Y-30475235D01*
X75706660Y-30723000D01*
X75706660Y-32523000D01*
X75755943Y-32770765D01*
X75896291Y-32980809D01*
X76106335Y-33121157D01*
X76122008Y-33124275D01*
X75952790Y-33293493D01*
X75719100Y-33857670D01*
X75719100Y-34468330D01*
X75869100Y-34830462D01*
X75869101Y-36439589D01*
X75841967Y-36576000D01*
X75949459Y-37116399D01*
X76091250Y-37328603D01*
X75928774Y-37571765D01*
X75763074Y-38404800D01*
X75804901Y-38615079D01*
X75804900Y-43515821D01*
X75804900Y-44455625D01*
X75763074Y-44665900D01*
X75804900Y-44876175D01*
X75804900Y-44876178D01*
X75928774Y-45498935D01*
X76400651Y-46205149D01*
X76578919Y-46324264D01*
X76770101Y-46515446D01*
X76770100Y-48946385D01*
X76470100Y-49670648D01*
X76470100Y-50639352D01*
X76840807Y-51534316D01*
X77525784Y-52219293D01*
X78250049Y-52519294D01*
X82262904Y-56532150D01*
X82384433Y-56712815D01*
X82735365Y-56945730D01*
X83085864Y-57179926D01*
X83089239Y-57180597D01*
X83092106Y-57182500D01*
X83505549Y-57263406D01*
X83918900Y-57345626D01*
X84132458Y-57303147D01*
X96419399Y-57265037D01*
X97041769Y-57139232D01*
X97746515Y-56665167D01*
X98216200Y-55957494D01*
X98379316Y-55123949D01*
X98211032Y-54291431D01*
X97736967Y-53586685D01*
X97029294Y-53117000D01*
X96406155Y-52995059D01*
X84800502Y-53031056D01*
X84059446Y-52290000D01*
X89995125Y-52290000D01*
X90205400Y-52331826D01*
X90415675Y-52290000D01*
X90415679Y-52290000D01*
X91038436Y-52166126D01*
X91744649Y-51694249D01*
X91863764Y-51515981D01*
X94274184Y-49105562D01*
X94330541Y-49067905D01*
X94288086Y-49170401D01*
X94168974Y-49348665D01*
X94127148Y-49558941D01*
X94045100Y-49757022D01*
X94045100Y-49971425D01*
X94003274Y-50181700D01*
X94045100Y-50391975D01*
X94045100Y-50606378D01*
X94127148Y-50804459D01*
X94168974Y-51014735D01*
X94288086Y-51192999D01*
X94370134Y-51391080D01*
X94521738Y-51542684D01*
X94640851Y-51720949D01*
X94819116Y-51840062D01*
X94970720Y-51991666D01*
X95168801Y-52073714D01*
X95347065Y-52192826D01*
X95557341Y-52234652D01*
X95755422Y-52316700D01*
X95969825Y-52316700D01*
X96180100Y-52358526D01*
X96390375Y-52316700D01*
X96604778Y-52316700D01*
X96802859Y-52234652D01*
X97013135Y-52192826D01*
X97191399Y-52073714D01*
X97389480Y-51991666D01*
X99608184Y-49772962D01*
X99786449Y-49653849D01*
X100258326Y-48947636D01*
X100382200Y-48324879D01*
X100382200Y-48324875D01*
X100424026Y-48114600D01*
X100382200Y-47904325D01*
X100382200Y-38170573D01*
X100424026Y-37960299D01*
X100382200Y-37750026D01*
X100382200Y-37750021D01*
X100258326Y-37127264D01*
X99786449Y-36421051D01*
X99608184Y-36301938D01*
X98406964Y-35100719D01*
X98287849Y-34922451D01*
X97581636Y-34450574D01*
X96958879Y-34326700D01*
X96958875Y-34326700D01*
X96748600Y-34284874D01*
X96538325Y-34326700D01*
X95755422Y-34326700D01*
X95557343Y-34408747D01*
X95347064Y-34450574D01*
X95168799Y-34569687D01*
X94970720Y-34651734D01*
X94819116Y-34803338D01*
X94640851Y-34922451D01*
X94521738Y-35100716D01*
X94370134Y-35252320D01*
X94288087Y-35450399D01*
X94168974Y-35628664D01*
X94127147Y-35838943D01*
X94045100Y-36037022D01*
X94045100Y-36251421D01*
X94003273Y-36461700D01*
X94045100Y-36671979D01*
X94045100Y-36886378D01*
X94127147Y-37084457D01*
X94168974Y-37294736D01*
X94288087Y-37473001D01*
X94336595Y-37590110D01*
X94196882Y-37450397D01*
X94173026Y-37330465D01*
X93820262Y-36802517D01*
X93790900Y-36773155D01*
X93790900Y-34640945D01*
X95151462Y-33280384D01*
X96835720Y-32231332D01*
X96870436Y-32224426D01*
X97087346Y-32079491D01*
X97323818Y-31969347D01*
X97437186Y-31845736D01*
X97576649Y-31752549D01*
X97676573Y-31603002D01*
X97807756Y-31479956D01*
X97841900Y-31404452D01*
X97897906Y-31343385D01*
X97955340Y-31185799D01*
X98048526Y-31046336D01*
X98083615Y-30869932D01*
X98157723Y-30706052D01*
X98160374Y-30623230D01*
X98188748Y-30545377D01*
X98181504Y-30377808D01*
X98214227Y-30213300D01*
X98179138Y-30036896D01*
X98184891Y-29857131D01*
X98155646Y-29779600D01*
X98152067Y-29696814D01*
X98081249Y-29544772D01*
X98048526Y-29380264D01*
X97948601Y-29230716D01*
X97885123Y-29062433D01*
X97828434Y-29001996D01*
X97793447Y-28926881D01*
X97669834Y-28813512D01*
X97576649Y-28674051D01*
X97427101Y-28574126D01*
X97304055Y-28442944D01*
X97077332Y-28340418D01*
X96870436Y-28202174D01*
X96823610Y-28192860D01*
X94743400Y-26929325D01*
X94743400Y-26804074D01*
X94785226Y-26593799D01*
X94743400Y-26383522D01*
X94743400Y-26383521D01*
X94619526Y-25760764D01*
X94147649Y-25054551D01*
X93969384Y-24935438D01*
X91857564Y-22823619D01*
X91738449Y-22645351D01*
X91032236Y-22173474D01*
X90409479Y-22049600D01*
X90409475Y-22049600D01*
X90199200Y-22007774D01*
X89988925Y-22049600D01*
X88044446Y-22049600D01*
X87923992Y-21929146D01*
X95118673Y-21929146D01*
X95120900Y-22497517D01*
X95120900Y-23065562D01*
X95123147Y-23070987D01*
X95123170Y-23076862D01*
X95553731Y-24116325D01*
X95556998Y-24118394D01*
X95560116Y-24125921D01*
X96371679Y-24937484D01*
X96379206Y-24940602D01*
X96381275Y-24943869D01*
X96907211Y-25159309D01*
X97432038Y-25376700D01*
X97437909Y-25376700D01*
X97443346Y-25378927D01*
X98011717Y-25376700D01*
X98579762Y-25376700D01*
X98585187Y-25374453D01*
X98591062Y-25374430D01*
X99630525Y-24943869D01*
X99632594Y-24940602D01*
X99640121Y-24937484D01*
X100451684Y-24125921D01*
X100454802Y-24118394D01*
X100458069Y-24116325D01*
X100673509Y-23590389D01*
X100890900Y-23065562D01*
X100890900Y-23059691D01*
X100893127Y-23054254D01*
X100890900Y-22485883D01*
X100890900Y-21917838D01*
X100888653Y-21912413D01*
X100888630Y-21906538D01*
X100458069Y-20867075D01*
X100454802Y-20865006D01*
X100451684Y-20857479D01*
X99640121Y-20045916D01*
X99632594Y-20042798D01*
X99630525Y-20039531D01*
X99104589Y-19824091D01*
X98579762Y-19606700D01*
X98573891Y-19606700D01*
X98568454Y-19604473D01*
X98000083Y-19606700D01*
X97432038Y-19606700D01*
X97426613Y-19608947D01*
X97420738Y-19608970D01*
X96381275Y-20039531D01*
X96379206Y-20042798D01*
X96371679Y-20045916D01*
X95560116Y-20857479D01*
X95556998Y-20865006D01*
X95553731Y-20867075D01*
X95338291Y-21393011D01*
X95120900Y-21917838D01*
X95120900Y-21923709D01*
X95118673Y-21929146D01*
X87923992Y-21929146D01*
X86909664Y-20914819D01*
X86790549Y-20736551D01*
X86084336Y-20264674D01*
X85461579Y-20140800D01*
X85461575Y-20140800D01*
X85251300Y-20098974D01*
X85041025Y-20140800D01*
X72790775Y-20140800D01*
X72580500Y-20098974D01*
X72370225Y-20140800D01*
X69601821Y-20140800D01*
X69578136Y-20124974D01*
X68955379Y-20001100D01*
X68955375Y-20001100D01*
X68745100Y-19959274D01*
X68534825Y-20001100D01*
X66948773Y-20001100D01*
X66738499Y-19959274D01*
X66528226Y-20001100D01*
X66528221Y-20001100D01*
X65905464Y-20124974D01*
X65614766Y-20319213D01*
X65514136Y-20251974D01*
X65445888Y-20238399D01*
X65385712Y-20203465D01*
X65031563Y-20155984D01*
X64891379Y-20128100D01*
X64823579Y-20128100D01*
X64543889Y-20090602D01*
X64402603Y-20128100D01*
X40558175Y-20128100D01*
X40347900Y-20086274D01*
X40137625Y-20128100D01*
X40137621Y-20128100D01*
X39514864Y-20251974D01*
X38808651Y-20723851D01*
X38689538Y-20902116D01*
X37453155Y-22138500D01*
X31359573Y-22138500D01*
X31149299Y-22096674D01*
X30939026Y-22138500D01*
X24397373Y-22138500D01*
X23990055Y-22131921D01*
X23774505Y-22217153D01*
X23547164Y-22262374D01*
X23208393Y-22488734D01*
X18018615Y-25836483D01*
X18001065Y-25839974D01*
X17662300Y-26066330D01*
X17500076Y-26170975D01*
X17487579Y-26183075D01*
X17294852Y-26311851D01*
X17185418Y-26475631D01*
X17043901Y-26612649D01*
X16951751Y-26825337D01*
X16822975Y-27018064D01*
X16784546Y-27211257D01*
X16706237Y-27392000D01*
X16702494Y-27623759D01*
X16699100Y-27640821D01*
X16699100Y-27833896D01*
X16692521Y-28241243D01*
X15481300Y-28241243D01*
X15481300Y-24019005D01*
X16260079Y-24797784D01*
X16267606Y-24800902D01*
X16269675Y-24804169D01*
X16795611Y-25019609D01*
X17320438Y-25237000D01*
X17326309Y-25237000D01*
X17331746Y-25239227D01*
X17900117Y-25237000D01*
X18468162Y-25237000D01*
X18473587Y-25234753D01*
X18479462Y-25234730D01*
X19518925Y-24804169D01*
X19520994Y-24800902D01*
X19528521Y-24797784D01*
X20340084Y-23986221D01*
X20343202Y-23978694D01*
X20346469Y-23976625D01*
X20561909Y-23450689D01*
X20779300Y-22925862D01*
X20779300Y-22919991D01*
X20781527Y-22914554D01*
X20779300Y-22346183D01*
X20779300Y-21778138D01*
X20777053Y-21772713D01*
X20777030Y-21766838D01*
X20346469Y-20727375D01*
X20343202Y-20725306D01*
X20340084Y-20717779D01*
X19528521Y-19906216D01*
X19520994Y-19903098D01*
X19518925Y-19899831D01*
X18992989Y-19684391D01*
X18747245Y-19582600D01*
X101206300Y-19582600D01*
X101206300Y-67195700D01*
G36*
X54081372Y-45740629D02*
X54197013Y-45817898D01*
X55032800Y-46653685D01*
X55110071Y-46769329D01*
X55568200Y-47075441D01*
X55972193Y-47155800D01*
X55972197Y-47155800D01*
X56108599Y-47182932D01*
X56245001Y-47155800D01*
X59840215Y-47155800D01*
X62610300Y-49925885D01*
X62610301Y-51915414D01*
X62438203Y-52087512D01*
X62035955Y-52167524D01*
X62117100Y-51759578D01*
X62117100Y-51238878D01*
X62158927Y-51028600D01*
X61993226Y-50195564D01*
X61946562Y-50125726D01*
X61521349Y-49489351D01*
X61343079Y-49370235D01*
X60482351Y-48509506D01*
X60360770Y-48328788D01*
X60009692Y-48095809D01*
X59659435Y-47861774D01*
X59655992Y-47861089D01*
X59653067Y-47859148D01*
X59239608Y-47778266D01*
X58826400Y-47696074D01*
X58612777Y-47738566D01*
X54077300Y-47752919D01*
X54077300Y-45734535D01*
X54081372Y-45740629D01*
X54081372Y-45740629D01*
G37*
X54081372Y-45740629D02*
X54197013Y-45817898D01*
X55032800Y-46653685D01*
X55110071Y-46769329D01*
X55568200Y-47075441D01*
X55972193Y-47155800D01*
X55972197Y-47155800D01*
X56108599Y-47182932D01*
X56245001Y-47155800D01*
X59840215Y-47155800D01*
X62610300Y-49925885D01*
X62610301Y-51915414D01*
X62438203Y-52087512D01*
X62035955Y-52167524D01*
X62117100Y-51759578D01*
X62117100Y-51238878D01*
X62158927Y-51028600D01*
X61993226Y-50195564D01*
X61946562Y-50125726D01*
X61521349Y-49489351D01*
X61343079Y-49370235D01*
X60482351Y-48509506D01*
X60360770Y-48328788D01*
X60009692Y-48095809D01*
X59659435Y-47861774D01*
X59655992Y-47861089D01*
X59653067Y-47859148D01*
X59239608Y-47778266D01*
X58826400Y-47696074D01*
X58612777Y-47738566D01*
X54077300Y-47752919D01*
X54077300Y-45734535D01*
X54081372Y-45740629D01*
G36*
X94819116Y-38120062D02*
X94970720Y-38271666D01*
X95168799Y-38353713D01*
X95347064Y-38472826D01*
X95557343Y-38514653D01*
X95755422Y-38596700D01*
X95864255Y-38596700D01*
X96112200Y-38844646D01*
X96112201Y-47230253D01*
X94646656Y-48695798D01*
X94924326Y-48280236D01*
X95048200Y-47657479D01*
X95048200Y-47657474D01*
X95090026Y-47447201D01*
X95074213Y-47367703D01*
X95145100Y-47011330D01*
X95177131Y-46850301D01*
X95145100Y-46689271D01*
X95145100Y-46460669D01*
X95050236Y-45983755D01*
X94688869Y-45442931D01*
X94340397Y-45210090D01*
X94392991Y-45157496D01*
X94508629Y-45080229D01*
X94585896Y-44964591D01*
X94684247Y-44866240D01*
X94737474Y-44737738D01*
X94814741Y-44622100D01*
X94841874Y-44485694D01*
X94895100Y-44357194D01*
X94895100Y-44218107D01*
X94922233Y-44081700D01*
X94895100Y-43945293D01*
X94895100Y-43806206D01*
X94841874Y-43677706D01*
X94814741Y-43541300D01*
X94737474Y-43425662D01*
X94684247Y-43297160D01*
X94585896Y-43198809D01*
X94508629Y-43083171D01*
X94483978Y-43066700D01*
X94508629Y-43050229D01*
X94585896Y-42934591D01*
X94684247Y-42836240D01*
X94737474Y-42707738D01*
X94814741Y-42592100D01*
X94841874Y-42455694D01*
X94895100Y-42327194D01*
X94895100Y-42188107D01*
X94922233Y-42051700D01*
X94895100Y-41915293D01*
X94895100Y-41776206D01*
X94841874Y-41647706D01*
X94814741Y-41511300D01*
X94737474Y-41395662D01*
X94684247Y-41267160D01*
X94585896Y-41168809D01*
X94508629Y-41053171D01*
X94392991Y-40975904D01*
X94294640Y-40877553D01*
X94166138Y-40824326D01*
X94102344Y-40781700D01*
X94166138Y-40739074D01*
X94294640Y-40685847D01*
X94392991Y-40587496D01*
X94508629Y-40510229D01*
X94585896Y-40394591D01*
X94684247Y-40296240D01*
X94737474Y-40167738D01*
X94814741Y-40052100D01*
X94841874Y-39915694D01*
X94895100Y-39787194D01*
X94895100Y-39648106D01*
X94922233Y-39511700D01*
X94895100Y-39375293D01*
X94895100Y-38858707D01*
X94922233Y-38722300D01*
X94814741Y-38181900D01*
X94802447Y-38163501D01*
X94736567Y-38064905D01*
X94819116Y-38120062D01*
X94819116Y-38120062D01*
G37*
X94819116Y-38120062D02*
X94970720Y-38271666D01*
X95168799Y-38353713D01*
X95347064Y-38472826D01*
X95557343Y-38514653D01*
X95755422Y-38596700D01*
X95864255Y-38596700D01*
X96112200Y-38844646D01*
X96112201Y-47230253D01*
X94646656Y-48695798D01*
X94924326Y-48280236D01*
X95048200Y-47657479D01*
X95048200Y-47657474D01*
X95090026Y-47447201D01*
X95074213Y-47367703D01*
X95145100Y-47011330D01*
X95177131Y-46850301D01*
X95145100Y-46689271D01*
X95145100Y-46460669D01*
X95050236Y-45983755D01*
X94688869Y-45442931D01*
X94340397Y-45210090D01*
X94392991Y-45157496D01*
X94508629Y-45080229D01*
X94585896Y-44964591D01*
X94684247Y-44866240D01*
X94737474Y-44737738D01*
X94814741Y-44622100D01*
X94841874Y-44485694D01*
X94895100Y-44357194D01*
X94895100Y-44218107D01*
X94922233Y-44081700D01*
X94895100Y-43945293D01*
X94895100Y-43806206D01*
X94841874Y-43677706D01*
X94814741Y-43541300D01*
X94737474Y-43425662D01*
X94684247Y-43297160D01*
X94585896Y-43198809D01*
X94508629Y-43083171D01*
X94483978Y-43066700D01*
X94508629Y-43050229D01*
X94585896Y-42934591D01*
X94684247Y-42836240D01*
X94737474Y-42707738D01*
X94814741Y-42592100D01*
X94841874Y-42455694D01*
X94895100Y-42327194D01*
X94895100Y-42188107D01*
X94922233Y-42051700D01*
X94895100Y-41915293D01*
X94895100Y-41776206D01*
X94841874Y-41647706D01*
X94814741Y-41511300D01*
X94737474Y-41395662D01*
X94684247Y-41267160D01*
X94585896Y-41168809D01*
X94508629Y-41053171D01*
X94392991Y-40975904D01*
X94294640Y-40877553D01*
X94166138Y-40824326D01*
X94102344Y-40781700D01*
X94166138Y-40739074D01*
X94294640Y-40685847D01*
X94392991Y-40587496D01*
X94508629Y-40510229D01*
X94585896Y-40394591D01*
X94684247Y-40296240D01*
X94737474Y-40167738D01*
X94814741Y-40052100D01*
X94841874Y-39915694D01*
X94895100Y-39787194D01*
X94895100Y-39648106D01*
X94922233Y-39511700D01*
X94895100Y-39375293D01*
X94895100Y-38858707D01*
X94922233Y-38722300D01*
X94814741Y-38181900D01*
X94802447Y-38163501D01*
X94736567Y-38064905D01*
X94819116Y-38120062D01*
G36*
X81591623Y-44405077D02*
X81924540Y-44627525D01*
X83988800Y-46691785D01*
X84066071Y-46807429D01*
X84524200Y-47113541D01*
X84928193Y-47193900D01*
X85064599Y-47221033D01*
X85201005Y-47193900D01*
X89728793Y-47193900D01*
X89865200Y-47221033D01*
X90001607Y-47193900D01*
X90183294Y-47157760D01*
X89321055Y-48020000D01*
X81040100Y-48020000D01*
X81040100Y-45841375D01*
X81081926Y-45631100D01*
X81040100Y-45420825D01*
X81040100Y-45420821D01*
X80916226Y-44798064D01*
X80802066Y-44627211D01*
X80899062Y-44587034D01*
X81302734Y-44183362D01*
X81356594Y-44053332D01*
X81591623Y-44405077D01*
X81591623Y-44405077D01*
G37*
X81591623Y-44405077D02*
X81924540Y-44627525D01*
X83988800Y-46691785D01*
X84066071Y-46807429D01*
X84524200Y-47113541D01*
X84928193Y-47193900D01*
X85064599Y-47221033D01*
X85201005Y-47193900D01*
X89728793Y-47193900D01*
X89865200Y-47221033D01*
X90001607Y-47193900D01*
X90183294Y-47157760D01*
X89321055Y-48020000D01*
X81040100Y-48020000D01*
X81040100Y-45841375D01*
X81081926Y-45631100D01*
X81040100Y-45420825D01*
X81040100Y-45420821D01*
X80916226Y-44798064D01*
X80802066Y-44627211D01*
X80899062Y-44587034D01*
X81302734Y-44183362D01*
X81356594Y-44053332D01*
X81591623Y-44405077D01*
G36*
X87293923Y-44405077D02*
X87322094Y-44423900D01*
X86764496Y-44423900D01*
X87005034Y-44183362D01*
X87058894Y-44053332D01*
X87293923Y-44405077D01*
X87293923Y-44405077D01*
G37*
X87293923Y-44405077D02*
X87322094Y-44423900D01*
X86764496Y-44423900D01*
X87005034Y-44183362D01*
X87058894Y-44053332D01*
X87293923Y-44405077D01*
G36*
X89832802Y-42934588D02*
X89910071Y-43050229D01*
X90025711Y-43127497D01*
X90362729Y-43352685D01*
X89469277Y-44246138D01*
X89680240Y-43930409D01*
X89791613Y-43370500D01*
X89680240Y-42810591D01*
X89622719Y-42724505D01*
X89832802Y-42934588D01*
X89832802Y-42934588D01*
G37*
X89832802Y-42934588D02*
X89910071Y-43050229D01*
X90025711Y-43127497D01*
X90362729Y-43352685D01*
X89469277Y-44246138D01*
X89680240Y-43930409D01*
X89791613Y-43370500D01*
X89680240Y-42810591D01*
X89622719Y-42724505D01*
X89832802Y-42934588D01*
G36*
X87293923Y-42335923D02*
X87058894Y-42687668D01*
X87005034Y-42557638D01*
X86601362Y-42153966D01*
X86381992Y-42063100D01*
X87702231Y-42063100D01*
X87293923Y-42335923D01*
X87293923Y-42335923D01*
G37*
X87293923Y-42335923D02*
X87058894Y-42687668D01*
X87005034Y-42557638D01*
X86601362Y-42153966D01*
X86381992Y-42063100D01*
X87702231Y-42063100D01*
X87293923Y-42335923D01*
G36*
X81655123Y-39223477D02*
X81988040Y-39445925D01*
X84103100Y-41560985D01*
X84180371Y-41676629D01*
X84638500Y-41982741D01*
X84652370Y-41985500D01*
X83018900Y-41985500D01*
X82767533Y-41935500D01*
X82484867Y-41935500D01*
X82066291Y-42018760D01*
X81591623Y-42335923D01*
X81356594Y-42687668D01*
X81302734Y-42557638D01*
X80899062Y-42153966D01*
X80371639Y-41935500D01*
X80074900Y-41935500D01*
X80074900Y-39623900D01*
X80435139Y-39623900D01*
X80962562Y-39405434D01*
X81366234Y-39001762D01*
X81420094Y-38871732D01*
X81655123Y-39223477D01*
X81655123Y-39223477D01*
G37*
X81655123Y-39223477D02*
X81988040Y-39445925D01*
X84103100Y-41560985D01*
X84180371Y-41676629D01*
X84638500Y-41982741D01*
X84652370Y-41985500D01*
X83018900Y-41985500D01*
X82767533Y-41935500D01*
X82484867Y-41935500D01*
X82066291Y-42018760D01*
X81591623Y-42335923D01*
X81356594Y-42687668D01*
X81302734Y-42557638D01*
X80899062Y-42153966D01*
X80371639Y-41935500D01*
X80074900Y-41935500D01*
X80074900Y-39623900D01*
X80435139Y-39623900D01*
X80962562Y-39405434D01*
X81366234Y-39001762D01*
X81420094Y-38871732D01*
X81655123Y-39223477D01*
G36*
X88974496Y-42076282D02*
X88954769Y-42063100D01*
X88961315Y-42063100D01*
X88974496Y-42076282D01*
X88974496Y-42076282D01*
G37*
X88974496Y-42076282D02*
X88954769Y-42063100D01*
X88961315Y-42063100D01*
X88974496Y-42076282D01*
G36*
X58559001Y-41226105D02*
X58204162Y-40871266D01*
X57676739Y-40652800D01*
X57105861Y-40652800D01*
X56578438Y-40871266D01*
X56464900Y-40984804D01*
X56464900Y-39638885D01*
X57753341Y-38350445D01*
X57944400Y-38312441D01*
X58402529Y-38006329D01*
X58559000Y-37772153D01*
X58559001Y-41226105D01*
X58559001Y-41226105D01*
G37*
X58559001Y-41226105D02*
X58204162Y-40871266D01*
X57676739Y-40652800D01*
X57105861Y-40652800D01*
X56578438Y-40871266D01*
X56464900Y-40984804D01*
X56464900Y-39638885D01*
X57753341Y-38350445D01*
X57944400Y-38312441D01*
X58402529Y-38006329D01*
X58559000Y-37772153D01*
X58559001Y-41226105D01*
G36*
X90800917Y-39821862D02*
X91328865Y-40174626D01*
X92161899Y-40340326D01*
X92343847Y-40304134D01*
X92434307Y-40394594D01*
X92511571Y-40510228D01*
X92627206Y-40587493D01*
X92706413Y-40666700D01*
X91482286Y-40666700D01*
X90610799Y-39795214D01*
X90533529Y-39679571D01*
X90337367Y-39548500D01*
X90527555Y-39548500D01*
X90800917Y-39821862D01*
X90800917Y-39821862D01*
G37*
X90800917Y-39821862D02*
X91328865Y-40174626D01*
X92161899Y-40340326D01*
X92343847Y-40304134D01*
X92434307Y-40394594D01*
X92511571Y-40510228D01*
X92627206Y-40587493D01*
X92706413Y-40666700D01*
X91482286Y-40666700D01*
X90610799Y-39795214D01*
X90533529Y-39679571D01*
X90337367Y-39548500D01*
X90527555Y-39548500D01*
X90800917Y-39821862D01*
G36*
X28497991Y-40325491D02*
X28449341Y-40398300D01*
X28160145Y-40398300D01*
X28327705Y-40230740D01*
X28639795Y-40230740D01*
X28497991Y-40325491D01*
X28497991Y-40325491D01*
G37*
X28497991Y-40325491D02*
X28449341Y-40398300D01*
X28160145Y-40398300D01*
X28327705Y-40230740D01*
X28639795Y-40230740D01*
X28497991Y-40325491D01*
G36*
X51280167Y-24599900D02*
X51307301Y-24736311D01*
X51307300Y-25970596D01*
X51257723Y-26003723D01*
X50940560Y-26478391D01*
X50829187Y-27038300D01*
X50940560Y-27598209D01*
X51257723Y-28072877D01*
X51610058Y-28308300D01*
X51257723Y-28543723D01*
X50940560Y-29018391D01*
X50829187Y-29578300D01*
X50940560Y-30138209D01*
X51257723Y-30612877D01*
X51610058Y-30848300D01*
X51257723Y-31083723D01*
X50940560Y-31558391D01*
X50829187Y-32118300D01*
X50940560Y-32678209D01*
X51257723Y-33152877D01*
X51378406Y-33233515D01*
X51244535Y-33260143D01*
X51224844Y-33273300D01*
X46457300Y-33273300D01*
X46457300Y-33186003D01*
X46506877Y-33152877D01*
X46824040Y-32678209D01*
X46935413Y-32118300D01*
X46824040Y-31558391D01*
X46506877Y-31083723D01*
X46154542Y-30848300D01*
X46506877Y-30612877D01*
X46824040Y-30138209D01*
X46935413Y-29578300D01*
X46824040Y-29018391D01*
X46506877Y-28543723D01*
X46154542Y-28308300D01*
X46506877Y-28072877D01*
X46824040Y-27598209D01*
X46935413Y-27038300D01*
X46824040Y-26478391D01*
X46506877Y-26003723D01*
X46032209Y-25686560D01*
X45613633Y-25603300D01*
X44530967Y-25603300D01*
X44112391Y-25686560D01*
X43637723Y-26003723D01*
X43320560Y-26478391D01*
X43209187Y-27038300D01*
X43320560Y-27598209D01*
X43637723Y-28072877D01*
X43817949Y-28193300D01*
X37928140Y-28193300D01*
X37928140Y-28073500D01*
X37878857Y-27825735D01*
X37738509Y-27615691D01*
X37528465Y-27475343D01*
X37280700Y-27426060D01*
X37158708Y-27426060D01*
X36913735Y-27262374D01*
X36080700Y-27096673D01*
X35247664Y-27262374D01*
X35002691Y-27426060D01*
X34880700Y-27426060D01*
X34632935Y-27475343D01*
X34422891Y-27615691D01*
X34282543Y-27825735D01*
X34233260Y-28073500D01*
X34233260Y-28195492D01*
X34069574Y-28440465D01*
X33945700Y-29063222D01*
X33945701Y-34574053D01*
X33083895Y-35435860D01*
X31955800Y-35435860D01*
X31708035Y-35485143D01*
X31497991Y-35625491D01*
X31357643Y-35835535D01*
X31308360Y-36083300D01*
X31308360Y-39583300D01*
X31357643Y-39831065D01*
X31497991Y-40041109D01*
X31639795Y-40135860D01*
X29771805Y-40135860D01*
X29913609Y-40041109D01*
X30053957Y-39831065D01*
X30103240Y-39583300D01*
X30103240Y-36083300D01*
X30053957Y-35835535D01*
X29913609Y-35625491D01*
X29840800Y-35576841D01*
X29840800Y-28601345D01*
X32033646Y-26408500D01*
X38127225Y-26408500D01*
X38337500Y-26450326D01*
X38547775Y-26408500D01*
X38547779Y-26408500D01*
X39170536Y-26284626D01*
X39876749Y-25812749D01*
X39995864Y-25634481D01*
X41232246Y-24398100D01*
X51320307Y-24398100D01*
X51280167Y-24599900D01*
X51280167Y-24599900D01*
G37*
X51280167Y-24599900D02*
X51307301Y-24736311D01*
X51307300Y-25970596D01*
X51257723Y-26003723D01*
X50940560Y-26478391D01*
X50829187Y-27038300D01*
X50940560Y-27598209D01*
X51257723Y-28072877D01*
X51610058Y-28308300D01*
X51257723Y-28543723D01*
X50940560Y-29018391D01*
X50829187Y-29578300D01*
X50940560Y-30138209D01*
X51257723Y-30612877D01*
X51610058Y-30848300D01*
X51257723Y-31083723D01*
X50940560Y-31558391D01*
X50829187Y-32118300D01*
X50940560Y-32678209D01*
X51257723Y-33152877D01*
X51378406Y-33233515D01*
X51244535Y-33260143D01*
X51224844Y-33273300D01*
X46457300Y-33273300D01*
X46457300Y-33186003D01*
X46506877Y-33152877D01*
X46824040Y-32678209D01*
X46935413Y-32118300D01*
X46824040Y-31558391D01*
X46506877Y-31083723D01*
X46154542Y-30848300D01*
X46506877Y-30612877D01*
X46824040Y-30138209D01*
X46935413Y-29578300D01*
X46824040Y-29018391D01*
X46506877Y-28543723D01*
X46154542Y-28308300D01*
X46506877Y-28072877D01*
X46824040Y-27598209D01*
X46935413Y-27038300D01*
X46824040Y-26478391D01*
X46506877Y-26003723D01*
X46032209Y-25686560D01*
X45613633Y-25603300D01*
X44530967Y-25603300D01*
X44112391Y-25686560D01*
X43637723Y-26003723D01*
X43320560Y-26478391D01*
X43209187Y-27038300D01*
X43320560Y-27598209D01*
X43637723Y-28072877D01*
X43817949Y-28193300D01*
X37928140Y-28193300D01*
X37928140Y-28073500D01*
X37878857Y-27825735D01*
X37738509Y-27615691D01*
X37528465Y-27475343D01*
X37280700Y-27426060D01*
X37158708Y-27426060D01*
X36913735Y-27262374D01*
X36080700Y-27096673D01*
X35247664Y-27262374D01*
X35002691Y-27426060D01*
X34880700Y-27426060D01*
X34632935Y-27475343D01*
X34422891Y-27615691D01*
X34282543Y-27825735D01*
X34233260Y-28073500D01*
X34233260Y-28195492D01*
X34069574Y-28440465D01*
X33945700Y-29063222D01*
X33945701Y-34574053D01*
X33083895Y-35435860D01*
X31955800Y-35435860D01*
X31708035Y-35485143D01*
X31497991Y-35625491D01*
X31357643Y-35835535D01*
X31308360Y-36083300D01*
X31308360Y-39583300D01*
X31357643Y-39831065D01*
X31497991Y-40041109D01*
X31639795Y-40135860D01*
X29771805Y-40135860D01*
X29913609Y-40041109D01*
X30053957Y-39831065D01*
X30103240Y-39583300D01*
X30103240Y-36083300D01*
X30053957Y-35835535D01*
X29913609Y-35625491D01*
X29840800Y-35576841D01*
X29840800Y-28601345D01*
X32033646Y-26408500D01*
X38127225Y-26408500D01*
X38337500Y-26450326D01*
X38547775Y-26408500D01*
X38547779Y-26408500D01*
X39170536Y-26284626D01*
X39876749Y-25812749D01*
X39995864Y-25634481D01*
X41232246Y-24398100D01*
X51320307Y-24398100D01*
X51280167Y-24599900D01*
G36*
X87166923Y-39198077D02*
X87309135Y-39293100D01*
X86561296Y-39293100D01*
X86878034Y-38976362D01*
X86931894Y-38846332D01*
X87166923Y-39198077D01*
X87166923Y-39198077D01*
G37*
X87166923Y-39198077D02*
X87309135Y-39293100D01*
X86561296Y-39293100D01*
X86878034Y-38976362D01*
X86931894Y-38846332D01*
X87166923Y-39198077D01*
G36*
X56019000Y-34685885D02*
X56019001Y-35902641D01*
X55870759Y-36124500D01*
X55823295Y-36363120D01*
X54197012Y-37989403D01*
X54081371Y-38066672D01*
X54077300Y-38072765D01*
X54077300Y-36068942D01*
X54140065Y-36056457D01*
X54350109Y-35916109D01*
X54490457Y-35706065D01*
X54539740Y-35458300D01*
X54539740Y-33858300D01*
X54490457Y-33610535D01*
X54418804Y-33503300D01*
X54836415Y-33503300D01*
X56019000Y-34685885D01*
X56019000Y-34685885D01*
G37*
X56019000Y-34685885D02*
X56019001Y-35902641D01*
X55870759Y-36124500D01*
X55823295Y-36363120D01*
X54197012Y-37989403D01*
X54081371Y-38066672D01*
X54077300Y-38072765D01*
X54077300Y-36068942D01*
X54140065Y-36056457D01*
X54350109Y-35916109D01*
X54490457Y-35706065D01*
X54539740Y-35458300D01*
X54539740Y-33858300D01*
X54490457Y-33610535D01*
X54418804Y-33503300D01*
X54836415Y-33503300D01*
X56019000Y-34685885D01*
G36*
X85501737Y-25545583D02*
X85620851Y-25723849D01*
X86327064Y-26195726D01*
X86949821Y-26319600D01*
X86949825Y-26319600D01*
X87160100Y-26361426D01*
X87370375Y-26319600D01*
X89314855Y-26319600D01*
X90473400Y-27478146D01*
X90473400Y-27753568D01*
X90457052Y-27798423D01*
X90473400Y-28176610D01*
X90473400Y-28340779D01*
X90482467Y-28386361D01*
X90493733Y-28646985D01*
X90564552Y-28799029D01*
X90597275Y-28963536D01*
X90742207Y-29180441D01*
X90852353Y-29416918D01*
X90975967Y-29530288D01*
X91069152Y-29669749D01*
X91286057Y-29814681D01*
X91320307Y-29846092D01*
X91460609Y-29931312D01*
X91775365Y-30141626D01*
X91822191Y-30150940D01*
X92073628Y-30303665D01*
X92044544Y-30330945D01*
X92029961Y-30363193D01*
X90294919Y-32098236D01*
X90116651Y-32217351D01*
X89644774Y-32923565D01*
X89520900Y-33546322D01*
X89520900Y-33546325D01*
X89479074Y-33756600D01*
X89520900Y-33966875D01*
X89520900Y-35393468D01*
X89443551Y-35445151D01*
X88971674Y-36151365D01*
X88846930Y-36778500D01*
X88594200Y-36778500D01*
X88342833Y-36728500D01*
X88060167Y-36728500D01*
X87641591Y-36811760D01*
X87166923Y-37128923D01*
X86931894Y-37480668D01*
X86878034Y-37350638D01*
X86474362Y-36946966D01*
X85946939Y-36728500D01*
X85376061Y-36728500D01*
X85194029Y-36803900D01*
X83082400Y-36803900D01*
X82831033Y-36753900D01*
X82610145Y-36753900D01*
X88332006Y-31032040D01*
X88360100Y-31032040D01*
X88607865Y-30982757D01*
X88817909Y-30842409D01*
X88958257Y-30632365D01*
X89007540Y-30384600D01*
X89007540Y-30262609D01*
X89171226Y-30017636D01*
X89336927Y-29184600D01*
X89171226Y-28351564D01*
X89007540Y-28106591D01*
X89007540Y-27984600D01*
X88958257Y-27736835D01*
X88817909Y-27526791D01*
X88607865Y-27386443D01*
X88360100Y-27337160D01*
X88238109Y-27337160D01*
X87993136Y-27173474D01*
X87370379Y-27049600D01*
X87370375Y-27049600D01*
X87160100Y-27007774D01*
X86949825Y-27049600D01*
X86530721Y-27049600D01*
X85907964Y-27173474D01*
X85201751Y-27645351D01*
X84729874Y-28351564D01*
X84669309Y-28656045D01*
X78741070Y-34584285D01*
X78789100Y-34468330D01*
X78789100Y-33857670D01*
X78555410Y-33293493D01*
X78386192Y-33124275D01*
X78401865Y-33121157D01*
X78611909Y-32980809D01*
X78752257Y-32770765D01*
X78801540Y-32523000D01*
X78801540Y-30723000D01*
X78752257Y-30475235D01*
X78639100Y-30305885D01*
X78639100Y-27717312D01*
X78765300Y-27412639D01*
X78765300Y-26841761D01*
X78546834Y-26314338D01*
X78143162Y-25910666D01*
X78013132Y-25856806D01*
X78364877Y-25621777D01*
X78682040Y-25147109D01*
X78793413Y-24587200D01*
X78758325Y-24410800D01*
X84366955Y-24410800D01*
X85501737Y-25545583D01*
X85501737Y-25545583D01*
G37*
X85501737Y-25545583D02*
X85620851Y-25723849D01*
X86327064Y-26195726D01*
X86949821Y-26319600D01*
X86949825Y-26319600D01*
X87160100Y-26361426D01*
X87370375Y-26319600D01*
X89314855Y-26319600D01*
X90473400Y-27478146D01*
X90473400Y-27753568D01*
X90457052Y-27798423D01*
X90473400Y-28176610D01*
X90473400Y-28340779D01*
X90482467Y-28386361D01*
X90493733Y-28646985D01*
X90564552Y-28799029D01*
X90597275Y-28963536D01*
X90742207Y-29180441D01*
X90852353Y-29416918D01*
X90975967Y-29530288D01*
X91069152Y-29669749D01*
X91286057Y-29814681D01*
X91320307Y-29846092D01*
X91460609Y-29931312D01*
X91775365Y-30141626D01*
X91822191Y-30150940D01*
X92073628Y-30303665D01*
X92044544Y-30330945D01*
X92029961Y-30363193D01*
X90294919Y-32098236D01*
X90116651Y-32217351D01*
X89644774Y-32923565D01*
X89520900Y-33546322D01*
X89520900Y-33546325D01*
X89479074Y-33756600D01*
X89520900Y-33966875D01*
X89520900Y-35393468D01*
X89443551Y-35445151D01*
X88971674Y-36151365D01*
X88846930Y-36778500D01*
X88594200Y-36778500D01*
X88342833Y-36728500D01*
X88060167Y-36728500D01*
X87641591Y-36811760D01*
X87166923Y-37128923D01*
X86931894Y-37480668D01*
X86878034Y-37350638D01*
X86474362Y-36946966D01*
X85946939Y-36728500D01*
X85376061Y-36728500D01*
X85194029Y-36803900D01*
X83082400Y-36803900D01*
X82831033Y-36753900D01*
X82610145Y-36753900D01*
X88332006Y-31032040D01*
X88360100Y-31032040D01*
X88607865Y-30982757D01*
X88817909Y-30842409D01*
X88958257Y-30632365D01*
X89007540Y-30384600D01*
X89007540Y-30262609D01*
X89171226Y-30017636D01*
X89336927Y-29184600D01*
X89171226Y-28351564D01*
X89007540Y-28106591D01*
X89007540Y-27984600D01*
X88958257Y-27736835D01*
X88817909Y-27526791D01*
X88607865Y-27386443D01*
X88360100Y-27337160D01*
X88238109Y-27337160D01*
X87993136Y-27173474D01*
X87370379Y-27049600D01*
X87370375Y-27049600D01*
X87160100Y-27007774D01*
X86949825Y-27049600D01*
X86530721Y-27049600D01*
X85907964Y-27173474D01*
X85201751Y-27645351D01*
X84729874Y-28351564D01*
X84669309Y-28656045D01*
X78741070Y-34584285D01*
X78789100Y-34468330D01*
X78789100Y-33857670D01*
X78555410Y-33293493D01*
X78386192Y-33124275D01*
X78401865Y-33121157D01*
X78611909Y-32980809D01*
X78752257Y-32770765D01*
X78801540Y-32523000D01*
X78801540Y-30723000D01*
X78752257Y-30475235D01*
X78639100Y-30305885D01*
X78639100Y-27717312D01*
X78765300Y-27412639D01*
X78765300Y-26841761D01*
X78546834Y-26314338D01*
X78143162Y-25910666D01*
X78013132Y-25856806D01*
X78364877Y-25621777D01*
X78682040Y-25147109D01*
X78793413Y-24587200D01*
X78758325Y-24410800D01*
X84366955Y-24410800D01*
X85501737Y-25545583D01*
G36*
X56365900Y-24964278D02*
X56365900Y-25614722D01*
X56614814Y-26215653D01*
X57074747Y-26675586D01*
X57675678Y-26924500D01*
X58326122Y-26924500D01*
X58927053Y-26675586D01*
X58928139Y-26674500D01*
X59247115Y-26674500D01*
X59867100Y-27294486D01*
X59867101Y-34783113D01*
X59242339Y-35407875D01*
X58909423Y-35630323D01*
X58789000Y-35810549D01*
X58789000Y-34248601D01*
X58816132Y-34112199D01*
X58789000Y-33975797D01*
X58789000Y-33975793D01*
X58708641Y-33571800D01*
X58402528Y-33113671D01*
X58286887Y-33036402D01*
X56485900Y-31235415D01*
X56408629Y-31119771D01*
X56174454Y-30963300D01*
X56510286Y-30963300D01*
X56614814Y-31215653D01*
X57074747Y-31675586D01*
X57675678Y-31924500D01*
X58326122Y-31924500D01*
X58927053Y-31675586D01*
X59386986Y-31215653D01*
X59635900Y-30614722D01*
X59635900Y-29964278D01*
X59386986Y-29363347D01*
X58927053Y-28903414D01*
X58342769Y-28661395D01*
X58288229Y-28579771D01*
X57830100Y-28273659D01*
X57426107Y-28193300D01*
X57289700Y-28166167D01*
X57153293Y-28193300D01*
X53946651Y-28193300D01*
X54126877Y-28072877D01*
X54444040Y-27598209D01*
X54555413Y-27038300D01*
X54444040Y-26478391D01*
X54126877Y-26003723D01*
X54077300Y-25970597D01*
X54077300Y-25173585D01*
X54852786Y-24398100D01*
X56600419Y-24398100D01*
X56365900Y-24964278D01*
X56365900Y-24964278D01*
G37*
X56365900Y-24964278D02*
X56365900Y-25614722D01*
X56614814Y-26215653D01*
X57074747Y-26675586D01*
X57675678Y-26924500D01*
X58326122Y-26924500D01*
X58927053Y-26675586D01*
X58928139Y-26674500D01*
X59247115Y-26674500D01*
X59867100Y-27294486D01*
X59867101Y-34783113D01*
X59242339Y-35407875D01*
X58909423Y-35630323D01*
X58789000Y-35810549D01*
X58789000Y-34248601D01*
X58816132Y-34112199D01*
X58789000Y-33975797D01*
X58789000Y-33975793D01*
X58708641Y-33571800D01*
X58402528Y-33113671D01*
X58286887Y-33036402D01*
X56485900Y-31235415D01*
X56408629Y-31119771D01*
X56174454Y-30963300D01*
X56510286Y-30963300D01*
X56614814Y-31215653D01*
X57074747Y-31675586D01*
X57675678Y-31924500D01*
X58326122Y-31924500D01*
X58927053Y-31675586D01*
X59386986Y-31215653D01*
X59635900Y-30614722D01*
X59635900Y-29964278D01*
X59386986Y-29363347D01*
X58927053Y-28903414D01*
X58342769Y-28661395D01*
X58288229Y-28579771D01*
X57830100Y-28273659D01*
X57426107Y-28193300D01*
X57289700Y-28166167D01*
X57153293Y-28193300D01*
X53946651Y-28193300D01*
X54126877Y-28072877D01*
X54444040Y-27598209D01*
X54555413Y-27038300D01*
X54444040Y-26478391D01*
X54126877Y-26003723D01*
X54077300Y-25970597D01*
X54077300Y-25173585D01*
X54852786Y-24398100D01*
X56600419Y-24398100D01*
X56365900Y-24964278D01*
G36*
X15569131Y-66521625D02*
X15572398Y-66523694D01*
X15575516Y-66531221D01*
X16239995Y-67195700D01*
X15481300Y-67195700D01*
X15481300Y-66309583D01*
X15569131Y-66521625D01*
X15569131Y-66521625D01*
G37*
X15569131Y-66521625D02*
X15572398Y-66523694D01*
X15575516Y-66531221D01*
X16239995Y-67195700D01*
X15481300Y-67195700D01*
X15481300Y-66309583D01*
X15569131Y-66521625D01*
G36*
X16269675Y-19899831D02*
X16267606Y-19903098D01*
X16260079Y-19906216D01*
X15481300Y-20684995D01*
X15481300Y-19582600D01*
X17035536Y-19582600D01*
X16269675Y-19899831D01*
X16269675Y-19899831D01*
G37*
X16269675Y-19899831D02*
X16267606Y-19903098D01*
X16260079Y-19906216D01*
X15481300Y-20684995D01*
X15481300Y-19582600D01*
X17035536Y-19582600D01*
X16269675Y-19899831D01*
M02*
