%TF.GenerationSoftware,KiCad,Pcbnew,(5.0.0)*%
%TF.CreationDate,2018-07-29T14:19:51+09:00*%
%TF.ProjectId,mc33063buck1,6D6333333036336275636B312E6B6963,rev?*%
%TF.SameCoordinates,Original*%
%TF.FileFunction,Copper,L1,Top,Signal*%
%TF.FilePolarity,Positive*%
%FSLAX46Y46*%
G04 Gerber Fmt 4.6, Leading zero omitted, Abs format (unit mm)*
G04 Created by KiCad (PCBNEW (5.0.0)) date 07/29/18 14:19:51*
%MOMM*%
%LPD*%
G01*
G04 APERTURE LIST*
%ADD10C,0.100000*%
%ADD11C,2.400000*%
%ADD12O,2.400000X2.400000*%
%ADD13R,3.200000X3.200000*%
%ADD14O,3.200000X3.200000*%
%ADD15C,4.500000*%
%ADD16C,2.600000*%
%ADD17C,2.000000*%
%ADD18R,2.400000X2.400000*%
%ADD19R,1.800000X1.800000*%
%ADD20C,1.800000*%
%ADD21C,1.500000*%
%ADD22C,3.000000*%
%ADD23C,3.600000*%
%ADD24O,1.501140X2.499360*%
%ADD25C,1.600000*%
%ADD26O,1.600000X1.600000*%
%ADD27R,2.400000X1.600000*%
%ADD28O,2.400000X1.600000*%
%ADD29R,3.500000X3.500000*%
%ADD30C,1.620000*%
%ADD31C,1.500000*%
%ADD32C,0.254000*%
G04 APERTURE END LIST*
D10*
X101968300Y-18897600D02*
X14770100Y-18897600D01*
X101968300Y-67919600D02*
X101968300Y-18897600D01*
X14744700Y-67919600D02*
X101968300Y-67919600D01*
X14744700Y-18973800D02*
X14744700Y-67919600D01*
D11*
X22860000Y-59905900D03*
D12*
X50800000Y-59905900D03*
D13*
X71297800Y-38798500D03*
D14*
X71297800Y-23558500D03*
D15*
X17894300Y-22352000D03*
X97942400Y-64897000D03*
X98005900Y-22491700D03*
D16*
X96037400Y-30213300D03*
D17*
X58000900Y-30289500D03*
X58000900Y-25289500D03*
D18*
X87160100Y-29184600D03*
D11*
X87160100Y-24184600D03*
D18*
X36080700Y-29273500D03*
D11*
X36080700Y-24273500D03*
D13*
X65316100Y-38798500D03*
D14*
X65316100Y-23558500D03*
D19*
X77254100Y-31623000D03*
D20*
X77254100Y-34163000D03*
D16*
X18897600Y-50012600D03*
X18834100Y-29108400D03*
X96202500Y-55130700D03*
D21*
X93510100Y-39511700D03*
X93510100Y-42051700D03*
X93510100Y-44081700D03*
X93510100Y-46621700D03*
D22*
X96180100Y-36461700D03*
X96180100Y-50181700D03*
D23*
X78905100Y-61595000D03*
X78905100Y-50155000D03*
D24*
X59956700Y-53987700D03*
X62496700Y-53987700D03*
X57416700Y-53987700D03*
D25*
X57391300Y-42087800D03*
D26*
X59931300Y-42087800D03*
D25*
X67068700Y-44043600D03*
D26*
X64528700Y-44043600D03*
D25*
X57404000Y-36664900D03*
D26*
X59944000Y-36664900D03*
D25*
X77330300Y-27127200D03*
D26*
X77330300Y-24587200D03*
D25*
X80086200Y-43370500D03*
D26*
X82626200Y-43370500D03*
D25*
X85788500Y-43370500D03*
D26*
X88328500Y-43370500D03*
D25*
X80149700Y-38188900D03*
D26*
X82689700Y-38188900D03*
D25*
X85661500Y-38163500D03*
D26*
X88201500Y-38163500D03*
D27*
X52692300Y-34658300D03*
D28*
X45072300Y-27038300D03*
X52692300Y-32118300D03*
X45072300Y-29578300D03*
X52692300Y-29578300D03*
X45072300Y-32118300D03*
X52692300Y-27038300D03*
X45072300Y-34658300D03*
D29*
X33705800Y-37833300D03*
X27705800Y-37833300D03*
X30705800Y-42533300D03*
D15*
X18021300Y-64897000D03*
D11*
X22860000Y-49898300D03*
D12*
X50800000Y-49898300D03*
D30*
X44653200Y-42680900D03*
X47153200Y-40180900D03*
X44653200Y-37680900D03*
D31*
X88328500Y-43370500D02*
X88328500Y-38290500D01*
X88328500Y-38290500D02*
X88201500Y-38163500D01*
X80086200Y-43370500D02*
X80086200Y-44030900D01*
X80086200Y-44030900D02*
X78206600Y-45910500D01*
X67068700Y-44043600D02*
X76339700Y-44043600D01*
X78905100Y-46609000D02*
X78905100Y-50155000D01*
X76339700Y-44043600D02*
X78206600Y-45910500D01*
X78206600Y-45910500D02*
X78905100Y-46609000D01*
X45072300Y-27038300D02*
X41757600Y-27038300D01*
X43548300Y-38785800D02*
X44653200Y-37680900D01*
X41021000Y-38785800D02*
X43548300Y-38785800D01*
X40182800Y-37947600D02*
X41021000Y-38785800D01*
X40182800Y-28613100D02*
X40182800Y-37947600D01*
X41757600Y-27038300D02*
X40182800Y-28613100D01*
X45072300Y-27038300D02*
X47650400Y-27038300D01*
X55372000Y-42087800D02*
X57391300Y-42087800D01*
X48679100Y-35394900D02*
X55372000Y-42087800D01*
X48679100Y-28067000D02*
X48679100Y-35394900D01*
X47650400Y-27038300D02*
X48679100Y-28067000D01*
X64528700Y-44043600D02*
X64528700Y-44157900D01*
X64528700Y-44157900D02*
X63512700Y-45173900D01*
X63512700Y-45173900D02*
X54673500Y-45173900D01*
X54673500Y-45173900D02*
X49680500Y-40180900D01*
X49680500Y-40180900D02*
X47153200Y-40180900D01*
D32*
G36*
X101206300Y-67195700D02*
X99723705Y-67195700D01*
X100388184Y-66531221D01*
X100391302Y-66523694D01*
X100394569Y-66521625D01*
X100610009Y-65995689D01*
X100827400Y-65470862D01*
X100827400Y-65464991D01*
X100829627Y-65459554D01*
X100827400Y-64891183D01*
X100827400Y-64323138D01*
X100825153Y-64317713D01*
X100825130Y-64311838D01*
X100394569Y-63272375D01*
X100391302Y-63270306D01*
X100388184Y-63262779D01*
X99576621Y-62451216D01*
X99569094Y-62448098D01*
X99567025Y-62444831D01*
X99041089Y-62229391D01*
X98516262Y-62012000D01*
X98510391Y-62012000D01*
X98504954Y-62009773D01*
X97936583Y-62012000D01*
X97368538Y-62012000D01*
X97363113Y-62014247D01*
X97357238Y-62014270D01*
X96317775Y-62444831D01*
X96315706Y-62448098D01*
X96308179Y-62451216D01*
X95496616Y-63262779D01*
X95493498Y-63270306D01*
X95490231Y-63272375D01*
X95274791Y-63798311D01*
X95057400Y-64323138D01*
X95057400Y-64329009D01*
X95055173Y-64334446D01*
X95057400Y-64902817D01*
X95057400Y-65470862D01*
X95059647Y-65476287D01*
X95059670Y-65482162D01*
X95490231Y-66521625D01*
X95493498Y-66523694D01*
X95496616Y-66531221D01*
X96161095Y-67195700D01*
X19802605Y-67195700D01*
X20467084Y-66531221D01*
X20470202Y-66523694D01*
X20473469Y-66521625D01*
X20688909Y-65995689D01*
X20906300Y-65470862D01*
X20906300Y-65464991D01*
X20908527Y-65459554D01*
X20906300Y-64891183D01*
X20906300Y-64323138D01*
X20904053Y-64317713D01*
X20904030Y-64311838D01*
X20473469Y-63272375D01*
X20470202Y-63270306D01*
X20467084Y-63262779D01*
X19655521Y-62451216D01*
X19647994Y-62448098D01*
X19645925Y-62444831D01*
X19119989Y-62229391D01*
X18595162Y-62012000D01*
X18589291Y-62012000D01*
X18583854Y-62009773D01*
X18015483Y-62012000D01*
X17447438Y-62012000D01*
X17442013Y-62014247D01*
X17436138Y-62014270D01*
X16396675Y-62444831D01*
X16394606Y-62448098D01*
X16387079Y-62451216D01*
X15575516Y-63262779D01*
X15572398Y-63270306D01*
X15569131Y-63272375D01*
X15481300Y-63486789D01*
X15481300Y-59540896D01*
X21025000Y-59540896D01*
X21025000Y-60270904D01*
X21304362Y-60945344D01*
X21820556Y-61461538D01*
X22494996Y-61740900D01*
X23225004Y-61740900D01*
X23899444Y-61461538D01*
X24415638Y-60945344D01*
X24695000Y-60270904D01*
X24695000Y-59905900D01*
X48929051Y-59905900D01*
X49071469Y-60621881D01*
X49477039Y-61228861D01*
X50084019Y-61634431D01*
X50619273Y-61740900D01*
X50980727Y-61740900D01*
X51515981Y-61634431D01*
X52122961Y-61228861D01*
X52201948Y-61110648D01*
X76470100Y-61110648D01*
X76470100Y-62079352D01*
X76840807Y-62974316D01*
X77525784Y-63659293D01*
X78420748Y-64030000D01*
X79389452Y-64030000D01*
X80284416Y-63659293D01*
X80969393Y-62974316D01*
X81340100Y-62079352D01*
X81340100Y-61110648D01*
X80969393Y-60215684D01*
X80284416Y-59530707D01*
X79389452Y-59160000D01*
X78420748Y-59160000D01*
X77525784Y-59530707D01*
X76840807Y-60215684D01*
X76470100Y-61110648D01*
X52201948Y-61110648D01*
X52528531Y-60621881D01*
X52670949Y-59905900D01*
X52528531Y-59189919D01*
X52122961Y-58582939D01*
X51515981Y-58177369D01*
X50980727Y-58070900D01*
X50619273Y-58070900D01*
X50084019Y-58177369D01*
X49477039Y-58582939D01*
X49071469Y-59189919D01*
X48929051Y-59905900D01*
X24695000Y-59905900D01*
X24695000Y-59540896D01*
X24415638Y-58866456D01*
X23899444Y-58350262D01*
X23225004Y-58070900D01*
X22494996Y-58070900D01*
X21820556Y-58350262D01*
X21304362Y-58866456D01*
X21025000Y-59540896D01*
X15481300Y-59540896D01*
X15481300Y-53352127D01*
X56031130Y-53352127D01*
X56031130Y-54623272D01*
X56111522Y-55027431D01*
X56417760Y-55485749D01*
X56876078Y-55791988D01*
X57416700Y-55899524D01*
X57957321Y-55791988D01*
X58415639Y-55485750D01*
X58686700Y-55080079D01*
X58957760Y-55485749D01*
X59416078Y-55791988D01*
X59956700Y-55899524D01*
X60497321Y-55791988D01*
X60955639Y-55485750D01*
X61226700Y-55080079D01*
X61497760Y-55485749D01*
X61956078Y-55791988D01*
X62496700Y-55899524D01*
X63037321Y-55791988D01*
X63495639Y-55485750D01*
X63801878Y-55027432D01*
X63857896Y-54745805D01*
X94267500Y-54745805D01*
X94267500Y-55515595D01*
X94562086Y-56226790D01*
X95106410Y-56771114D01*
X95817605Y-57065700D01*
X96587395Y-57065700D01*
X97298590Y-56771114D01*
X97842914Y-56226790D01*
X98137500Y-55515595D01*
X98137500Y-54745805D01*
X97842914Y-54034610D01*
X97298590Y-53490286D01*
X96587395Y-53195700D01*
X95817605Y-53195700D01*
X95106410Y-53490286D01*
X94562086Y-54034610D01*
X94267500Y-54745805D01*
X63857896Y-54745805D01*
X63882270Y-54623273D01*
X63882270Y-53352127D01*
X63801878Y-52947968D01*
X63495640Y-52489650D01*
X63037322Y-52183412D01*
X62496700Y-52075876D01*
X61956079Y-52183412D01*
X61497761Y-52489650D01*
X61226700Y-52895320D01*
X60955640Y-52489650D01*
X60497322Y-52183412D01*
X59956700Y-52075876D01*
X59416079Y-52183412D01*
X58957761Y-52489650D01*
X58686700Y-52895320D01*
X58415640Y-52489650D01*
X57957322Y-52183412D01*
X57416700Y-52075876D01*
X56876079Y-52183412D01*
X56417761Y-52489650D01*
X56111522Y-52947968D01*
X56031130Y-53352127D01*
X15481300Y-53352127D01*
X15481300Y-49627705D01*
X16962600Y-49627705D01*
X16962600Y-50397495D01*
X17257186Y-51108690D01*
X17801510Y-51653014D01*
X18512705Y-51947600D01*
X19282495Y-51947600D01*
X19993690Y-51653014D01*
X20538014Y-51108690D01*
X20832600Y-50397495D01*
X20832600Y-49627705D01*
X20793495Y-49533296D01*
X21025000Y-49533296D01*
X21025000Y-50263304D01*
X21304362Y-50937744D01*
X21820556Y-51453938D01*
X22494996Y-51733300D01*
X23225004Y-51733300D01*
X23899444Y-51453938D01*
X24415638Y-50937744D01*
X24695000Y-50263304D01*
X24695000Y-49898300D01*
X48929051Y-49898300D01*
X49071469Y-50614281D01*
X49477039Y-51221261D01*
X50084019Y-51626831D01*
X50619273Y-51733300D01*
X50980727Y-51733300D01*
X51515981Y-51626831D01*
X52122961Y-51221261D01*
X52528531Y-50614281D01*
X52670949Y-49898300D01*
X52528531Y-49182319D01*
X52122961Y-48575339D01*
X51515981Y-48169769D01*
X50980727Y-48063300D01*
X50619273Y-48063300D01*
X50084019Y-48169769D01*
X49477039Y-48575339D01*
X49071469Y-49182319D01*
X48929051Y-49898300D01*
X24695000Y-49898300D01*
X24695000Y-49533296D01*
X24415638Y-48858856D01*
X23899444Y-48342662D01*
X23225004Y-48063300D01*
X22494996Y-48063300D01*
X21820556Y-48342662D01*
X21304362Y-48858856D01*
X21025000Y-49533296D01*
X20793495Y-49533296D01*
X20538014Y-48916510D01*
X19993690Y-48372186D01*
X19282495Y-48077600D01*
X18512705Y-48077600D01*
X17801510Y-48372186D01*
X17257186Y-48916510D01*
X16962600Y-49627705D01*
X15481300Y-49627705D01*
X15481300Y-36083300D01*
X25308360Y-36083300D01*
X25308360Y-39583300D01*
X25357643Y-39831065D01*
X25497991Y-40041109D01*
X25708035Y-40181457D01*
X25955800Y-40230740D01*
X28639795Y-40230740D01*
X28497991Y-40325491D01*
X28357643Y-40535535D01*
X28308360Y-40783300D01*
X28308360Y-44283300D01*
X28357643Y-44531065D01*
X28497991Y-44741109D01*
X28708035Y-44881457D01*
X28955800Y-44930740D01*
X32455800Y-44930740D01*
X32703565Y-44881457D01*
X32913609Y-44741109D01*
X33053957Y-44531065D01*
X33103240Y-44283300D01*
X33103240Y-42393472D01*
X43208200Y-42393472D01*
X43208200Y-42968328D01*
X43428188Y-43499427D01*
X43834673Y-43905912D01*
X44365772Y-44125900D01*
X44940628Y-44125900D01*
X45471727Y-43905912D01*
X45878212Y-43499427D01*
X46098200Y-42968328D01*
X46098200Y-42393472D01*
X45878212Y-41862373D01*
X45471727Y-41455888D01*
X44940628Y-41235900D01*
X44365772Y-41235900D01*
X43834673Y-41455888D01*
X43428188Y-41862373D01*
X43208200Y-42393472D01*
X33103240Y-42393472D01*
X33103240Y-40783300D01*
X33053957Y-40535535D01*
X32913609Y-40325491D01*
X32771805Y-40230740D01*
X35455800Y-40230740D01*
X35703565Y-40181457D01*
X35913609Y-40041109D01*
X36053957Y-39831065D01*
X36103240Y-39583300D01*
X36103240Y-36083300D01*
X36053957Y-35835535D01*
X35913609Y-35625491D01*
X35703565Y-35485143D01*
X35455800Y-35435860D01*
X31955800Y-35435860D01*
X31708035Y-35485143D01*
X31497991Y-35625491D01*
X31357643Y-35835535D01*
X31308360Y-36083300D01*
X31308360Y-39583300D01*
X31357643Y-39831065D01*
X31497991Y-40041109D01*
X31639795Y-40135860D01*
X29771805Y-40135860D01*
X29913609Y-40041109D01*
X30053957Y-39831065D01*
X30103240Y-39583300D01*
X30103240Y-36083300D01*
X30053957Y-35835535D01*
X29913609Y-35625491D01*
X29703565Y-35485143D01*
X29455800Y-35435860D01*
X25955800Y-35435860D01*
X25708035Y-35485143D01*
X25497991Y-35625491D01*
X25357643Y-35835535D01*
X25308360Y-36083300D01*
X15481300Y-36083300D01*
X15481300Y-28723505D01*
X16899100Y-28723505D01*
X16899100Y-29493295D01*
X17193686Y-30204490D01*
X17738010Y-30748814D01*
X18449205Y-31043400D01*
X19218995Y-31043400D01*
X19930190Y-30748814D01*
X20474514Y-30204490D01*
X20769100Y-29493295D01*
X20769100Y-28723505D01*
X20499860Y-28073500D01*
X34233260Y-28073500D01*
X34233260Y-30473500D01*
X34282543Y-30721265D01*
X34422891Y-30931309D01*
X34632935Y-31071657D01*
X34880700Y-31120940D01*
X37280700Y-31120940D01*
X37528465Y-31071657D01*
X37738509Y-30931309D01*
X37878857Y-30721265D01*
X37928140Y-30473500D01*
X37928140Y-28613100D01*
X38770667Y-28613100D01*
X38797800Y-28749507D01*
X38797801Y-37811188D01*
X38770667Y-37947600D01*
X38878159Y-38487999D01*
X39083892Y-38795900D01*
X39184272Y-38946129D01*
X39299913Y-39023398D01*
X39945200Y-39668685D01*
X40022471Y-39784329D01*
X40480600Y-40090441D01*
X41021000Y-40197933D01*
X41157407Y-40170800D01*
X43411893Y-40170800D01*
X43548300Y-40197933D01*
X43684707Y-40170800D01*
X44088700Y-40090441D01*
X44546829Y-39784329D01*
X44624099Y-39668686D01*
X45326874Y-38965912D01*
X45471727Y-38905912D01*
X45878212Y-38499427D01*
X46098200Y-37968328D01*
X46098200Y-37393472D01*
X45878212Y-36862373D01*
X45471727Y-36455888D01*
X44940628Y-36235900D01*
X44365772Y-36235900D01*
X43834673Y-36455888D01*
X43428188Y-36862373D01*
X43368188Y-37007226D01*
X42974615Y-37400800D01*
X41594685Y-37400800D01*
X41567800Y-37373915D01*
X41567800Y-29186785D01*
X42331286Y-28423300D01*
X43817949Y-28423300D01*
X43637723Y-28543723D01*
X43320560Y-29018391D01*
X43209187Y-29578300D01*
X43320560Y-30138209D01*
X43637723Y-30612877D01*
X43990058Y-30848300D01*
X43637723Y-31083723D01*
X43320560Y-31558391D01*
X43209187Y-32118300D01*
X43320560Y-32678209D01*
X43637723Y-33152877D01*
X43990058Y-33388300D01*
X43637723Y-33623723D01*
X43320560Y-34098391D01*
X43209187Y-34658300D01*
X43320560Y-35218209D01*
X43637723Y-35692877D01*
X44112391Y-36010040D01*
X44530967Y-36093300D01*
X45613633Y-36093300D01*
X46032209Y-36010040D01*
X46506877Y-35692877D01*
X46824040Y-35218209D01*
X46935413Y-34658300D01*
X46824040Y-34098391D01*
X46506877Y-33623723D01*
X46154542Y-33388300D01*
X46506877Y-33152877D01*
X46824040Y-32678209D01*
X46935413Y-32118300D01*
X46824040Y-31558391D01*
X46506877Y-31083723D01*
X46154542Y-30848300D01*
X46506877Y-30612877D01*
X46824040Y-30138209D01*
X46935413Y-29578300D01*
X46824040Y-29018391D01*
X46506877Y-28543723D01*
X46326651Y-28423300D01*
X47076715Y-28423300D01*
X47294100Y-28640685D01*
X47294101Y-35258488D01*
X47266967Y-35394900D01*
X47374459Y-35935299D01*
X47603303Y-36277788D01*
X47680572Y-36393429D01*
X47796212Y-36470697D01*
X50197025Y-38871510D01*
X49816907Y-38795900D01*
X49680500Y-38768767D01*
X49544093Y-38795900D01*
X47585481Y-38795900D01*
X47440628Y-38735900D01*
X46865772Y-38735900D01*
X46334673Y-38955888D01*
X45928188Y-39362373D01*
X45708200Y-39893472D01*
X45708200Y-40468328D01*
X45928188Y-40999427D01*
X46334673Y-41405912D01*
X46865772Y-41625900D01*
X47440628Y-41625900D01*
X47585481Y-41565900D01*
X49106815Y-41565900D01*
X53597700Y-46056785D01*
X53674971Y-46172429D01*
X54133100Y-46478541D01*
X54537093Y-46558900D01*
X54673499Y-46586033D01*
X54809905Y-46558900D01*
X63376293Y-46558900D01*
X63512700Y-46586033D01*
X63649107Y-46558900D01*
X64053100Y-46478541D01*
X64511229Y-46172429D01*
X64588499Y-46056786D01*
X65411588Y-45233698D01*
X65527229Y-45156429D01*
X65606601Y-45037641D01*
X65804520Y-44741434D01*
X65852166Y-44856462D01*
X66255838Y-45260134D01*
X66783261Y-45478600D01*
X67354139Y-45478600D01*
X67474850Y-45428600D01*
X75766015Y-45428600D01*
X77130805Y-46793390D01*
X77208072Y-46909028D01*
X77323710Y-46986295D01*
X77520100Y-47182685D01*
X77520100Y-48096391D01*
X76840807Y-48775684D01*
X76470100Y-49670648D01*
X76470100Y-50639352D01*
X76840807Y-51534316D01*
X77525784Y-52219293D01*
X78420748Y-52590000D01*
X79389452Y-52590000D01*
X80284416Y-52219293D01*
X80969393Y-51534316D01*
X81340100Y-50639352D01*
X81340100Y-49757022D01*
X94045100Y-49757022D01*
X94045100Y-50606378D01*
X94370134Y-51391080D01*
X94970720Y-51991666D01*
X95755422Y-52316700D01*
X96604778Y-52316700D01*
X97389480Y-51991666D01*
X97990066Y-51391080D01*
X98315100Y-50606378D01*
X98315100Y-49757022D01*
X97990066Y-48972320D01*
X97389480Y-48371734D01*
X96604778Y-48046700D01*
X95755422Y-48046700D01*
X94970720Y-48371734D01*
X94370134Y-48972320D01*
X94045100Y-49757022D01*
X81340100Y-49757022D01*
X81340100Y-49670648D01*
X80969393Y-48775684D01*
X80290100Y-48096391D01*
X80290100Y-46745405D01*
X80317233Y-46608999D01*
X80245763Y-46249696D01*
X80209741Y-46068600D01*
X80128608Y-45947177D01*
X80969088Y-45106698D01*
X81084729Y-45029429D01*
X81390841Y-44571300D01*
X81433429Y-44357194D01*
X81462380Y-44211651D01*
X81591623Y-44405077D01*
X82066291Y-44722240D01*
X82484867Y-44805500D01*
X82767533Y-44805500D01*
X83186109Y-44722240D01*
X83660777Y-44405077D01*
X83977940Y-43930409D01*
X84089313Y-43370500D01*
X83977940Y-42810591D01*
X83660777Y-42335923D01*
X83186109Y-42018760D01*
X82767533Y-41935500D01*
X82484867Y-41935500D01*
X82066291Y-42018760D01*
X81591623Y-42335923D01*
X81356594Y-42687668D01*
X81302734Y-42557638D01*
X80899062Y-42153966D01*
X80371639Y-41935500D01*
X79800761Y-41935500D01*
X79273338Y-42153966D01*
X78869666Y-42557638D01*
X78651200Y-43085061D01*
X78651200Y-43507214D01*
X78206600Y-43951815D01*
X77415500Y-43160715D01*
X77338229Y-43045071D01*
X76880100Y-42738959D01*
X76476107Y-42658600D01*
X76339700Y-42631467D01*
X76203293Y-42658600D01*
X67474850Y-42658600D01*
X67354139Y-42608600D01*
X66783261Y-42608600D01*
X66255838Y-42827066D01*
X65852166Y-43230738D01*
X65798306Y-43360768D01*
X65563277Y-43009023D01*
X65088609Y-42691860D01*
X64670033Y-42608600D01*
X64387367Y-42608600D01*
X63968791Y-42691860D01*
X63494123Y-43009023D01*
X63176960Y-43483691D01*
X63160258Y-43567656D01*
X62939015Y-43788900D01*
X55247185Y-43788900D01*
X54855475Y-43397190D01*
X55372000Y-43499933D01*
X55508407Y-43472800D01*
X56985150Y-43472800D01*
X57105861Y-43522800D01*
X57676739Y-43522800D01*
X58204162Y-43304334D01*
X58607834Y-42900662D01*
X58661694Y-42770632D01*
X58896723Y-43122377D01*
X59371391Y-43439540D01*
X59789967Y-43522800D01*
X60072633Y-43522800D01*
X60491209Y-43439540D01*
X60965877Y-43122377D01*
X61283040Y-42647709D01*
X61394413Y-42087800D01*
X61283040Y-41527891D01*
X60965877Y-41053223D01*
X60491209Y-40736060D01*
X60072633Y-40652800D01*
X59789967Y-40652800D01*
X59371391Y-40736060D01*
X58896723Y-41053223D01*
X58661694Y-41404968D01*
X58607834Y-41274938D01*
X58204162Y-40871266D01*
X57676739Y-40652800D01*
X57105861Y-40652800D01*
X56985150Y-40702800D01*
X55945686Y-40702800D01*
X51622347Y-36379461D01*
X55969000Y-36379461D01*
X55969000Y-36950339D01*
X56187466Y-37477762D01*
X56591138Y-37881434D01*
X57118561Y-38099900D01*
X57689439Y-38099900D01*
X58216862Y-37881434D01*
X58620534Y-37477762D01*
X58674394Y-37347732D01*
X58909423Y-37699477D01*
X59384091Y-38016640D01*
X59802667Y-38099900D01*
X60085333Y-38099900D01*
X60503909Y-38016640D01*
X60978577Y-37699477D01*
X61295740Y-37224809D01*
X61300973Y-37198500D01*
X63068660Y-37198500D01*
X63068660Y-40398500D01*
X63117943Y-40646265D01*
X63258291Y-40856309D01*
X63468335Y-40996657D01*
X63716100Y-41045940D01*
X66916100Y-41045940D01*
X67163865Y-40996657D01*
X67373909Y-40856309D01*
X67514257Y-40646265D01*
X67563540Y-40398500D01*
X67563540Y-37198500D01*
X69050360Y-37198500D01*
X69050360Y-40398500D01*
X69099643Y-40646265D01*
X69239991Y-40856309D01*
X69450035Y-40996657D01*
X69697800Y-41045940D01*
X72897800Y-41045940D01*
X73145565Y-40996657D01*
X73355609Y-40856309D01*
X73495957Y-40646265D01*
X73545240Y-40398500D01*
X73545240Y-37903461D01*
X78714700Y-37903461D01*
X78714700Y-38474339D01*
X78933166Y-39001762D01*
X79336838Y-39405434D01*
X79864261Y-39623900D01*
X80435139Y-39623900D01*
X80962562Y-39405434D01*
X81366234Y-39001762D01*
X81420094Y-38871732D01*
X81655123Y-39223477D01*
X82129791Y-39540640D01*
X82548367Y-39623900D01*
X82831033Y-39623900D01*
X83249609Y-39540640D01*
X83724277Y-39223477D01*
X84041440Y-38748809D01*
X84152813Y-38188900D01*
X84090984Y-37878061D01*
X84226500Y-37878061D01*
X84226500Y-38448939D01*
X84444966Y-38976362D01*
X84848638Y-39380034D01*
X85376061Y-39598500D01*
X85946939Y-39598500D01*
X86474362Y-39380034D01*
X86878034Y-38976362D01*
X86931894Y-38846332D01*
X86943501Y-38863702D01*
X86943500Y-42496104D01*
X86601362Y-42153966D01*
X86073939Y-41935500D01*
X85503061Y-41935500D01*
X84975638Y-42153966D01*
X84571966Y-42557638D01*
X84353500Y-43085061D01*
X84353500Y-43655939D01*
X84571966Y-44183362D01*
X84975638Y-44587034D01*
X85503061Y-44805500D01*
X86073939Y-44805500D01*
X86601362Y-44587034D01*
X87005034Y-44183362D01*
X87058894Y-44053332D01*
X87293923Y-44405077D01*
X87768591Y-44722240D01*
X88187167Y-44805500D01*
X88469833Y-44805500D01*
X88888409Y-44722240D01*
X89363077Y-44405077D01*
X89680240Y-43930409D01*
X89791613Y-43370500D01*
X89713500Y-42977800D01*
X89713500Y-39236206D01*
X92125100Y-39236206D01*
X92125100Y-39787194D01*
X92335953Y-40296240D01*
X92725560Y-40685847D01*
X92956970Y-40781700D01*
X92725560Y-40877553D01*
X92335953Y-41267160D01*
X92125100Y-41776206D01*
X92125100Y-42327194D01*
X92335953Y-42836240D01*
X92566413Y-43066700D01*
X92335953Y-43297160D01*
X92125100Y-43806206D01*
X92125100Y-44357194D01*
X92335953Y-44866240D01*
X92725560Y-45255847D01*
X92956970Y-45351700D01*
X92725560Y-45447553D01*
X92335953Y-45837160D01*
X92125100Y-46346206D01*
X92125100Y-46897194D01*
X92335953Y-47406240D01*
X92725560Y-47795847D01*
X93234606Y-48006700D01*
X93785594Y-48006700D01*
X94294640Y-47795847D01*
X94684247Y-47406240D01*
X94895100Y-46897194D01*
X94895100Y-46346206D01*
X94684247Y-45837160D01*
X94294640Y-45447553D01*
X94063230Y-45351700D01*
X94294640Y-45255847D01*
X94684247Y-44866240D01*
X94895100Y-44357194D01*
X94895100Y-43806206D01*
X94684247Y-43297160D01*
X94453787Y-43066700D01*
X94684247Y-42836240D01*
X94895100Y-42327194D01*
X94895100Y-41776206D01*
X94684247Y-41267160D01*
X94294640Y-40877553D01*
X94063230Y-40781700D01*
X94294640Y-40685847D01*
X94684247Y-40296240D01*
X94895100Y-39787194D01*
X94895100Y-39236206D01*
X94684247Y-38727160D01*
X94294640Y-38337553D01*
X93785594Y-38126700D01*
X93234606Y-38126700D01*
X92725560Y-38337553D01*
X92335953Y-38727160D01*
X92125100Y-39236206D01*
X89713500Y-39236206D01*
X89713500Y-38426905D01*
X89740633Y-38290499D01*
X89663646Y-37903461D01*
X89633141Y-37750100D01*
X89560867Y-37641934D01*
X89553240Y-37603591D01*
X89236077Y-37128923D01*
X88761409Y-36811760D01*
X88342833Y-36728500D01*
X88060167Y-36728500D01*
X87641591Y-36811760D01*
X87166923Y-37128923D01*
X86931894Y-37480668D01*
X86878034Y-37350638D01*
X86474362Y-36946966D01*
X85946939Y-36728500D01*
X85376061Y-36728500D01*
X84848638Y-36946966D01*
X84444966Y-37350638D01*
X84226500Y-37878061D01*
X84090984Y-37878061D01*
X84041440Y-37628991D01*
X83724277Y-37154323D01*
X83249609Y-36837160D01*
X82831033Y-36753900D01*
X82548367Y-36753900D01*
X82129791Y-36837160D01*
X81655123Y-37154323D01*
X81420094Y-37506068D01*
X81366234Y-37376038D01*
X80962562Y-36972366D01*
X80435139Y-36753900D01*
X79864261Y-36753900D01*
X79336838Y-36972366D01*
X78933166Y-37376038D01*
X78714700Y-37903461D01*
X73545240Y-37903461D01*
X73545240Y-37198500D01*
X73495957Y-36950735D01*
X73355609Y-36740691D01*
X73145565Y-36600343D01*
X72897800Y-36551060D01*
X69697800Y-36551060D01*
X69450035Y-36600343D01*
X69239991Y-36740691D01*
X69099643Y-36950735D01*
X69050360Y-37198500D01*
X67563540Y-37198500D01*
X67514257Y-36950735D01*
X67373909Y-36740691D01*
X67163865Y-36600343D01*
X66916100Y-36551060D01*
X63716100Y-36551060D01*
X63468335Y-36600343D01*
X63258291Y-36740691D01*
X63117943Y-36950735D01*
X63068660Y-37198500D01*
X61300973Y-37198500D01*
X61407113Y-36664900D01*
X61295740Y-36104991D01*
X61250325Y-36037022D01*
X94045100Y-36037022D01*
X94045100Y-36886378D01*
X94370134Y-37671080D01*
X94970720Y-38271666D01*
X95755422Y-38596700D01*
X96604778Y-38596700D01*
X97389480Y-38271666D01*
X97990066Y-37671080D01*
X98315100Y-36886378D01*
X98315100Y-36037022D01*
X97990066Y-35252320D01*
X97389480Y-34651734D01*
X96604778Y-34326700D01*
X95755422Y-34326700D01*
X94970720Y-34651734D01*
X94370134Y-35252320D01*
X94045100Y-36037022D01*
X61250325Y-36037022D01*
X60978577Y-35630323D01*
X60503909Y-35313160D01*
X60085333Y-35229900D01*
X59802667Y-35229900D01*
X59384091Y-35313160D01*
X58909423Y-35630323D01*
X58674394Y-35982068D01*
X58620534Y-35852038D01*
X58216862Y-35448366D01*
X57689439Y-35229900D01*
X57118561Y-35229900D01*
X56591138Y-35448366D01*
X56187466Y-35852038D01*
X55969000Y-36379461D01*
X51622347Y-36379461D01*
X51312951Y-36070066D01*
X51492300Y-36105740D01*
X53892300Y-36105740D01*
X54140065Y-36056457D01*
X54350109Y-35916109D01*
X54490457Y-35706065D01*
X54539740Y-35458300D01*
X54539740Y-33858300D01*
X54490457Y-33610535D01*
X54350109Y-33400491D01*
X54140065Y-33260143D01*
X54006194Y-33233515D01*
X54126877Y-33152877D01*
X54444040Y-32678209D01*
X54555413Y-32118300D01*
X54444040Y-31558391D01*
X54126877Y-31083723D01*
X53774542Y-30848300D01*
X54126877Y-30612877D01*
X54444040Y-30138209D01*
X54478637Y-29964278D01*
X56365900Y-29964278D01*
X56365900Y-30614722D01*
X56614814Y-31215653D01*
X57074747Y-31675586D01*
X57675678Y-31924500D01*
X58326122Y-31924500D01*
X58927053Y-31675586D01*
X59386986Y-31215653D01*
X59591049Y-30723000D01*
X75706660Y-30723000D01*
X75706660Y-32523000D01*
X75755943Y-32770765D01*
X75896291Y-32980809D01*
X76106335Y-33121157D01*
X76122008Y-33124275D01*
X75952790Y-33293493D01*
X75719100Y-33857670D01*
X75719100Y-34468330D01*
X75952790Y-35032507D01*
X76384593Y-35464310D01*
X76948770Y-35698000D01*
X77559430Y-35698000D01*
X78123607Y-35464310D01*
X78555410Y-35032507D01*
X78789100Y-34468330D01*
X78789100Y-33857670D01*
X78555410Y-33293493D01*
X78386192Y-33124275D01*
X78401865Y-33121157D01*
X78611909Y-32980809D01*
X78752257Y-32770765D01*
X78801540Y-32523000D01*
X78801540Y-30723000D01*
X78752257Y-30475235D01*
X78611909Y-30265191D01*
X78401865Y-30124843D01*
X78154100Y-30075560D01*
X76354100Y-30075560D01*
X76106335Y-30124843D01*
X75896291Y-30265191D01*
X75755943Y-30475235D01*
X75706660Y-30723000D01*
X59591049Y-30723000D01*
X59635900Y-30614722D01*
X59635900Y-29964278D01*
X59386986Y-29363347D01*
X58927053Y-28903414D01*
X58326122Y-28654500D01*
X57675678Y-28654500D01*
X57074747Y-28903414D01*
X56614814Y-29363347D01*
X56365900Y-29964278D01*
X54478637Y-29964278D01*
X54555413Y-29578300D01*
X54444040Y-29018391D01*
X54126877Y-28543723D01*
X53774542Y-28308300D01*
X54126877Y-28072877D01*
X54444040Y-27598209D01*
X54555413Y-27038300D01*
X54444040Y-26478391D01*
X54126877Y-26003723D01*
X53652209Y-25686560D01*
X53233633Y-25603300D01*
X52150967Y-25603300D01*
X51732391Y-25686560D01*
X51257723Y-26003723D01*
X50940560Y-26478391D01*
X50829187Y-27038300D01*
X50940560Y-27598209D01*
X51257723Y-28072877D01*
X51610058Y-28308300D01*
X51257723Y-28543723D01*
X50940560Y-29018391D01*
X50829187Y-29578300D01*
X50940560Y-30138209D01*
X51257723Y-30612877D01*
X51610058Y-30848300D01*
X51257723Y-31083723D01*
X50940560Y-31558391D01*
X50829187Y-32118300D01*
X50940560Y-32678209D01*
X51257723Y-33152877D01*
X51378406Y-33233515D01*
X51244535Y-33260143D01*
X51034491Y-33400491D01*
X50894143Y-33610535D01*
X50844860Y-33858300D01*
X50844860Y-35458300D01*
X50880534Y-35637649D01*
X50064100Y-34821215D01*
X50064100Y-28203401D01*
X50091232Y-28066999D01*
X50064100Y-27930597D01*
X50064100Y-27930593D01*
X49983741Y-27526600D01*
X49677628Y-27068471D01*
X49561987Y-26991202D01*
X48726200Y-26155415D01*
X48648929Y-26039771D01*
X48190800Y-25733659D01*
X47786807Y-25653300D01*
X47650400Y-25626167D01*
X47513993Y-25653300D01*
X45865000Y-25653300D01*
X45613633Y-25603300D01*
X44530967Y-25603300D01*
X44279600Y-25653300D01*
X41894007Y-25653300D01*
X41757600Y-25626167D01*
X41621193Y-25653300D01*
X41217200Y-25733659D01*
X40759071Y-26039771D01*
X40681802Y-26155412D01*
X39299912Y-27537303D01*
X39184271Y-27614572D01*
X38979397Y-27921188D01*
X38878159Y-28072701D01*
X38770667Y-28613100D01*
X37928140Y-28613100D01*
X37928140Y-28073500D01*
X37878857Y-27825735D01*
X37738509Y-27615691D01*
X37528465Y-27475343D01*
X37280700Y-27426060D01*
X34880700Y-27426060D01*
X34632935Y-27475343D01*
X34422891Y-27615691D01*
X34282543Y-27825735D01*
X34233260Y-28073500D01*
X20499860Y-28073500D01*
X20474514Y-28012310D01*
X19930190Y-27467986D01*
X19218995Y-27173400D01*
X18449205Y-27173400D01*
X17738010Y-27467986D01*
X17193686Y-28012310D01*
X16899100Y-28723505D01*
X15481300Y-28723505D01*
X15481300Y-24019005D01*
X16260079Y-24797784D01*
X16267606Y-24800902D01*
X16269675Y-24804169D01*
X16795611Y-25019609D01*
X17320438Y-25237000D01*
X17326309Y-25237000D01*
X17331746Y-25239227D01*
X17900117Y-25237000D01*
X18468162Y-25237000D01*
X18473587Y-25234753D01*
X18479462Y-25234730D01*
X19518925Y-24804169D01*
X19520994Y-24800902D01*
X19528521Y-24797784D01*
X20340084Y-23986221D01*
X20343202Y-23978694D01*
X20346469Y-23976625D01*
X20374376Y-23908496D01*
X34245700Y-23908496D01*
X34245700Y-24638504D01*
X34525062Y-25312944D01*
X35041256Y-25829138D01*
X35715696Y-26108500D01*
X36445704Y-26108500D01*
X37120144Y-25829138D01*
X37636338Y-25312944D01*
X37780760Y-24964278D01*
X56365900Y-24964278D01*
X56365900Y-25614722D01*
X56614814Y-26215653D01*
X57074747Y-26675586D01*
X57675678Y-26924500D01*
X58326122Y-26924500D01*
X58927053Y-26675586D01*
X59386986Y-26215653D01*
X59635900Y-25614722D01*
X59635900Y-24964278D01*
X59386986Y-24363347D01*
X58927053Y-23903414D01*
X58326122Y-23654500D01*
X57675678Y-23654500D01*
X57074747Y-23903414D01*
X56614814Y-24363347D01*
X56365900Y-24964278D01*
X37780760Y-24964278D01*
X37915700Y-24638504D01*
X37915700Y-23908496D01*
X37770728Y-23558500D01*
X63037314Y-23558500D01*
X63210776Y-24430554D01*
X63704755Y-25169845D01*
X64444046Y-25663824D01*
X65095972Y-25793500D01*
X65536228Y-25793500D01*
X66188154Y-25663824D01*
X66927445Y-25169845D01*
X67421424Y-24430554D01*
X67594886Y-23558500D01*
X69019014Y-23558500D01*
X69192476Y-24430554D01*
X69686455Y-25169845D01*
X70425746Y-25663824D01*
X71077672Y-25793500D01*
X71517928Y-25793500D01*
X72169854Y-25663824D01*
X72909145Y-25169845D01*
X73298456Y-24587200D01*
X75867187Y-24587200D01*
X75978560Y-25147109D01*
X76295723Y-25621777D01*
X76647468Y-25856806D01*
X76517438Y-25910666D01*
X76113766Y-26314338D01*
X75895300Y-26841761D01*
X75895300Y-27412639D01*
X76113766Y-27940062D01*
X76517438Y-28343734D01*
X77044861Y-28562200D01*
X77615739Y-28562200D01*
X78143162Y-28343734D01*
X78502296Y-27984600D01*
X85312660Y-27984600D01*
X85312660Y-30384600D01*
X85361943Y-30632365D01*
X85502291Y-30842409D01*
X85712335Y-30982757D01*
X85960100Y-31032040D01*
X88360100Y-31032040D01*
X88607865Y-30982757D01*
X88817909Y-30842409D01*
X88958257Y-30632365D01*
X89007540Y-30384600D01*
X89007540Y-29828405D01*
X94102400Y-29828405D01*
X94102400Y-30598195D01*
X94396986Y-31309390D01*
X94941310Y-31853714D01*
X95652505Y-32148300D01*
X96422295Y-32148300D01*
X97133490Y-31853714D01*
X97677814Y-31309390D01*
X97972400Y-30598195D01*
X97972400Y-29828405D01*
X97677814Y-29117210D01*
X97133490Y-28572886D01*
X96422295Y-28278300D01*
X95652505Y-28278300D01*
X94941310Y-28572886D01*
X94396986Y-29117210D01*
X94102400Y-29828405D01*
X89007540Y-29828405D01*
X89007540Y-27984600D01*
X88958257Y-27736835D01*
X88817909Y-27526791D01*
X88607865Y-27386443D01*
X88360100Y-27337160D01*
X85960100Y-27337160D01*
X85712335Y-27386443D01*
X85502291Y-27526791D01*
X85361943Y-27736835D01*
X85312660Y-27984600D01*
X78502296Y-27984600D01*
X78546834Y-27940062D01*
X78765300Y-27412639D01*
X78765300Y-26841761D01*
X78546834Y-26314338D01*
X78143162Y-25910666D01*
X78013132Y-25856806D01*
X78364877Y-25621777D01*
X78682040Y-25147109D01*
X78793413Y-24587200D01*
X78682040Y-24027291D01*
X78543263Y-23819596D01*
X85325100Y-23819596D01*
X85325100Y-24549604D01*
X85604462Y-25224044D01*
X86120656Y-25740238D01*
X86795096Y-26019600D01*
X87525104Y-26019600D01*
X88199544Y-25740238D01*
X88715738Y-25224044D01*
X88995100Y-24549604D01*
X88995100Y-23819596D01*
X88715738Y-23145156D01*
X88199544Y-22628962D01*
X87525104Y-22349600D01*
X86795096Y-22349600D01*
X86120656Y-22628962D01*
X85604462Y-23145156D01*
X85325100Y-23819596D01*
X78543263Y-23819596D01*
X78364877Y-23552623D01*
X77890209Y-23235460D01*
X77471633Y-23152200D01*
X77188967Y-23152200D01*
X76770391Y-23235460D01*
X76295723Y-23552623D01*
X75978560Y-24027291D01*
X75867187Y-24587200D01*
X73298456Y-24587200D01*
X73403124Y-24430554D01*
X73576586Y-23558500D01*
X73403124Y-22686446D01*
X72909145Y-21947155D01*
X72882193Y-21929146D01*
X95118673Y-21929146D01*
X95120900Y-22497517D01*
X95120900Y-23065562D01*
X95123147Y-23070987D01*
X95123170Y-23076862D01*
X95553731Y-24116325D01*
X95556998Y-24118394D01*
X95560116Y-24125921D01*
X96371679Y-24937484D01*
X96379206Y-24940602D01*
X96381275Y-24943869D01*
X96907211Y-25159309D01*
X97432038Y-25376700D01*
X97437909Y-25376700D01*
X97443346Y-25378927D01*
X98011717Y-25376700D01*
X98579762Y-25376700D01*
X98585187Y-25374453D01*
X98591062Y-25374430D01*
X99630525Y-24943869D01*
X99632594Y-24940602D01*
X99640121Y-24937484D01*
X100451684Y-24125921D01*
X100454802Y-24118394D01*
X100458069Y-24116325D01*
X100673509Y-23590389D01*
X100890900Y-23065562D01*
X100890900Y-23059691D01*
X100893127Y-23054254D01*
X100890900Y-22485883D01*
X100890900Y-21917838D01*
X100888653Y-21912413D01*
X100888630Y-21906538D01*
X100458069Y-20867075D01*
X100454802Y-20865006D01*
X100451684Y-20857479D01*
X99640121Y-20045916D01*
X99632594Y-20042798D01*
X99630525Y-20039531D01*
X99104589Y-19824091D01*
X98579762Y-19606700D01*
X98573891Y-19606700D01*
X98568454Y-19604473D01*
X98000083Y-19606700D01*
X97432038Y-19606700D01*
X97426613Y-19608947D01*
X97420738Y-19608970D01*
X96381275Y-20039531D01*
X96379206Y-20042798D01*
X96371679Y-20045916D01*
X95560116Y-20857479D01*
X95556998Y-20865006D01*
X95553731Y-20867075D01*
X95338291Y-21393011D01*
X95120900Y-21917838D01*
X95120900Y-21923709D01*
X95118673Y-21929146D01*
X72882193Y-21929146D01*
X72169854Y-21453176D01*
X71517928Y-21323500D01*
X71077672Y-21323500D01*
X70425746Y-21453176D01*
X69686455Y-21947155D01*
X69192476Y-22686446D01*
X69019014Y-23558500D01*
X67594886Y-23558500D01*
X67421424Y-22686446D01*
X66927445Y-21947155D01*
X66188154Y-21453176D01*
X65536228Y-21323500D01*
X65095972Y-21323500D01*
X64444046Y-21453176D01*
X63704755Y-21947155D01*
X63210776Y-22686446D01*
X63037314Y-23558500D01*
X37770728Y-23558500D01*
X37636338Y-23234056D01*
X37120144Y-22717862D01*
X36445704Y-22438500D01*
X35715696Y-22438500D01*
X35041256Y-22717862D01*
X34525062Y-23234056D01*
X34245700Y-23908496D01*
X20374376Y-23908496D01*
X20561909Y-23450689D01*
X20779300Y-22925862D01*
X20779300Y-22919991D01*
X20781527Y-22914554D01*
X20779300Y-22346183D01*
X20779300Y-21778138D01*
X20777053Y-21772713D01*
X20777030Y-21766838D01*
X20346469Y-20727375D01*
X20343202Y-20725306D01*
X20340084Y-20717779D01*
X19528521Y-19906216D01*
X19520994Y-19903098D01*
X19518925Y-19899831D01*
X18992989Y-19684391D01*
X18747245Y-19582600D01*
X101206300Y-19582600D01*
X101206300Y-67195700D01*
X101206300Y-67195700D01*
G37*
X101206300Y-67195700D02*
X99723705Y-67195700D01*
X100388184Y-66531221D01*
X100391302Y-66523694D01*
X100394569Y-66521625D01*
X100610009Y-65995689D01*
X100827400Y-65470862D01*
X100827400Y-65464991D01*
X100829627Y-65459554D01*
X100827400Y-64891183D01*
X100827400Y-64323138D01*
X100825153Y-64317713D01*
X100825130Y-64311838D01*
X100394569Y-63272375D01*
X100391302Y-63270306D01*
X100388184Y-63262779D01*
X99576621Y-62451216D01*
X99569094Y-62448098D01*
X99567025Y-62444831D01*
X99041089Y-62229391D01*
X98516262Y-62012000D01*
X98510391Y-62012000D01*
X98504954Y-62009773D01*
X97936583Y-62012000D01*
X97368538Y-62012000D01*
X97363113Y-62014247D01*
X97357238Y-62014270D01*
X96317775Y-62444831D01*
X96315706Y-62448098D01*
X96308179Y-62451216D01*
X95496616Y-63262779D01*
X95493498Y-63270306D01*
X95490231Y-63272375D01*
X95274791Y-63798311D01*
X95057400Y-64323138D01*
X95057400Y-64329009D01*
X95055173Y-64334446D01*
X95057400Y-64902817D01*
X95057400Y-65470862D01*
X95059647Y-65476287D01*
X95059670Y-65482162D01*
X95490231Y-66521625D01*
X95493498Y-66523694D01*
X95496616Y-66531221D01*
X96161095Y-67195700D01*
X19802605Y-67195700D01*
X20467084Y-66531221D01*
X20470202Y-66523694D01*
X20473469Y-66521625D01*
X20688909Y-65995689D01*
X20906300Y-65470862D01*
X20906300Y-65464991D01*
X20908527Y-65459554D01*
X20906300Y-64891183D01*
X20906300Y-64323138D01*
X20904053Y-64317713D01*
X20904030Y-64311838D01*
X20473469Y-63272375D01*
X20470202Y-63270306D01*
X20467084Y-63262779D01*
X19655521Y-62451216D01*
X19647994Y-62448098D01*
X19645925Y-62444831D01*
X19119989Y-62229391D01*
X18595162Y-62012000D01*
X18589291Y-62012000D01*
X18583854Y-62009773D01*
X18015483Y-62012000D01*
X17447438Y-62012000D01*
X17442013Y-62014247D01*
X17436138Y-62014270D01*
X16396675Y-62444831D01*
X16394606Y-62448098D01*
X16387079Y-62451216D01*
X15575516Y-63262779D01*
X15572398Y-63270306D01*
X15569131Y-63272375D01*
X15481300Y-63486789D01*
X15481300Y-59540896D01*
X21025000Y-59540896D01*
X21025000Y-60270904D01*
X21304362Y-60945344D01*
X21820556Y-61461538D01*
X22494996Y-61740900D01*
X23225004Y-61740900D01*
X23899444Y-61461538D01*
X24415638Y-60945344D01*
X24695000Y-60270904D01*
X24695000Y-59905900D01*
X48929051Y-59905900D01*
X49071469Y-60621881D01*
X49477039Y-61228861D01*
X50084019Y-61634431D01*
X50619273Y-61740900D01*
X50980727Y-61740900D01*
X51515981Y-61634431D01*
X52122961Y-61228861D01*
X52201948Y-61110648D01*
X76470100Y-61110648D01*
X76470100Y-62079352D01*
X76840807Y-62974316D01*
X77525784Y-63659293D01*
X78420748Y-64030000D01*
X79389452Y-64030000D01*
X80284416Y-63659293D01*
X80969393Y-62974316D01*
X81340100Y-62079352D01*
X81340100Y-61110648D01*
X80969393Y-60215684D01*
X80284416Y-59530707D01*
X79389452Y-59160000D01*
X78420748Y-59160000D01*
X77525784Y-59530707D01*
X76840807Y-60215684D01*
X76470100Y-61110648D01*
X52201948Y-61110648D01*
X52528531Y-60621881D01*
X52670949Y-59905900D01*
X52528531Y-59189919D01*
X52122961Y-58582939D01*
X51515981Y-58177369D01*
X50980727Y-58070900D01*
X50619273Y-58070900D01*
X50084019Y-58177369D01*
X49477039Y-58582939D01*
X49071469Y-59189919D01*
X48929051Y-59905900D01*
X24695000Y-59905900D01*
X24695000Y-59540896D01*
X24415638Y-58866456D01*
X23899444Y-58350262D01*
X23225004Y-58070900D01*
X22494996Y-58070900D01*
X21820556Y-58350262D01*
X21304362Y-58866456D01*
X21025000Y-59540896D01*
X15481300Y-59540896D01*
X15481300Y-53352127D01*
X56031130Y-53352127D01*
X56031130Y-54623272D01*
X56111522Y-55027431D01*
X56417760Y-55485749D01*
X56876078Y-55791988D01*
X57416700Y-55899524D01*
X57957321Y-55791988D01*
X58415639Y-55485750D01*
X58686700Y-55080079D01*
X58957760Y-55485749D01*
X59416078Y-55791988D01*
X59956700Y-55899524D01*
X60497321Y-55791988D01*
X60955639Y-55485750D01*
X61226700Y-55080079D01*
X61497760Y-55485749D01*
X61956078Y-55791988D01*
X62496700Y-55899524D01*
X63037321Y-55791988D01*
X63495639Y-55485750D01*
X63801878Y-55027432D01*
X63857896Y-54745805D01*
X94267500Y-54745805D01*
X94267500Y-55515595D01*
X94562086Y-56226790D01*
X95106410Y-56771114D01*
X95817605Y-57065700D01*
X96587395Y-57065700D01*
X97298590Y-56771114D01*
X97842914Y-56226790D01*
X98137500Y-55515595D01*
X98137500Y-54745805D01*
X97842914Y-54034610D01*
X97298590Y-53490286D01*
X96587395Y-53195700D01*
X95817605Y-53195700D01*
X95106410Y-53490286D01*
X94562086Y-54034610D01*
X94267500Y-54745805D01*
X63857896Y-54745805D01*
X63882270Y-54623273D01*
X63882270Y-53352127D01*
X63801878Y-52947968D01*
X63495640Y-52489650D01*
X63037322Y-52183412D01*
X62496700Y-52075876D01*
X61956079Y-52183412D01*
X61497761Y-52489650D01*
X61226700Y-52895320D01*
X60955640Y-52489650D01*
X60497322Y-52183412D01*
X59956700Y-52075876D01*
X59416079Y-52183412D01*
X58957761Y-52489650D01*
X58686700Y-52895320D01*
X58415640Y-52489650D01*
X57957322Y-52183412D01*
X57416700Y-52075876D01*
X56876079Y-52183412D01*
X56417761Y-52489650D01*
X56111522Y-52947968D01*
X56031130Y-53352127D01*
X15481300Y-53352127D01*
X15481300Y-49627705D01*
X16962600Y-49627705D01*
X16962600Y-50397495D01*
X17257186Y-51108690D01*
X17801510Y-51653014D01*
X18512705Y-51947600D01*
X19282495Y-51947600D01*
X19993690Y-51653014D01*
X20538014Y-51108690D01*
X20832600Y-50397495D01*
X20832600Y-49627705D01*
X20793495Y-49533296D01*
X21025000Y-49533296D01*
X21025000Y-50263304D01*
X21304362Y-50937744D01*
X21820556Y-51453938D01*
X22494996Y-51733300D01*
X23225004Y-51733300D01*
X23899444Y-51453938D01*
X24415638Y-50937744D01*
X24695000Y-50263304D01*
X24695000Y-49898300D01*
X48929051Y-49898300D01*
X49071469Y-50614281D01*
X49477039Y-51221261D01*
X50084019Y-51626831D01*
X50619273Y-51733300D01*
X50980727Y-51733300D01*
X51515981Y-51626831D01*
X52122961Y-51221261D01*
X52528531Y-50614281D01*
X52670949Y-49898300D01*
X52528531Y-49182319D01*
X52122961Y-48575339D01*
X51515981Y-48169769D01*
X50980727Y-48063300D01*
X50619273Y-48063300D01*
X50084019Y-48169769D01*
X49477039Y-48575339D01*
X49071469Y-49182319D01*
X48929051Y-49898300D01*
X24695000Y-49898300D01*
X24695000Y-49533296D01*
X24415638Y-48858856D01*
X23899444Y-48342662D01*
X23225004Y-48063300D01*
X22494996Y-48063300D01*
X21820556Y-48342662D01*
X21304362Y-48858856D01*
X21025000Y-49533296D01*
X20793495Y-49533296D01*
X20538014Y-48916510D01*
X19993690Y-48372186D01*
X19282495Y-48077600D01*
X18512705Y-48077600D01*
X17801510Y-48372186D01*
X17257186Y-48916510D01*
X16962600Y-49627705D01*
X15481300Y-49627705D01*
X15481300Y-36083300D01*
X25308360Y-36083300D01*
X25308360Y-39583300D01*
X25357643Y-39831065D01*
X25497991Y-40041109D01*
X25708035Y-40181457D01*
X25955800Y-40230740D01*
X28639795Y-40230740D01*
X28497991Y-40325491D01*
X28357643Y-40535535D01*
X28308360Y-40783300D01*
X28308360Y-44283300D01*
X28357643Y-44531065D01*
X28497991Y-44741109D01*
X28708035Y-44881457D01*
X28955800Y-44930740D01*
X32455800Y-44930740D01*
X32703565Y-44881457D01*
X32913609Y-44741109D01*
X33053957Y-44531065D01*
X33103240Y-44283300D01*
X33103240Y-42393472D01*
X43208200Y-42393472D01*
X43208200Y-42968328D01*
X43428188Y-43499427D01*
X43834673Y-43905912D01*
X44365772Y-44125900D01*
X44940628Y-44125900D01*
X45471727Y-43905912D01*
X45878212Y-43499427D01*
X46098200Y-42968328D01*
X46098200Y-42393472D01*
X45878212Y-41862373D01*
X45471727Y-41455888D01*
X44940628Y-41235900D01*
X44365772Y-41235900D01*
X43834673Y-41455888D01*
X43428188Y-41862373D01*
X43208200Y-42393472D01*
X33103240Y-42393472D01*
X33103240Y-40783300D01*
X33053957Y-40535535D01*
X32913609Y-40325491D01*
X32771805Y-40230740D01*
X35455800Y-40230740D01*
X35703565Y-40181457D01*
X35913609Y-40041109D01*
X36053957Y-39831065D01*
X36103240Y-39583300D01*
X36103240Y-36083300D01*
X36053957Y-35835535D01*
X35913609Y-35625491D01*
X35703565Y-35485143D01*
X35455800Y-35435860D01*
X31955800Y-35435860D01*
X31708035Y-35485143D01*
X31497991Y-35625491D01*
X31357643Y-35835535D01*
X31308360Y-36083300D01*
X31308360Y-39583300D01*
X31357643Y-39831065D01*
X31497991Y-40041109D01*
X31639795Y-40135860D01*
X29771805Y-40135860D01*
X29913609Y-40041109D01*
X30053957Y-39831065D01*
X30103240Y-39583300D01*
X30103240Y-36083300D01*
X30053957Y-35835535D01*
X29913609Y-35625491D01*
X29703565Y-35485143D01*
X29455800Y-35435860D01*
X25955800Y-35435860D01*
X25708035Y-35485143D01*
X25497991Y-35625491D01*
X25357643Y-35835535D01*
X25308360Y-36083300D01*
X15481300Y-36083300D01*
X15481300Y-28723505D01*
X16899100Y-28723505D01*
X16899100Y-29493295D01*
X17193686Y-30204490D01*
X17738010Y-30748814D01*
X18449205Y-31043400D01*
X19218995Y-31043400D01*
X19930190Y-30748814D01*
X20474514Y-30204490D01*
X20769100Y-29493295D01*
X20769100Y-28723505D01*
X20499860Y-28073500D01*
X34233260Y-28073500D01*
X34233260Y-30473500D01*
X34282543Y-30721265D01*
X34422891Y-30931309D01*
X34632935Y-31071657D01*
X34880700Y-31120940D01*
X37280700Y-31120940D01*
X37528465Y-31071657D01*
X37738509Y-30931309D01*
X37878857Y-30721265D01*
X37928140Y-30473500D01*
X37928140Y-28613100D01*
X38770667Y-28613100D01*
X38797800Y-28749507D01*
X38797801Y-37811188D01*
X38770667Y-37947600D01*
X38878159Y-38487999D01*
X39083892Y-38795900D01*
X39184272Y-38946129D01*
X39299913Y-39023398D01*
X39945200Y-39668685D01*
X40022471Y-39784329D01*
X40480600Y-40090441D01*
X41021000Y-40197933D01*
X41157407Y-40170800D01*
X43411893Y-40170800D01*
X43548300Y-40197933D01*
X43684707Y-40170800D01*
X44088700Y-40090441D01*
X44546829Y-39784329D01*
X44624099Y-39668686D01*
X45326874Y-38965912D01*
X45471727Y-38905912D01*
X45878212Y-38499427D01*
X46098200Y-37968328D01*
X46098200Y-37393472D01*
X45878212Y-36862373D01*
X45471727Y-36455888D01*
X44940628Y-36235900D01*
X44365772Y-36235900D01*
X43834673Y-36455888D01*
X43428188Y-36862373D01*
X43368188Y-37007226D01*
X42974615Y-37400800D01*
X41594685Y-37400800D01*
X41567800Y-37373915D01*
X41567800Y-29186785D01*
X42331286Y-28423300D01*
X43817949Y-28423300D01*
X43637723Y-28543723D01*
X43320560Y-29018391D01*
X43209187Y-29578300D01*
X43320560Y-30138209D01*
X43637723Y-30612877D01*
X43990058Y-30848300D01*
X43637723Y-31083723D01*
X43320560Y-31558391D01*
X43209187Y-32118300D01*
X43320560Y-32678209D01*
X43637723Y-33152877D01*
X43990058Y-33388300D01*
X43637723Y-33623723D01*
X43320560Y-34098391D01*
X43209187Y-34658300D01*
X43320560Y-35218209D01*
X43637723Y-35692877D01*
X44112391Y-36010040D01*
X44530967Y-36093300D01*
X45613633Y-36093300D01*
X46032209Y-36010040D01*
X46506877Y-35692877D01*
X46824040Y-35218209D01*
X46935413Y-34658300D01*
X46824040Y-34098391D01*
X46506877Y-33623723D01*
X46154542Y-33388300D01*
X46506877Y-33152877D01*
X46824040Y-32678209D01*
X46935413Y-32118300D01*
X46824040Y-31558391D01*
X46506877Y-31083723D01*
X46154542Y-30848300D01*
X46506877Y-30612877D01*
X46824040Y-30138209D01*
X46935413Y-29578300D01*
X46824040Y-29018391D01*
X46506877Y-28543723D01*
X46326651Y-28423300D01*
X47076715Y-28423300D01*
X47294100Y-28640685D01*
X47294101Y-35258488D01*
X47266967Y-35394900D01*
X47374459Y-35935299D01*
X47603303Y-36277788D01*
X47680572Y-36393429D01*
X47796212Y-36470697D01*
X50197025Y-38871510D01*
X49816907Y-38795900D01*
X49680500Y-38768767D01*
X49544093Y-38795900D01*
X47585481Y-38795900D01*
X47440628Y-38735900D01*
X46865772Y-38735900D01*
X46334673Y-38955888D01*
X45928188Y-39362373D01*
X45708200Y-39893472D01*
X45708200Y-40468328D01*
X45928188Y-40999427D01*
X46334673Y-41405912D01*
X46865772Y-41625900D01*
X47440628Y-41625900D01*
X47585481Y-41565900D01*
X49106815Y-41565900D01*
X53597700Y-46056785D01*
X53674971Y-46172429D01*
X54133100Y-46478541D01*
X54537093Y-46558900D01*
X54673499Y-46586033D01*
X54809905Y-46558900D01*
X63376293Y-46558900D01*
X63512700Y-46586033D01*
X63649107Y-46558900D01*
X64053100Y-46478541D01*
X64511229Y-46172429D01*
X64588499Y-46056786D01*
X65411588Y-45233698D01*
X65527229Y-45156429D01*
X65606601Y-45037641D01*
X65804520Y-44741434D01*
X65852166Y-44856462D01*
X66255838Y-45260134D01*
X66783261Y-45478600D01*
X67354139Y-45478600D01*
X67474850Y-45428600D01*
X75766015Y-45428600D01*
X77130805Y-46793390D01*
X77208072Y-46909028D01*
X77323710Y-46986295D01*
X77520100Y-47182685D01*
X77520100Y-48096391D01*
X76840807Y-48775684D01*
X76470100Y-49670648D01*
X76470100Y-50639352D01*
X76840807Y-51534316D01*
X77525784Y-52219293D01*
X78420748Y-52590000D01*
X79389452Y-52590000D01*
X80284416Y-52219293D01*
X80969393Y-51534316D01*
X81340100Y-50639352D01*
X81340100Y-49757022D01*
X94045100Y-49757022D01*
X94045100Y-50606378D01*
X94370134Y-51391080D01*
X94970720Y-51991666D01*
X95755422Y-52316700D01*
X96604778Y-52316700D01*
X97389480Y-51991666D01*
X97990066Y-51391080D01*
X98315100Y-50606378D01*
X98315100Y-49757022D01*
X97990066Y-48972320D01*
X97389480Y-48371734D01*
X96604778Y-48046700D01*
X95755422Y-48046700D01*
X94970720Y-48371734D01*
X94370134Y-48972320D01*
X94045100Y-49757022D01*
X81340100Y-49757022D01*
X81340100Y-49670648D01*
X80969393Y-48775684D01*
X80290100Y-48096391D01*
X80290100Y-46745405D01*
X80317233Y-46608999D01*
X80245763Y-46249696D01*
X80209741Y-46068600D01*
X80128608Y-45947177D01*
X80969088Y-45106698D01*
X81084729Y-45029429D01*
X81390841Y-44571300D01*
X81433429Y-44357194D01*
X81462380Y-44211651D01*
X81591623Y-44405077D01*
X82066291Y-44722240D01*
X82484867Y-44805500D01*
X82767533Y-44805500D01*
X83186109Y-44722240D01*
X83660777Y-44405077D01*
X83977940Y-43930409D01*
X84089313Y-43370500D01*
X83977940Y-42810591D01*
X83660777Y-42335923D01*
X83186109Y-42018760D01*
X82767533Y-41935500D01*
X82484867Y-41935500D01*
X82066291Y-42018760D01*
X81591623Y-42335923D01*
X81356594Y-42687668D01*
X81302734Y-42557638D01*
X80899062Y-42153966D01*
X80371639Y-41935500D01*
X79800761Y-41935500D01*
X79273338Y-42153966D01*
X78869666Y-42557638D01*
X78651200Y-43085061D01*
X78651200Y-43507214D01*
X78206600Y-43951815D01*
X77415500Y-43160715D01*
X77338229Y-43045071D01*
X76880100Y-42738959D01*
X76476107Y-42658600D01*
X76339700Y-42631467D01*
X76203293Y-42658600D01*
X67474850Y-42658600D01*
X67354139Y-42608600D01*
X66783261Y-42608600D01*
X66255838Y-42827066D01*
X65852166Y-43230738D01*
X65798306Y-43360768D01*
X65563277Y-43009023D01*
X65088609Y-42691860D01*
X64670033Y-42608600D01*
X64387367Y-42608600D01*
X63968791Y-42691860D01*
X63494123Y-43009023D01*
X63176960Y-43483691D01*
X63160258Y-43567656D01*
X62939015Y-43788900D01*
X55247185Y-43788900D01*
X54855475Y-43397190D01*
X55372000Y-43499933D01*
X55508407Y-43472800D01*
X56985150Y-43472800D01*
X57105861Y-43522800D01*
X57676739Y-43522800D01*
X58204162Y-43304334D01*
X58607834Y-42900662D01*
X58661694Y-42770632D01*
X58896723Y-43122377D01*
X59371391Y-43439540D01*
X59789967Y-43522800D01*
X60072633Y-43522800D01*
X60491209Y-43439540D01*
X60965877Y-43122377D01*
X61283040Y-42647709D01*
X61394413Y-42087800D01*
X61283040Y-41527891D01*
X60965877Y-41053223D01*
X60491209Y-40736060D01*
X60072633Y-40652800D01*
X59789967Y-40652800D01*
X59371391Y-40736060D01*
X58896723Y-41053223D01*
X58661694Y-41404968D01*
X58607834Y-41274938D01*
X58204162Y-40871266D01*
X57676739Y-40652800D01*
X57105861Y-40652800D01*
X56985150Y-40702800D01*
X55945686Y-40702800D01*
X51622347Y-36379461D01*
X55969000Y-36379461D01*
X55969000Y-36950339D01*
X56187466Y-37477762D01*
X56591138Y-37881434D01*
X57118561Y-38099900D01*
X57689439Y-38099900D01*
X58216862Y-37881434D01*
X58620534Y-37477762D01*
X58674394Y-37347732D01*
X58909423Y-37699477D01*
X59384091Y-38016640D01*
X59802667Y-38099900D01*
X60085333Y-38099900D01*
X60503909Y-38016640D01*
X60978577Y-37699477D01*
X61295740Y-37224809D01*
X61300973Y-37198500D01*
X63068660Y-37198500D01*
X63068660Y-40398500D01*
X63117943Y-40646265D01*
X63258291Y-40856309D01*
X63468335Y-40996657D01*
X63716100Y-41045940D01*
X66916100Y-41045940D01*
X67163865Y-40996657D01*
X67373909Y-40856309D01*
X67514257Y-40646265D01*
X67563540Y-40398500D01*
X67563540Y-37198500D01*
X69050360Y-37198500D01*
X69050360Y-40398500D01*
X69099643Y-40646265D01*
X69239991Y-40856309D01*
X69450035Y-40996657D01*
X69697800Y-41045940D01*
X72897800Y-41045940D01*
X73145565Y-40996657D01*
X73355609Y-40856309D01*
X73495957Y-40646265D01*
X73545240Y-40398500D01*
X73545240Y-37903461D01*
X78714700Y-37903461D01*
X78714700Y-38474339D01*
X78933166Y-39001762D01*
X79336838Y-39405434D01*
X79864261Y-39623900D01*
X80435139Y-39623900D01*
X80962562Y-39405434D01*
X81366234Y-39001762D01*
X81420094Y-38871732D01*
X81655123Y-39223477D01*
X82129791Y-39540640D01*
X82548367Y-39623900D01*
X82831033Y-39623900D01*
X83249609Y-39540640D01*
X83724277Y-39223477D01*
X84041440Y-38748809D01*
X84152813Y-38188900D01*
X84090984Y-37878061D01*
X84226500Y-37878061D01*
X84226500Y-38448939D01*
X84444966Y-38976362D01*
X84848638Y-39380034D01*
X85376061Y-39598500D01*
X85946939Y-39598500D01*
X86474362Y-39380034D01*
X86878034Y-38976362D01*
X86931894Y-38846332D01*
X86943501Y-38863702D01*
X86943500Y-42496104D01*
X86601362Y-42153966D01*
X86073939Y-41935500D01*
X85503061Y-41935500D01*
X84975638Y-42153966D01*
X84571966Y-42557638D01*
X84353500Y-43085061D01*
X84353500Y-43655939D01*
X84571966Y-44183362D01*
X84975638Y-44587034D01*
X85503061Y-44805500D01*
X86073939Y-44805500D01*
X86601362Y-44587034D01*
X87005034Y-44183362D01*
X87058894Y-44053332D01*
X87293923Y-44405077D01*
X87768591Y-44722240D01*
X88187167Y-44805500D01*
X88469833Y-44805500D01*
X88888409Y-44722240D01*
X89363077Y-44405077D01*
X89680240Y-43930409D01*
X89791613Y-43370500D01*
X89713500Y-42977800D01*
X89713500Y-39236206D01*
X92125100Y-39236206D01*
X92125100Y-39787194D01*
X92335953Y-40296240D01*
X92725560Y-40685847D01*
X92956970Y-40781700D01*
X92725560Y-40877553D01*
X92335953Y-41267160D01*
X92125100Y-41776206D01*
X92125100Y-42327194D01*
X92335953Y-42836240D01*
X92566413Y-43066700D01*
X92335953Y-43297160D01*
X92125100Y-43806206D01*
X92125100Y-44357194D01*
X92335953Y-44866240D01*
X92725560Y-45255847D01*
X92956970Y-45351700D01*
X92725560Y-45447553D01*
X92335953Y-45837160D01*
X92125100Y-46346206D01*
X92125100Y-46897194D01*
X92335953Y-47406240D01*
X92725560Y-47795847D01*
X93234606Y-48006700D01*
X93785594Y-48006700D01*
X94294640Y-47795847D01*
X94684247Y-47406240D01*
X94895100Y-46897194D01*
X94895100Y-46346206D01*
X94684247Y-45837160D01*
X94294640Y-45447553D01*
X94063230Y-45351700D01*
X94294640Y-45255847D01*
X94684247Y-44866240D01*
X94895100Y-44357194D01*
X94895100Y-43806206D01*
X94684247Y-43297160D01*
X94453787Y-43066700D01*
X94684247Y-42836240D01*
X94895100Y-42327194D01*
X94895100Y-41776206D01*
X94684247Y-41267160D01*
X94294640Y-40877553D01*
X94063230Y-40781700D01*
X94294640Y-40685847D01*
X94684247Y-40296240D01*
X94895100Y-39787194D01*
X94895100Y-39236206D01*
X94684247Y-38727160D01*
X94294640Y-38337553D01*
X93785594Y-38126700D01*
X93234606Y-38126700D01*
X92725560Y-38337553D01*
X92335953Y-38727160D01*
X92125100Y-39236206D01*
X89713500Y-39236206D01*
X89713500Y-38426905D01*
X89740633Y-38290499D01*
X89663646Y-37903461D01*
X89633141Y-37750100D01*
X89560867Y-37641934D01*
X89553240Y-37603591D01*
X89236077Y-37128923D01*
X88761409Y-36811760D01*
X88342833Y-36728500D01*
X88060167Y-36728500D01*
X87641591Y-36811760D01*
X87166923Y-37128923D01*
X86931894Y-37480668D01*
X86878034Y-37350638D01*
X86474362Y-36946966D01*
X85946939Y-36728500D01*
X85376061Y-36728500D01*
X84848638Y-36946966D01*
X84444966Y-37350638D01*
X84226500Y-37878061D01*
X84090984Y-37878061D01*
X84041440Y-37628991D01*
X83724277Y-37154323D01*
X83249609Y-36837160D01*
X82831033Y-36753900D01*
X82548367Y-36753900D01*
X82129791Y-36837160D01*
X81655123Y-37154323D01*
X81420094Y-37506068D01*
X81366234Y-37376038D01*
X80962562Y-36972366D01*
X80435139Y-36753900D01*
X79864261Y-36753900D01*
X79336838Y-36972366D01*
X78933166Y-37376038D01*
X78714700Y-37903461D01*
X73545240Y-37903461D01*
X73545240Y-37198500D01*
X73495957Y-36950735D01*
X73355609Y-36740691D01*
X73145565Y-36600343D01*
X72897800Y-36551060D01*
X69697800Y-36551060D01*
X69450035Y-36600343D01*
X69239991Y-36740691D01*
X69099643Y-36950735D01*
X69050360Y-37198500D01*
X67563540Y-37198500D01*
X67514257Y-36950735D01*
X67373909Y-36740691D01*
X67163865Y-36600343D01*
X66916100Y-36551060D01*
X63716100Y-36551060D01*
X63468335Y-36600343D01*
X63258291Y-36740691D01*
X63117943Y-36950735D01*
X63068660Y-37198500D01*
X61300973Y-37198500D01*
X61407113Y-36664900D01*
X61295740Y-36104991D01*
X61250325Y-36037022D01*
X94045100Y-36037022D01*
X94045100Y-36886378D01*
X94370134Y-37671080D01*
X94970720Y-38271666D01*
X95755422Y-38596700D01*
X96604778Y-38596700D01*
X97389480Y-38271666D01*
X97990066Y-37671080D01*
X98315100Y-36886378D01*
X98315100Y-36037022D01*
X97990066Y-35252320D01*
X97389480Y-34651734D01*
X96604778Y-34326700D01*
X95755422Y-34326700D01*
X94970720Y-34651734D01*
X94370134Y-35252320D01*
X94045100Y-36037022D01*
X61250325Y-36037022D01*
X60978577Y-35630323D01*
X60503909Y-35313160D01*
X60085333Y-35229900D01*
X59802667Y-35229900D01*
X59384091Y-35313160D01*
X58909423Y-35630323D01*
X58674394Y-35982068D01*
X58620534Y-35852038D01*
X58216862Y-35448366D01*
X57689439Y-35229900D01*
X57118561Y-35229900D01*
X56591138Y-35448366D01*
X56187466Y-35852038D01*
X55969000Y-36379461D01*
X51622347Y-36379461D01*
X51312951Y-36070066D01*
X51492300Y-36105740D01*
X53892300Y-36105740D01*
X54140065Y-36056457D01*
X54350109Y-35916109D01*
X54490457Y-35706065D01*
X54539740Y-35458300D01*
X54539740Y-33858300D01*
X54490457Y-33610535D01*
X54350109Y-33400491D01*
X54140065Y-33260143D01*
X54006194Y-33233515D01*
X54126877Y-33152877D01*
X54444040Y-32678209D01*
X54555413Y-32118300D01*
X54444040Y-31558391D01*
X54126877Y-31083723D01*
X53774542Y-30848300D01*
X54126877Y-30612877D01*
X54444040Y-30138209D01*
X54478637Y-29964278D01*
X56365900Y-29964278D01*
X56365900Y-30614722D01*
X56614814Y-31215653D01*
X57074747Y-31675586D01*
X57675678Y-31924500D01*
X58326122Y-31924500D01*
X58927053Y-31675586D01*
X59386986Y-31215653D01*
X59591049Y-30723000D01*
X75706660Y-30723000D01*
X75706660Y-32523000D01*
X75755943Y-32770765D01*
X75896291Y-32980809D01*
X76106335Y-33121157D01*
X76122008Y-33124275D01*
X75952790Y-33293493D01*
X75719100Y-33857670D01*
X75719100Y-34468330D01*
X75952790Y-35032507D01*
X76384593Y-35464310D01*
X76948770Y-35698000D01*
X77559430Y-35698000D01*
X78123607Y-35464310D01*
X78555410Y-35032507D01*
X78789100Y-34468330D01*
X78789100Y-33857670D01*
X78555410Y-33293493D01*
X78386192Y-33124275D01*
X78401865Y-33121157D01*
X78611909Y-32980809D01*
X78752257Y-32770765D01*
X78801540Y-32523000D01*
X78801540Y-30723000D01*
X78752257Y-30475235D01*
X78611909Y-30265191D01*
X78401865Y-30124843D01*
X78154100Y-30075560D01*
X76354100Y-30075560D01*
X76106335Y-30124843D01*
X75896291Y-30265191D01*
X75755943Y-30475235D01*
X75706660Y-30723000D01*
X59591049Y-30723000D01*
X59635900Y-30614722D01*
X59635900Y-29964278D01*
X59386986Y-29363347D01*
X58927053Y-28903414D01*
X58326122Y-28654500D01*
X57675678Y-28654500D01*
X57074747Y-28903414D01*
X56614814Y-29363347D01*
X56365900Y-29964278D01*
X54478637Y-29964278D01*
X54555413Y-29578300D01*
X54444040Y-29018391D01*
X54126877Y-28543723D01*
X53774542Y-28308300D01*
X54126877Y-28072877D01*
X54444040Y-27598209D01*
X54555413Y-27038300D01*
X54444040Y-26478391D01*
X54126877Y-26003723D01*
X53652209Y-25686560D01*
X53233633Y-25603300D01*
X52150967Y-25603300D01*
X51732391Y-25686560D01*
X51257723Y-26003723D01*
X50940560Y-26478391D01*
X50829187Y-27038300D01*
X50940560Y-27598209D01*
X51257723Y-28072877D01*
X51610058Y-28308300D01*
X51257723Y-28543723D01*
X50940560Y-29018391D01*
X50829187Y-29578300D01*
X50940560Y-30138209D01*
X51257723Y-30612877D01*
X51610058Y-30848300D01*
X51257723Y-31083723D01*
X50940560Y-31558391D01*
X50829187Y-32118300D01*
X50940560Y-32678209D01*
X51257723Y-33152877D01*
X51378406Y-33233515D01*
X51244535Y-33260143D01*
X51034491Y-33400491D01*
X50894143Y-33610535D01*
X50844860Y-33858300D01*
X50844860Y-35458300D01*
X50880534Y-35637649D01*
X50064100Y-34821215D01*
X50064100Y-28203401D01*
X50091232Y-28066999D01*
X50064100Y-27930597D01*
X50064100Y-27930593D01*
X49983741Y-27526600D01*
X49677628Y-27068471D01*
X49561987Y-26991202D01*
X48726200Y-26155415D01*
X48648929Y-26039771D01*
X48190800Y-25733659D01*
X47786807Y-25653300D01*
X47650400Y-25626167D01*
X47513993Y-25653300D01*
X45865000Y-25653300D01*
X45613633Y-25603300D01*
X44530967Y-25603300D01*
X44279600Y-25653300D01*
X41894007Y-25653300D01*
X41757600Y-25626167D01*
X41621193Y-25653300D01*
X41217200Y-25733659D01*
X40759071Y-26039771D01*
X40681802Y-26155412D01*
X39299912Y-27537303D01*
X39184271Y-27614572D01*
X38979397Y-27921188D01*
X38878159Y-28072701D01*
X38770667Y-28613100D01*
X37928140Y-28613100D01*
X37928140Y-28073500D01*
X37878857Y-27825735D01*
X37738509Y-27615691D01*
X37528465Y-27475343D01*
X37280700Y-27426060D01*
X34880700Y-27426060D01*
X34632935Y-27475343D01*
X34422891Y-27615691D01*
X34282543Y-27825735D01*
X34233260Y-28073500D01*
X20499860Y-28073500D01*
X20474514Y-28012310D01*
X19930190Y-27467986D01*
X19218995Y-27173400D01*
X18449205Y-27173400D01*
X17738010Y-27467986D01*
X17193686Y-28012310D01*
X16899100Y-28723505D01*
X15481300Y-28723505D01*
X15481300Y-24019005D01*
X16260079Y-24797784D01*
X16267606Y-24800902D01*
X16269675Y-24804169D01*
X16795611Y-25019609D01*
X17320438Y-25237000D01*
X17326309Y-25237000D01*
X17331746Y-25239227D01*
X17900117Y-25237000D01*
X18468162Y-25237000D01*
X18473587Y-25234753D01*
X18479462Y-25234730D01*
X19518925Y-24804169D01*
X19520994Y-24800902D01*
X19528521Y-24797784D01*
X20340084Y-23986221D01*
X20343202Y-23978694D01*
X20346469Y-23976625D01*
X20374376Y-23908496D01*
X34245700Y-23908496D01*
X34245700Y-24638504D01*
X34525062Y-25312944D01*
X35041256Y-25829138D01*
X35715696Y-26108500D01*
X36445704Y-26108500D01*
X37120144Y-25829138D01*
X37636338Y-25312944D01*
X37780760Y-24964278D01*
X56365900Y-24964278D01*
X56365900Y-25614722D01*
X56614814Y-26215653D01*
X57074747Y-26675586D01*
X57675678Y-26924500D01*
X58326122Y-26924500D01*
X58927053Y-26675586D01*
X59386986Y-26215653D01*
X59635900Y-25614722D01*
X59635900Y-24964278D01*
X59386986Y-24363347D01*
X58927053Y-23903414D01*
X58326122Y-23654500D01*
X57675678Y-23654500D01*
X57074747Y-23903414D01*
X56614814Y-24363347D01*
X56365900Y-24964278D01*
X37780760Y-24964278D01*
X37915700Y-24638504D01*
X37915700Y-23908496D01*
X37770728Y-23558500D01*
X63037314Y-23558500D01*
X63210776Y-24430554D01*
X63704755Y-25169845D01*
X64444046Y-25663824D01*
X65095972Y-25793500D01*
X65536228Y-25793500D01*
X66188154Y-25663824D01*
X66927445Y-25169845D01*
X67421424Y-24430554D01*
X67594886Y-23558500D01*
X69019014Y-23558500D01*
X69192476Y-24430554D01*
X69686455Y-25169845D01*
X70425746Y-25663824D01*
X71077672Y-25793500D01*
X71517928Y-25793500D01*
X72169854Y-25663824D01*
X72909145Y-25169845D01*
X73298456Y-24587200D01*
X75867187Y-24587200D01*
X75978560Y-25147109D01*
X76295723Y-25621777D01*
X76647468Y-25856806D01*
X76517438Y-25910666D01*
X76113766Y-26314338D01*
X75895300Y-26841761D01*
X75895300Y-27412639D01*
X76113766Y-27940062D01*
X76517438Y-28343734D01*
X77044861Y-28562200D01*
X77615739Y-28562200D01*
X78143162Y-28343734D01*
X78502296Y-27984600D01*
X85312660Y-27984600D01*
X85312660Y-30384600D01*
X85361943Y-30632365D01*
X85502291Y-30842409D01*
X85712335Y-30982757D01*
X85960100Y-31032040D01*
X88360100Y-31032040D01*
X88607865Y-30982757D01*
X88817909Y-30842409D01*
X88958257Y-30632365D01*
X89007540Y-30384600D01*
X89007540Y-29828405D01*
X94102400Y-29828405D01*
X94102400Y-30598195D01*
X94396986Y-31309390D01*
X94941310Y-31853714D01*
X95652505Y-32148300D01*
X96422295Y-32148300D01*
X97133490Y-31853714D01*
X97677814Y-31309390D01*
X97972400Y-30598195D01*
X97972400Y-29828405D01*
X97677814Y-29117210D01*
X97133490Y-28572886D01*
X96422295Y-28278300D01*
X95652505Y-28278300D01*
X94941310Y-28572886D01*
X94396986Y-29117210D01*
X94102400Y-29828405D01*
X89007540Y-29828405D01*
X89007540Y-27984600D01*
X88958257Y-27736835D01*
X88817909Y-27526791D01*
X88607865Y-27386443D01*
X88360100Y-27337160D01*
X85960100Y-27337160D01*
X85712335Y-27386443D01*
X85502291Y-27526791D01*
X85361943Y-27736835D01*
X85312660Y-27984600D01*
X78502296Y-27984600D01*
X78546834Y-27940062D01*
X78765300Y-27412639D01*
X78765300Y-26841761D01*
X78546834Y-26314338D01*
X78143162Y-25910666D01*
X78013132Y-25856806D01*
X78364877Y-25621777D01*
X78682040Y-25147109D01*
X78793413Y-24587200D01*
X78682040Y-24027291D01*
X78543263Y-23819596D01*
X85325100Y-23819596D01*
X85325100Y-24549604D01*
X85604462Y-25224044D01*
X86120656Y-25740238D01*
X86795096Y-26019600D01*
X87525104Y-26019600D01*
X88199544Y-25740238D01*
X88715738Y-25224044D01*
X88995100Y-24549604D01*
X88995100Y-23819596D01*
X88715738Y-23145156D01*
X88199544Y-22628962D01*
X87525104Y-22349600D01*
X86795096Y-22349600D01*
X86120656Y-22628962D01*
X85604462Y-23145156D01*
X85325100Y-23819596D01*
X78543263Y-23819596D01*
X78364877Y-23552623D01*
X77890209Y-23235460D01*
X77471633Y-23152200D01*
X77188967Y-23152200D01*
X76770391Y-23235460D01*
X76295723Y-23552623D01*
X75978560Y-24027291D01*
X75867187Y-24587200D01*
X73298456Y-24587200D01*
X73403124Y-24430554D01*
X73576586Y-23558500D01*
X73403124Y-22686446D01*
X72909145Y-21947155D01*
X72882193Y-21929146D01*
X95118673Y-21929146D01*
X95120900Y-22497517D01*
X95120900Y-23065562D01*
X95123147Y-23070987D01*
X95123170Y-23076862D01*
X95553731Y-24116325D01*
X95556998Y-24118394D01*
X95560116Y-24125921D01*
X96371679Y-24937484D01*
X96379206Y-24940602D01*
X96381275Y-24943869D01*
X96907211Y-25159309D01*
X97432038Y-25376700D01*
X97437909Y-25376700D01*
X97443346Y-25378927D01*
X98011717Y-25376700D01*
X98579762Y-25376700D01*
X98585187Y-25374453D01*
X98591062Y-25374430D01*
X99630525Y-24943869D01*
X99632594Y-24940602D01*
X99640121Y-24937484D01*
X100451684Y-24125921D01*
X100454802Y-24118394D01*
X100458069Y-24116325D01*
X100673509Y-23590389D01*
X100890900Y-23065562D01*
X100890900Y-23059691D01*
X100893127Y-23054254D01*
X100890900Y-22485883D01*
X100890900Y-21917838D01*
X100888653Y-21912413D01*
X100888630Y-21906538D01*
X100458069Y-20867075D01*
X100454802Y-20865006D01*
X100451684Y-20857479D01*
X99640121Y-20045916D01*
X99632594Y-20042798D01*
X99630525Y-20039531D01*
X99104589Y-19824091D01*
X98579762Y-19606700D01*
X98573891Y-19606700D01*
X98568454Y-19604473D01*
X98000083Y-19606700D01*
X97432038Y-19606700D01*
X97426613Y-19608947D01*
X97420738Y-19608970D01*
X96381275Y-20039531D01*
X96379206Y-20042798D01*
X96371679Y-20045916D01*
X95560116Y-20857479D01*
X95556998Y-20865006D01*
X95553731Y-20867075D01*
X95338291Y-21393011D01*
X95120900Y-21917838D01*
X95120900Y-21923709D01*
X95118673Y-21929146D01*
X72882193Y-21929146D01*
X72169854Y-21453176D01*
X71517928Y-21323500D01*
X71077672Y-21323500D01*
X70425746Y-21453176D01*
X69686455Y-21947155D01*
X69192476Y-22686446D01*
X69019014Y-23558500D01*
X67594886Y-23558500D01*
X67421424Y-22686446D01*
X66927445Y-21947155D01*
X66188154Y-21453176D01*
X65536228Y-21323500D01*
X65095972Y-21323500D01*
X64444046Y-21453176D01*
X63704755Y-21947155D01*
X63210776Y-22686446D01*
X63037314Y-23558500D01*
X37770728Y-23558500D01*
X37636338Y-23234056D01*
X37120144Y-22717862D01*
X36445704Y-22438500D01*
X35715696Y-22438500D01*
X35041256Y-22717862D01*
X34525062Y-23234056D01*
X34245700Y-23908496D01*
X20374376Y-23908496D01*
X20561909Y-23450689D01*
X20779300Y-22925862D01*
X20779300Y-22919991D01*
X20781527Y-22914554D01*
X20779300Y-22346183D01*
X20779300Y-21778138D01*
X20777053Y-21772713D01*
X20777030Y-21766838D01*
X20346469Y-20727375D01*
X20343202Y-20725306D01*
X20340084Y-20717779D01*
X19528521Y-19906216D01*
X19520994Y-19903098D01*
X19518925Y-19899831D01*
X18992989Y-19684391D01*
X18747245Y-19582600D01*
X101206300Y-19582600D01*
X101206300Y-67195700D01*
G36*
X15569131Y-66521625D02*
X15572398Y-66523694D01*
X15575516Y-66531221D01*
X16239995Y-67195700D01*
X15481300Y-67195700D01*
X15481300Y-66309583D01*
X15569131Y-66521625D01*
X15569131Y-66521625D01*
G37*
X15569131Y-66521625D02*
X15572398Y-66523694D01*
X15575516Y-66531221D01*
X16239995Y-67195700D01*
X15481300Y-67195700D01*
X15481300Y-66309583D01*
X15569131Y-66521625D01*
G36*
X16269675Y-19899831D02*
X16267606Y-19903098D01*
X16260079Y-19906216D01*
X15481300Y-20684995D01*
X15481300Y-19582600D01*
X17035536Y-19582600D01*
X16269675Y-19899831D01*
X16269675Y-19899831D01*
G37*
X16269675Y-19899831D02*
X16267606Y-19903098D01*
X16260079Y-19906216D01*
X15481300Y-20684995D01*
X15481300Y-19582600D01*
X17035536Y-19582600D01*
X16269675Y-19899831D01*
M02*
